<?xml version="1.0" encoding="utf-8"?>
<!-- Generated by IcoMoon.io -->
<!DOCTYPE svg PUBLIC "-//W3C//DTD SVG 1.1//EN" "http://www.w3.org/Graphics/SVG/1.1/DTD/svg11.dtd">
<svg version="1.1" xmlns="http://www.w3.org/2000/svg" viewBox="0 0 42 42">
<path fill="#444444" d="M42 16.641v18.609q0 1.547-1.102 2.648t-2.648 1.102h-34.5q-1.547 0-2.648-1.102t-1.102-2.648v-18.609q1.031 1.148 2.367 2.039 8.484 5.766 11.648 8.086 1.336 0.984 2.168 1.535t2.215 1.125 2.578 0.574h0.047q1.195 0 2.578-0.574t2.215-1.125 2.168-1.535q3.984-2.883 11.672-8.086 1.336-0.914 2.344-2.039zM42 9.75q0 1.852-1.148 3.539t-2.859 2.883q-8.812 6.117-10.969 7.617-0.234 0.164-0.996 0.715t-1.266 0.891-1.219 0.762-1.348 0.633-1.172 0.211h-0.047q-0.539 0-1.172-0.211t-1.348-0.633-1.219-0.762-1.266-0.891-0.996-0.715q-2.133-1.5-6.141-4.277t-4.805-3.34q-1.453-0.984-2.742-2.707t-1.289-3.199q0-1.828 0.973-3.047t2.777-1.219h34.5q1.523 0 2.637 1.102t1.113 2.648z"></path>
</svg>
