<?xml version="1.0" encoding="utf-8"?>
<!-- Generated by IcoMoon.io -->
<!DOCTYPE svg PUBLIC "-//W3C//DTD SVG 1.1//EN" "http://www.w3.org/Graphics/SVG/1.1/DTD/svg11.dtd">
<svg version="1.1" xmlns="http://www.w3.org/2000/svg" viewBox="0 0 36 42">
<path fill="#444444" d="M19.43 28.547q0 1.781-1.371 2.637t-3.27 0.855q-0.961 0-1.887-0.223t-1.77-0.668-1.359-1.242-0.516-1.828q0-1.078 0.586-1.875t1.535-1.207 1.922-0.586 1.98-0.176q0.469 0 0.727 0.047 0.047 0.023 0.539 0.387t0.609 0.445 0.539 0.422 0.574 0.516 0.445 0.527 0.398 0.609 0.211 0.621 0.105 0.738zM17.695 15.773q0 1.406-0.773 2.332t-2.156 0.926q-1.242 0-2.18-0.996t-1.348-2.262-0.41-2.484q0-1.43 0.75-2.438t2.156-1.008q1.242 0 2.191 1.055t1.359 2.367 0.41 2.508zM20.18 9.75l2.063-1.5h-6.211q-1.992 0-3.773 0.75t-2.988 2.297-1.207 3.586q0 2.18 1.512 3.621t3.715 1.441q0.516 0 1.008-0.070-0.305 0.68-0.305 1.266 0 1.031 0.937 2.203-4.102 0.281-6.023 1.477-1.102 0.68-1.77 1.711t-0.668 2.227q0 1.008 0.434 1.816t1.137 1.324 1.617 0.867 1.816 0.492 1.793 0.141q1.406 0 2.824-0.363t2.66-1.078 2.016-1.934 0.773-2.742q0-1.148-0.469-2.098t-1.148-1.559-1.359-1.113-1.148-1.031-0.469-1.043 0.363-0.996 0.879-0.926 1.031-0.984 0.879-1.395 0.363-1.934q0-1.406-0.527-2.332t-1.699-2.121h1.945zM27 20.25h3v-1.5h-3v-3h-1.5v3h-3v1.5h3v3.75h1.5v-3.75zM36 9.75v22.5q0 2.789-1.98 4.77t-4.77 1.98h-22.5q-2.789 0-4.77-1.98t-1.98-4.77v-22.5q0-2.789 1.98-4.77t4.77-1.98h22.5q2.789 0 4.77 1.98t1.98 4.77z"></path>
</svg>
