<?xml version="1.0" encoding="utf-8"?>
<!-- Generated by IcoMoon.io -->
<!DOCTYPE svg PUBLIC "-//W3C//DTD SVG 1.1//EN" "http://www.w3.org/Graphics/SVG/1.1/DTD/svg11.dtd">
<svg version="1.1" xmlns="http://www.w3.org/2000/svg" viewBox="0 0 36 42">
<path fill="#444444" d="M5.555 33.141h5.414v-16.266h-5.414v16.266zM11.32 11.859q-0.023-1.219-0.844-2.016t-2.18-0.797-2.215 0.797-0.855 2.016q0 1.195 0.832 2.004t2.168 0.809h0.023q1.383 0 2.227-0.809t0.844-2.004zM25.031 33.141h5.414v-9.328q0-3.609-1.711-5.461t-4.523-1.852q-3.187 0-4.898 2.742h0.047v-2.367h-5.414q0.070 1.547 0 16.266h5.414v-9.094q0-0.891 0.164-1.313 0.352-0.82 1.055-1.395t1.734-0.574q2.719 0 2.719 3.68v8.695zM36 9.75v22.5q0 2.789-1.98 4.77t-4.77 1.98h-22.5q-2.789 0-4.77-1.98t-1.98-4.77v-22.5q0-2.789 1.98-4.77t4.77-1.98h22.5q2.789 0 4.77 1.98t1.98 4.77z"></path>
</svg>
