<?xml version="1.0" encoding="UTF-8"?>
<!DOCTYPE svg PUBLIC "-//W3C//DTD SVG 1.1//EN" "http://www.w3.org/Graphics/SVG/1.1/DTD/svg11.dtd">
<!-- Creator: CorelDRAW X7 -->
<svg xmlns="http://www.w3.org/2000/svg" version="1.1" viewBox="0 0 12800 2600">
 <defs>
  <style type="text/css">
   <![CDATA[
    .fil1 {fill:#4B4B4D;fill-rule:nonzero}
    .fil0 {fill:#848688;fill-rule:nonzero}
    .fil2 {fill:#A5ABB4;fill-rule:nonzero}
   ]]>
  </style>
 </defs>
 <g id="Layer_x0020_1">
  <metadata id="CorelCorpID_0Corel-Layer"/>
  <polygon class="fil0" points="5806,106 5396,693 4988,106 4940,106 4940,1126 4986,1126 4986,183 5396,769 5807,183 5807,1126 5853,1126 5853,106 "/>
  <path id="1" class="fil0" d="M6362 338c-81,0 -160,15 -219,33l0 44c45,-13 125,-33 217,-33 218,0 284,107 284,298 -52,-10 -124,-23 -219,-23 -93,0 -366,17 -366,244 0,204 219,237 321,237 96,0 310,-27 310,-232l0 -242c0,-209 -88,-326 -328,-326zm283 568c0,163 -173,191 -265,191 -97,0 -275,-32 -275,-196 0,-188 229,-201 325,-201 93,0 171,13 215,21l0 185z"/>
  <polygon id="2" class="fil0" points="7123,700 7457,349 7396,349 6966,800 6966,48 6922,48 6922,1126 6966,1126 6966,865 7093,731 7440,1126 7501,1126 "/>
  <path id="3" class="fil0" d="M7909 338c-80,0 -159,15 -219,33l0 44c45,-13 125,-33 218,-33 217,0 283,107 283,298 -51,-10 -124,-23 -219,-23 -92,0 -366,17 -366,244 0,204 219,237 321,237 96,0 310,-27 310,-232l0 -242c0,-209 -87,-326 -328,-326zm283 568c0,163 -172,191 -265,191 -97,0 -274,-32 -274,-196 0,-188 228,-201 324,-201 94,0 171,13 215,21l0 185z"/>
  <path id="4" class="fil0" d="M9338 336c-137,0 -248,48 -327,96 -47,-65 -121,-96 -221,-96 -128,0 -249,50 -319,87l0 703 46 0 0 -676c70,-35 169,-68 268,-68 163,0 235,84 235,239l0 505 45 0 0 -505c0,-63 -8,-112 -30,-153 74,-45 180,-86 300,-86 164,0 234,84 234,239l0 505 46 0 0 -505c0,-198 -104,-285 -277,-285z"/>
  <path id="5" class="fil0" d="M10196 336c-167,0 -366,73 -366,403 0,328 199,399 366,399 164,0 360,-71 360,-399 0,-330 -196,-403 -360,-403zm0 761c-165,0 -320,-78 -320,-358 0,-283 155,-360 320,-360 164,0 314,77 314,360 0,280 -150,358 -314,358z"/>
  <polygon class="fil1" points="891,1127 891,68 809,68 809,1006 142,68 50,68 50,1127 132,1127 132,190 800,1127 "/>
  <path id="1" class="fil1" d="M1482 315c-316,0 -356,301 -356,428 0,318 198,395 379,395 90,0 192,-16 267,-51l0 -84c-66,36 -163,56 -261,56 -154,0 -263,-59 -286,-214 -8,-20 -13,-43 -15,-71l614 0c0,-1 2,-6 2,-42 0,-53 -3,-417 -344,-417zm-5 77c255,0 265,270 265,310l-532 0c8,-194 94,-310 267,-310z"/>
  <polygon id="2" class="fil1" points="2120,1127 2120,20 2038,20 2038,1127 "/>
  <path id="3" class="fil1" d="M2415 536c0,-104 92,-144 198,-144 85,0 156,25 207,50l0 -81c-58,-24 -130,-48 -216,-48 -194,0 -271,109 -271,223 0,281 453,145 453,383 0,94 -89,140 -211,140 -91,0 -175,-25 -247,-62l0 85c62,31 145,58 250,58 191,0 290,-92 290,-221 0,-309 -453,-189 -453,-383z"/>
  <path id="4" class="fil1" d="M3403 313c-171,0 -374,75 -374,414 0,339 203,413 374,413 171,0 373,-74 373,-413 0,-339 -202,-414 -373,-414zm0 751c-175,0 -293,-86 -293,-337 0,-252 118,-338 293,-338 176,0 293,86 293,338 0,251 -117,337 -293,337z"/>
  <path id="5" class="fil1" d="M4326 313c-155,0 -286,56 -342,86l0 728 80 0 0 -680c68,-27 157,-51 254,-51 186,0 235,94 235,210l0 521 83 0 0 -521c0,-194 -114,-293 -310,-293z"/>
  <path class="fil2" d="M12741 1558c5,-1 3,-12 -11,-11 -7,4 -11,9 -20,13 11,0 21,-1 31,-2zm-105 -26c-17,7 -28,14 -17,27 17,-13 17,-7 35,-16 15,-1 29,-2 27,3 5,-3 22,4 30,-4 -18,-13 -42,-14 -67,-5 -6,-4 -9,-2 -8,-5zm-2805 947c4,1 11,1 16,2 -3,6 -9,15 -13,22 -4,7 -10,17 -19,8 -6,-6 -26,-33 -27,-44 18,6 34,9 43,12zm-422 -231c7,0 2,-3 11,-3 3,0 14,-3 17,-6 13,-11 7,1 18,-12 5,-5 13,-8 22,-10 -1,7 -3,13 -4,19 -1,16 6,-4 2,12 -4,11 -10,36 -14,46 -2,6 -2,12 -4,16 -3,7 -4,1 -6,14 -1,5 -2,10 -3,15 -13,-3 -34,-14 -45,-20 -12,-7 -32,-19 -28,-36 5,-3 1,3 8,-6 4,-6 12,-12 19,-16 8,-5 6,-2 10,-7 -28,6 -5,-6 -3,-6zm130 -51c11,0 37,-10 49,-14 15,-4 10,-4 20,-11 12,-8 60,-28 69,-26l11 1c20,-2 28,-8 38,-10 0,14 -3,8 -5,8 11,45 -9,36 -1,57l3 -9c5,10 -2,60 -5,72 -3,15 6,52 6,70 -1,0 -4,-4 -5,6 -3,14 6,15 7,25 3,35 1,38 9,76 -21,-7 -115,-32 -121,-38l-73 -28c-11,-2 -15,0 -23,-5 -6,-3 -11,-5 -18,-8 -6,-3 -12,-5 -18,-8 -8,-4 -13,-3 -12,-14 6,1 1,8 6,3 2,-2 3,-8 3,-11 -7,-4 1,1 -6,0 0,-13 4,-13 9,-23 2,-5 1,-8 3,-12 4,-11 1,5 5,-7 5,-16 5,-33 11,-49 12,-32 2,-29 20,-39 18,-9 64,-30 18,-6zm231 -80c6,-1 18,-7 25,-10 9,-3 17,-6 26,-8 32,-10 68,-25 97,-42 12,-7 32,-22 43,-27l-5 23c-12,33 -17,127 -23,140 -2,5 -7,10 -11,20 -16,46 -30,102 -40,151 -6,29 -13,81 -29,100 -6,0 -14,0 -21,-2 -11,-2 -21,-6 -26,-6 -23,0 -27,2 -33,-21 -2,-7 -5,-15 -6,-21 -3,-14 0,-4 3,-9 3,-7 -4,-51 -5,-60l-8 -3 2 -36c1,-46 -8,-121 2,-167 2,-6 1,-10 1,-17l19 -3c-3,-1 -4,0 -9,-1l-2 -1zm642 -241c-2,-4 -6,-21 -4,-25 6,-21 56,-72 75,-82 17,-9 29,-8 41,-21 14,2 19,-4 33,1 11,3 18,11 23,19 1,6 -8,17 -13,21 -15,11 -14,23 -25,20 -12,-2 -8,-1 -18,5l-4 -14c-14,4 -25,25 -32,25 -5,1 -5,-3 -17,11 -9,9 -8,15 -18,18 -7,1 -29,16 -41,22zm-1251 -215c6,2 -1,6 14,5 1,0 5,0 5,0 13,2 19,-9 25,-5 0,0 1,1 1,1 4,3 5,7 6,8 -7,5 11,1 -1,8l7 2c6,10 5,28 12,30 -1,4 -6,-1 -1,9 -5,3 -8,9 -6,18 1,9 -18,32 -22,35 -6,3 -6,-2 -11,10 -2,7 -4,4 -13,3 -4,8 4,6 -7,8 -11,3 0,3 -9,3 -8,-16 -7,-2 -14,1 -4,-8 2,-13 -14,-13 0,-4 5,0 -1,-5 -3,-2 -5,-1 -7,-5 -1,-10 -11,-29 -4,-53 3,-5 4,-4 6,-10 2,-6 2,-7 5,-11l-5 -5 7 2 -4 -7c11,-2 8,-4 13,-12 4,-5 14,-7 18,-5l0 -12zm3368 13c-10,8 -19,2 -31,1 0,-10 -12,-20 -18,-28 -10,-14 13,-35 27,-57 36,-33 38,-28 69,-13 8,4 17,9 22,15 4,4 10,14 6,19 -3,4 -2,0 -2,0 -1,-1 0,0 0,-1l5 15c3,17 -3,8 -9,12 -5,4 -1,0 -4,5 0,0 0,0 0,1 -4,6 1,-4 -1,1 -3,6 0,4 -2,10 -11,6 -20,12 -30,15 -16,4 -30,4 -32,5zm-2780 32c-7,38 -7,133 -12,181 -1,10 -2,20 -3,30 -2,10 0,18 0,29 0,21 -5,41 0,60 4,16 -17,68 -11,113 -6,3 -26,13 -32,10l13 -7c-10,-1 -12,4 -19,7 -10,5 -29,9 -41,12 -26,7 -16,9 -29,14 -22,9 -81,32 -97,34l4 -30c2,-1 2,7 7,-9l10 -32c1,-5 6,-10 6,-12 2,-9 4,-26 6,-36 2,-12 5,-21 7,-32 11,-45 2,-19 19,-62 4,-9 -1,-62 11,-68l3 19c5,-9 -2,-34 6,-52 2,-3 5,-7 6,-9 0,-2 -3,-27 6,-31 3,4 0,-1 -1,6 7,5 2,0 5,6 3,-3 4,-3 3,-6 -1,-3 -3,-11 -5,-14 -1,0 -3,-1 -4,-2 3,-8 7,-10 9,-16 2,-5 2,-14 4,-19 4,2 1,1 4,7 0,-13 1,-8 -7,-13 0,-4 3,-20 6,-23 9,-8 8,0 9,-18 2,-18 1,-35 7,-50 4,-10 13,-86 14,-100 -12,-5 -2,-21 1,-35 4,4 0,5 2,12 1,-14 4,-65 10,-73 4,8 -4,44 -5,52 1,1 2,-1 4,-1l0 9c9,-9 11,-45 13,-62 2,-11 4,-24 5,-34 2,-21 -9,9 -4,-31 4,-34 14,-37 17,-59 3,-26 -8,-32 -2,-60l6 0c8,-14 -4,-47 6,-64l-2 22c8,-15 1,-24 3,-41 5,-5 6,-2 7,-9 2,-9 2,-33 12,-36 17,-4 18,29 19,42 -1,1 -2,-1 -4,0 -1,14 3,38 4,53 2,44 -4,140 1,165 5,26 -7,16 1,25 7,11 0,15 -1,19 -1,7 2,43 3,53 1,19 1,38 1,57 0,16 0,104 -1,109zm306 -22c3,-9 2,-42 3,-55 1,-17 3,-35 5,-52 2,-15 1,-40 4,-54 1,-6 4,-14 6,-23 7,-36 7,-93 10,-131 2,-19 5,-31 2,-48 0,0 1,-21 1,-23 2,-39 8,-91 13,-129 4,-34 11,-66 18,-97 6,-33 15,-61 25,-89 5,-13 13,-27 21,-36 11,-15 5,-31 29,-23 -1,4 -4,1 -5,5 46,13 83,219 79,221 1,15 4,32 7,45 6,24 4,12 4,31 -1,12 10,38 9,54 -1,14 6,30 9,42 4,17 9,79 12,91 5,14 4,30 7,46 5,20 2,3 2,22 0,24 10,56 10,67 1,28 8,48 8,65 0,23 11,49 16,72 3,18 -4,29 -1,44 5,23 26,117 24,130l-4 -8c-4,8 38,143 30,159l19 129c2,10 4,35 7,36 -1,-5 -3,-8 -1,-12 7,5 11,24 14,33 4,13 -1,6 0,19 0,34 2,22 -5,25 7,21 0,14 5,34 2,11 8,27 4,36 0,2 4,27 4,37 0,11 -2,12 -3,20 0,6 1,16 1,22 0,11 -3,31 -5,42 -4,32 -19,37 -37,47 0,0 -32,11 -35,12l3 2c-52,9 -71,8 -121,9 -15,0 -36,5 -50,5 -19,-1 -32,-6 -52,-7 -10,0 -69,-5 -70,-5 -4,4 -11,2 -16,0 -12,-4 -105,-7 -117,-14 4,-2 10,-1 14,-1 4,1 9,1 12,1 -9,-8 -61,-5 -74,-12 6,-17 10,-17 14,-41 4,-22 10,-61 18,-89 5,-16 13,-22 16,-36 3,-12 -1,-33 7,-60 6,-19 31,-100 27,-114 -2,-8 3,-17 6,-26l2 -4c0,0 0,-1 0,-1 0,0 0,0 1,0 2,-4 3,-15 4,-20 3,-15 7,-49 10,-60 6,-3 16,-9 21,-11 13,-6 12,1 27,-12 -4,-1 -10,4 -3,-8 -7,5 -21,21 -30,17 0,-1 -1,-1 3,-6l-16 8 3 -30 -4 8c-1,-13 7,-22 9,-35 4,-29 16,-81 22,-112 5,-25 11,-50 13,-77 2,-28 3,-56 6,-84l3 9zm103 -789c-21,12 -31,36 -41,56 -11,24 -3,12 -7,29 -2,11 -9,15 -10,28 -3,18 -8,3 -11,27 -1,10 -4,65 -8,69 -1,-12 2,-6 -2,-16 0,19 -1,35 -3,53 0,5 -1,22 -2,25 -2,4 -3,1 -6,8 -9,21 -7,75 -17,104 -3,11 -6,81 -8,100 -2,22 -11,79 -9,98 8,-9 3,7 8,21 2,8 -2,17 -2,24 -1,-4 -2,-13 -6,-15 -4,5 4,23 2,32 -2,9 -11,50 -9,19 0,0 -10,32 -10,32 -3,13 1,22 0,35 15,-48 2,16 -1,28 -8,32 -10,64 -13,97 -3,27 -2,36 -8,61 -7,33 -8,140 -25,175 -5,10 2,22 -8,33 -5,4 -38,22 -43,24 -18,7 -21,1 -33,19 -9,13 -29,7 -42,7 -13,16 -11,5 -21,12 -8,5 6,1 -4,6 -7,4 -53,20 -57,19 -1,-5 -2,-15 0,-19 0,0 0,-1 1,-1 4,-6 0,3 2,-3 4,-10 3,-97 7,-114l2 7c0,-2 -4,-66 -2,-91 2,-42 9,-85 7,-127 -1,-15 2,-11 3,-23 2,-26 -1,-54 0,-76 1,-9 1,-16 1,-25 -1,-17 -3,-34 -3,-51l3 2c-1,-8 -4,-17 -5,-25 -5,-29 1,-43 -1,-52 0,-3 -5,-36 2,-23 2,-19 -4,-31 -4,-49 0,-9 4,-46 3,-47 -1,-8 -3,-13 -4,-22 -1,-10 2,-10 2,-11 3,-7 1,-17 1,-24 -1,-15 9,-22 9,-29 1,-8 -9,-53 -10,-69 -3,-28 5,-56 -21,-77 -7,-6 -11,-2 -15,-9 -21,-5 -53,14 -52,38 5,-11 12,-23 25,-24 -8,9 -11,11 -18,21 -9,13 -23,54 -25,71 -3,30 -6,59 -7,89 0,14 4,36 -2,45 -7,11 -6,28 -7,41 -2,25 5,23 -8,46 -8,16 -13,58 -15,75 -9,92 -7,92 -30,182 -4,17 -15,74 -20,86 -7,-3 -3,1 -1,-7 -4,2 -7,-1 -8,-5 -2,6 -8,4 -13,0 -24,-20 -32,2 -49,-10l-5 3c-6,1 -5,3 -7,7 -3,5 -12,3 -18,7 -8,4 -5,6 -15,7 -4,0 -5,-5 -11,0 -6,4 -22,8 -29,7 -7,7 -8,-3 -25,-4 -7,3 -5,7 -11,5 2,-7 3,-2 6,-9 -8,-1 -11,-3 -20,-3 0,-2 -1,-6 -1,-8 0,-6 6,-9 -1,-15 0,0 -10,4 -8,-5 -8,-4 -12,-5 -16,-5 -16,-1 5,-8 -25,-6 -4,0 -8,1 -13,2 -3,4 -6,7 -9,9 -3,2 -7,3 -10,4 -8,2 -6,0 -11,1 -13,2 -10,7 -15,10l-2 -8c-12,1 -12,0 -22,10 -6,6 -20,11 -13,-2 -11,0 -10,2 -17,12 -7,-3 -3,-3 -7,-4 -3,4 -5,7 -11,6l-2 -1c0,-1 -1,0 -1,-1 4,-9 0,1 3,-3 2,-1 2,-1 3,-4 4,3 9,-3 13,-6 6,-4 12,-7 16,-11 5,-7 10,-16 14,-16 1,-5 -3,-2 0,-8 7,1 7,-1 10,-8 -2,-13 9,-3 2,-17 -1,-2 -1,-3 1,-2 5,1 5,-8 4,-11 -2,-5 -12,-2 -4,-9 22,-21 -16,-9 6,-20 -12,-6 -5,-6 -2,-13l-11 -16 4 -4c-4,-4 -8,-13 -12,-20 -2,-3 -4,-7 -7,-8 -7,-4 -5,4 -7,-5 -1,7 0,3 -4,4 -2,-6 2,-3 -6,-4 -3,0 -6,0 -9,0 -7,-1 -8,-4 -13,-5l-5 5c-12,-4 -14,0 -26,0 -13,-1 -17,7 -18,7 -6,-2 -16,-5 -19,2 -3,5 1,4 -1,8 -1,2 -5,2 -8,4 -3,1 -4,5 -7,5 -1,7 -11,15 -16,22 -5,7 -5,12 -6,23 6,2 6,-1 8,5l-13 4 0 24 6 4c0,6 -3,8 -3,13 -1,10 1,4 5,9 -4,6 -5,5 0,13 4,7 3,7 9,6 -3,9 -1,2 1,12 4,12 1,19 15,23 10,2 6,1 4,6 5,1 20,10 22,12 9,10 19,10 32,6 13,-4 26,5 55,3 3,-11 1,-15 8,-6 7,-4 10,-3 19,-6 21,-5 4,-3 15,-1 8,-11 0,0 11,-4 18,-6 18,-10 39,-13 8,-3 12,-8 23,-3 0,0 -2,0 -2,0 -2,1 -6,1 -7,3 5,0 9,0 13,0 0,1 -1,3 -2,4 0,2 3,4 6,7 3,4 6,7 8,10 2,-4 4,-5 10,-4l-2 13c13,9 19,11 35,11 2,5 1,7 7,9 3,-2 2,-7 9,-6 8,0 7,-1 9,-5 3,1 10,-1 11,-1 0,0 7,-2 8,-2 4,-2 13,-11 18,-12l1 7c7,-9 13,-11 15,-19l12 3c8,-11 4,-6 15,-9l6 -2c7,-1 2,1 12,-3 9,-4 7,1 9,3 6,3 4,-5 5,-8l3 3c1,2 0,1 1,2 12,-9 2,1 16,-1 -1,1 -7,7 0,9 7,2 0,-3 12,-2 1,1 0,0 1,3 1,7 1,2 8,6 -5,35 -17,83 -27,121 -9,34 -29,79 -30,113 -1,22 -7,7 -8,27 -1,11 -2,21 -4,32 -3,17 -12,37 -18,53 -14,34 -3,22 -23,31 -3,1 -7,4 -11,6l-46 24c0,-5 4,-7 7,-10 -17,3 -22,18 -36,22 1,0 1,-3 0,-5 -12,13 -34,25 -27,51 3,12 28,36 39,39l-3 -12c4,-2 16,4 18,7 2,4 -5,2 2,8l-8 -1c7,4 4,3 13,5 11,1 9,9 17,14 11,7 11,7 5,20 -5,10 -10,-3 -19,32 -3,10 -10,48 -7,57 4,-8 4,-14 10,-21 0,7 -3,16 -5,20 2,1 8,6 12,7 23,-14 17,-62 28,-70l-4 18c4,-6 5,-17 6,-26 1,-8 1,-5 5,-11 3,-5 3,-8 5,-11 9,4 5,6 11,10 9,7 28,6 36,10 6,3 3,5 14,8 12,3 23,7 34,11 53,17 117,31 172,48 8,15 10,31 19,46 11,19 14,23 28,38 7,8 10,8 19,13 13,7 10,6 26,4 15,-3 13,-1 22,-11 4,-4 12,-11 16,-17 -3,-1 0,0 -3,0 -7,0 3,2 -3,0 1,-12 4,-11 8,-20 4,-8 3,-11 9,-18 6,-2 3,0 4,0 0,0 0,0 1,0l36 5c13,0 21,9 41,8l27 0c-3,7 -4,0 -3,7 51,10 77,3 120,7 13,1 24,5 36,6l-6 -3c-54,-14 49,7 50,7 28,3 46,-6 73,-5 8,-14 47,-10 51,-3 -9,7 -23,-1 -32,5 1,1 32,1 37,1 22,1 17,-2 32,-3 29,-3 40,-7 64,-15 0,-1 1,-2 -2,-3 9,-4 16,-9 23,-17 13,-11 19,-6 25,-22 6,-11 4,-13 9,-19 5,-9 9,-35 9,-37 3,-24 8,-55 2,-59l4 -33 -7 -1c-4,-12 -6,-40 -4,-54l2 16 5 1c3,-52 -2,-27 -10,-60 -3,-14 1,-9 1,-20 -3,-4 -1,1 -4,-5 -7,-11 -5,-26 -9,-38 -9,-34 -10,-39 -14,-84 -1,-9 -4,-20 -4,-27 4,-10 7,-1 3,-18 -4,-21 -4,-42 -8,-62l-1 31c-7,-16 -7,-8 -11,-30 -2,-22 -6,-7 -5,-27l10 -2 -4 -31c0,0 -2,-5 23,-19 11,-6 14,-11 17,-11 -1,9 -13,14 -21,18 -2,8 -13,3 -14,8 17,6 48,-22 57,-32 14,-14 11,-10 26,-3 5,3 10,2 13,3 -11,5 -17,-1 -23,-7 1,6 6,10 13,11 10,2 12,-4 18,-6 10,4 -2,6 21,0 20,-6 30,-34 45,-40l3 2c16,-13 39,-44 58,-61 9,-8 13,-20 24,-32 3,-4 11,-20 16,-25 -1,5 -12,46 -16,55 -4,12 -3,21 -6,27 -2,47 7,45 35,18 15,-14 4,-26 14,-33 3,-3 4,-12 7,-16 7,13 -4,26 1,36 7,31 18,36 39,38 13,1 23,0 36,-1 2,-3 -8,-8 15,-11 5,0 0,3 10,5 4,0 8,0 12,0 25,-4 47,-19 68,-31 4,-2 31,-24 35,-28 19,-10 32,-15 35,-30 5,-2 16,-7 20,-8 11,0 14,2 26,-2 17,-7 21,-13 32,-22l1 2c1,3 -1,3 2,4l16 -23c8,0 14,6 26,8 19,3 49,1 70,1 8,0 13,-2 15,-4 36,-2 71,-5 108,-6 18,0 36,-1 55,-1 10,-1 15,0 22,-6 7,-7 8,-8 20,-7 2,2 -1,3 0,5 39,-6 80,-10 119,-16 0,0 0,0 0,0 0,3 69,-3 78,-7 6,-2 16,-3 24,-4 16,-3 24,5 20,-3 8,-1 23,-5 30,-3 15,3 20,-3 30,-4 7,0 5,4 14,3 7,0 9,-3 13,-5 3,-1 22,-1 30,-4 16,-4 19,2 29,0l57 -12c2,0 38,-6 70,-8 4,6 -2,-1 -1,4l79 -10c-1,-3 -4,1 -5,-4 5,-3 13,-9 18,-8 3,1 4,2 10,3 7,1 7,0 7,6 16,-7 1,1 13,-1 4,-1 8,-4 14,-5 7,-2 5,1 14,-2 4,-1 10,-3 14,-2 8,1 94,-10 109,-14 23,-2 7,-2 39,-3 6,0 9,-8 20,-8 3,4 1,4 4,7 2,-2 53,-11 54,-10 6,0 16,-1 23,-2 11,-2 21,-3 32,-4 -3,7 -4,2 -11,7 6,3 34,-5 42,-7 7,-2 28,-4 33,-7 9,-4 2,-4 22,-1 11,1 4,1 9,3 18,7 51,-10 66,1 -4,6 -10,14 -16,18 -16,10 0,12 -9,20l-16 3c5,12 -3,5 -2,13 1,12 -6,12 -5,28 1,7 2,7 4,10 2,6 -2,4 3,10 5,6 11,6 15,11 -2,1 -4,1 -4,1 -4,2 -1,-3 -3,2 6,3 12,4 20,7 3,2 6,3 9,4 7,3 5,3 9,4l3 -6c19,0 14,1 30,-5 13,-5 39,-7 47,-21 4,-8 11,-15 13,-22 5,2 2,2 4,7 4,-7 4,-3 5,-13 2,-13 3,-6 6,-8 3,-16 -6,-40 -17,-49l-3 10 -9 -3 3 -9c1,-1 1,4 2,-1 0,0 0,0 1,0 -16,-1 -3,-7 -14,-16l5 -3 -6 -2c2,-2 4,-3 4,-5 -6,-2 -11,-1 -16,1 -5,-2 -7,-5 -13,-6 -8,-2 -32,-6 -40,-1 -6,4 3,1 -4,4 -26,2 -51,-5 -74,-4 -13,1 -26,6 -34,7 -12,0 -3,-5 -16,-2 -7,2 -9,2 -17,1 0,0 10,-5 -18,-1 -6,1 -23,-1 -30,-2 -30,-3 -40,14 -71,8 4,6 5,-1 11,5 -9,3 -23,-5 -33,-5 -13,0 -16,8 -29,9 -9,5 -9,4 -11,-1 -6,2 -14,1 -21,0 -6,-1 -8,2 -16,3 -50,5 -30,5 -75,4 -51,-1 -26,9 -42,11 -32,4 -3,0 -13,-7 -10,-8 -14,3 -23,5 -8,3 -4,0 -10,-2 -3,6 -4,6 -12,7 -18,2 -13,6 -54,7 -13,1 -1,-4 -12,-5 -7,0 -24,-1 -30,3 -6,5 -13,5 -13,3 -17,0 -29,5 -45,8 -11,2 -6,1 -8,4 -4,0 -11,2 -15,2 -8,0 -4,-3 -12,-4 -9,-1 -19,6 -23,6 -10,1 -10,-6 -26,2 -3,1 -37,14 -19,0 -5,0 -31,6 -35,9 -5,2 -15,6 -21,6 -13,-2 -26,1 -40,3 -11,1 -19,-2 -27,-1 -7,0 -17,3 -24,4 -7,1 -22,2 -24,3 -9,5 -7,9 -21,7l1 -3c3,-4 2,3 3,-3 -8,-6 -20,2 -31,1 -14,-1 -1,-5 -30,4 -6,1 -11,1 -17,2 -14,4 -21,10 -44,12 2,-4 4,-2 3,-6 -29,11 -32,-6 -61,5 -10,4 -16,6 -23,7 -45,8 -44,6 -101,5 -6,0 -12,1 -18,1 -17,0 -18,-5 -35,-3 -26,3 -50,-3 -74,-2l0 4c-15,1 -17,17 -14,-4 -2,0 -4,2 -7,0l2 -11c-12,-1 -28,-4 -37,2 -12,9 -10,14 -8,25 -6,4 -22,13 -28,15 -9,-11 -4,-17 -24,-25l0 5c-14,-6 -13,-11 -29,-6 -34,10 -27,34 -5,52 -28,35 -83,73 -128,77 -12,2 -38,4 -50,2 -8,-11 0,-1 -9,-8 -21,-22 -12,-23 -7,-40 0,-1 0,-5 0,-7 0,0 -4,2 -6,-1 -1,-2 5,-7 5,-8 0,0 3,-3 3,-3 1,-5 0,-1 0,-7 -1,-23 -14,-33 -35,-6 4,-14 3,-21 12,-34 17,-63 -14,-61 -40,-29 -3,5 -8,12 -13,19 -12,14 -36,56 -38,57 -5,7 -7,7 -12,13 -5,7 -7,6 -14,11 0,0 -15,17 -16,19 -3,2 -3,4 -5,7 -6,-7 3,-19 -9,-38 -6,-9 -2,-10 -11,-14 -21,-10 -16,-3 -34,-5 -51,-7 -43,8 -88,22 -1,8 -5,16 -14,16l-5 -3c-4,8 -18,15 -25,27 -11,19 -7,11 -21,24 -12,-22 -1,-32 -6,-51 -2,-8 -3,-17 -5,-25 -4,-13 -6,-8 -5,-26 1,-37 -23,-75 -20,-99 1,4 4,10 8,14 4,-23 -17,-65 -20,-75 -5,-19 -3,-27 -4,-54 -2,-37 -11,-74 -14,-110 -3,-40 -8,-70 -15,-110 -3,-23 -18,-63 -13,-77l4 17c8,-17 -5,-50 -8,-70 0,-7 1,-11 0,-18 -4,-22 -13,-44 -18,-65 -6,-29 -16,-51 -26,-77 -4,-11 -9,-19 -13,-29l5 0c0,-11 -12,-4 -23,-27 -5,-12 -14,-18 -21,-28 12,1 18,14 26,18 -14,-19 -24,-25 -47,-25 -12,-2 -14,-2 -25,4zm-1680 513c-8,-1 -7,5 -21,-3 -2,-1 -6,-5 -9,-7 1,-6 -4,5 1,-2 2,-3 2,3 2,-5 1,-7 -6,-12 -10,-17 -8,5 -15,5 -20,12l12 11c-4,13 0,13 5,18 17,16 1,11 3,19 0,4 1,9 1,9 1,7 4,8 4,19 3,14 11,-3 3,21 -1,5 -5,-2 -2,7 3,7 9,22 10,26 4,11 0,24 2,36 1,5 6,16 5,18 0,7 -4,24 -4,27 1,6 -1,4 -1,10 14,4 -2,6 -2,12 0,13 10,16 8,31l4 -2c-2,13 -11,13 -3,25 7,11 8,8 11,14 -9,9 -4,-5 -9,7 -2,4 0,8 0,14 1,23 11,10 3,35l-4 -1c0,10 -7,19 0,23 2,1 3,0 7,2 -1,19 1,6 -8,8 -9,3 3,11 3,14 2,6 1,1 -3,5 7,3 5,3 7,10 4,19 1,5 2,29l-5 3c0,4 1,31 2,33 1,6 3,14 4,17 8,23 -10,3 -1,30 -10,13 2,13 3,27 -5,-1 -6,0 -7,-4 -2,6 2,17 4,22 6,14 0,7 -1,21 -1,23 -2,13 -4,24 -2,8 1,15 -2,26 3,4 6,5 6,10 0,7 -3,2 -3,2 -4,0 3,-2 -5,-1 -4,1 -2,6 -2,12 -1,11 -2,2 -4,9 0,0 3,23 3,24 7,26 2,17 -3,21 5,2 3,0 7,3 -1,6 -5,7 -9,10 -4,-5 3,-5 -3,-4l-2 18c1,7 4,13 6,19 -5,10 -2,5 -9,10l2 19c-8,4 -2,3 -2,15 -10,4 -8,4 -12,15 -3,9 -7,8 -9,16 -2,11 -9,26 -15,34 1,3 7,9 4,14 -5,-1 -1,-5 -7,-5l3 8c-8,1 -6,2 -9,-3 -3,1 -2,7 -3,2 0,0 -1,1 -1,1 -1,-2 -3,-12 -20,-13 2,-7 1,-6 -6,-12 -12,-11 -13,-11 -19,-25 -2,-5 -2,-5 -3,-7 0,-2 0,-1 -1,-3 -6,-7 -1,-1 -3,-9 -1,-7 -7,-15 -9,-22 3,-5 4,-2 7,-11 4,-16 -2,-27 -7,-42 -7,-19 -2,-10 -2,-28 0,-11 -1,-24 -1,-35 -3,-2 -10,-8 -7,-13 2,-3 4,-1 5,-7 1,-3 0,-7 0,-11l-9 -2c6,-7 2,-22 0,-31 -4,-15 4,-20 -4,-29 4,-7 5,1 4,-15 0,-12 1,-9 2,-15l-11 -11c3,-8 5,2 7,-11 1,-6 3,-11 3,-16 1,-5 -1,-12 1,-16 4,-11 3,-11 1,-23 -1,-3 -1,-5 -1,-9 -1,-4 -2,-11 -2,-13 -3,-8 -5,-2 -3,-12l0 -4c0,0 -1,-2 0,-3 0,-8 -1,4 2,-4 -2,-8 -10,-8 0,-21l-3 -7c4,-5 2,2 4,-6 1,-8 -6,-14 1,-20l0 14 9 -2c-3,-11 -5,-13 -4,-25 2,-24 -3,-28 -4,-8l-1 -2c0,0 0,-1 0,-1 -3,-6 -2,-5 -7,-10 11,-18 15,-7 10,-32 -2,-13 -4,-27 -8,-38 3,-6 3,0 6,-8 4,-9 -1,-20 -5,-28 -8,-18 -3,-25 -5,-43 -1,-14 -5,-28 -8,-40 -4,-20 2,-33 -9,-39 5,-12 5,-25 10,-38 4,-14 6,-7 7,-22 0,-1 0,-1 0,-1 1,-12 -7,-3 7,-16 6,-7 0,-9 0,-9 0,-1 -3,2 0,-6 7,-20 20,-14 11,-27 -6,-4 -2,0 -6,-1 -6,-2 -12,-9 -19,-6 -6,2 -6,9 -8,14 -2,9 -1,2 4,8l-7 4c0,5 2,6 -2,11 -3,5 -3,1 -1,8 -15,8 -3,20 -11,27 -3,-1 -3,-3 -4,-6 -2,-13 -12,-8 -3,-19 6,-6 2,-10 -2,-14 -10,-9 -4,-1 -18,-1 -16,1 -12,16 -10,23 6,14 11,10 6,13 -5,5 4,13 8,19 3,4 6,13 2,17l7 6 -2 10c0,17 2,5 4,18 1,5 1,6 0,10 -5,-4 -2,-11 -11,-11 -1,3 -2,8 -1,11 0,11 0,2 4,7 6,7 -4,6 -10,8 1,11 6,3 7,13l-7 -1c1,6 4,3 3,8 -1,5 -4,3 -7,6l0 18c-5,8 1,-2 -4,3 -3,3 -4,11 -5,14 -2,4 -8,12 -8,15 0,2 2,4 2,8l-2 9c0,9 -1,14 -7,17l5 8c-5,7 -6,17 -10,25 -3,6 -4,4 -5,10 -1,7 0,8 0,13 -8,5 -15,8 -7,17 -4,4 -1,4 -7,8 4,2 8,-1 3,6 -5,8 -3,3 -8,13 -4,7 -1,9 -6,16l-3 4c-3,5 -3,14 -4,20 7,3 7,-1 7,7 -4,2 -5,-2 -10,2 -3,2 -4,6 -5,10 -4,21 -2,13 2,25 -2,5 -9,10 -8,16 2,7 1,-2 3,6 -15,6 -1,20 -11,34 -13,19 -10,5 -8,31 -2,0 -3,-1 -5,1 1,6 -2,12 -3,16 -2,8 1,2 -3,7 -7,8 -4,9 -7,20 -4,11 -1,4 -1,15 -1,17 -19,38 -21,53 3,4 7,4 7,11l-7 -1c0,16 -5,23 -6,38l-3 1c0,1 0,0 -2,2 0,5 -1,5 3,8 -9,5 -4,-1 -6,11 -2,8 -1,17 -3,25 -2,8 -1,3 -3,6 -6,11 3,6 -7,12 0,7 2,2 1,6 0,12 -4,15 -5,18 -2,6 3,39 -3,26 0,-3 1,-2 -1,-6 -4,5 4,12 0,22 -4,6 -3,-5 -6,11 -1,5 -1,11 -3,15 6,3 3,-3 10,8 -5,4 -9,4 -13,6 0,7 2,8 0,16 -7,27 11,8 -11,26 5,10 7,3 2,14l8 4c-3,9 -5,2 -4,13 -4,2 -5,1 -7,3 0,10 2,9 -4,13l4 3c-7,3 -2,11 -7,19 -6,-4 0,-3 -5,-5l0 11c1,12 5,16 -5,25 -5,3 1,15 -3,20 -1,2 -7,22 -8,25 0,3 1,7 1,10 -1,16 -12,5 1,17 -1,4 -4,2 -6,6 3,5 4,1 3,5 0,11 -3,6 -5,7 -3,5 -4,4 -7,9 -3,5 3,3 0,13 -1,3 -1,4 -8,6 -3,11 1,9 0,15 -1,3 -4,5 -5,10 -1,4 1,9 3,13 9,21 -1,2 -3,12 0,4 0,3 -4,6 1,1 4,3 6,2 1,0 8,-6 9,-7 6,-6 4,-3 5,-16 -12,-9 -2,3 0,-13 1,-6 3,-9 4,-14 4,-14 2,4 7,-9 1,-5 9,-1 1,-8 2,-10 1,-9 6,-16 7,-11 -6,-20 7,-14 -3,-14 1,2 2,-10 1,-11 -6,-9 3,-17 0,-1 0,-2 -1,-6l6 -2c-6,-12 -1,1 0,-10 -1,-10 -8,-5 1,-21 3,-6 5,-13 3,-21l3 -3c4,-6 6,-7 9,-13 0,0 1,-1 1,-1 0,0 1,-1 2,-3 -2,-3 -2,4 -3,-5l8 0c1,-7 0,-15 -2,-21 -1,0 -1,-1 -1,-1l11 -7c0,-4 -3,-9 -5,-11 -4,-4 -7,0 -6,-10l12 2c5,-7 2,-18 -1,-25 7,-4 10,-3 15,-9 5,-6 1,-8 -6,-10l2 -8c3,2 5,6 9,4 5,-3 -1,-7 -3,-9l4 -3c-7,-3 -3,-1 -4,-6 -2,-5 -8,-9 4,-17 5,-4 7,-3 10,-10 -9,-8 -6,2 -13,1l0 -10 11 2c3,-6 1,-12 0,-17 -4,-10 0,-6 6,-10 -2,-14 -4,-3 2,-14 -3,-6 -4,-3 -6,-10 3,-2 4,-1 8,1 0,-10 -3,-10 -4,-16 -1,-5 2,-5 4,-14 3,-10 5,-7 7,-11 1,-3 2,-12 3,-16 -3,-2 -4,-3 -5,-8 8,2 2,2 10,3 3,-15 -1,-5 5,-13 -1,-8 -2,-17 -3,-25 -1,-5 -2,-8 2,-10 10,-4 2,1 8,3 1,-6 3,-8 1,-14 -1,-4 -4,-10 -4,-12 19,-13 6,-9 7,-25 5,-4 6,0 10,-8 3,-7 5,-6 6,-10 2,-3 2,-8 4,-13 2,-4 4,-8 5,-11 -1,-4 -4,-7 -8,-8 3,-3 4,-1 8,0 -2,-3 -4,-3 -4,-8 10,-4 5,3 14,-3 -4,-13 -2,5 -5,-6 4,-5 7,-4 9,-11 2,-5 2,-11 -2,-14 11,-11 1,-15 6,-27l5 -7c0,0 0,0 0,-1 9,-20 -7,5 5,-8l-4 -19c6,-4 13,-5 15,-14 2,-9 -2,-17 -1,-26 7,-7 6,-8 10,-17 7,-20 1,-4 0,-20 4,-2 7,1 9,-4 4,-9 -1,-3 -5,-9 5,-5 6,-7 7,-14 0,-11 0,-7 4,-14l3 -7c3,-7 7,-9 8,-20l-8 -8c2,-2 7,-1 11,-7 1,-3 3,-9 3,-17 4,0 5,-4 5,-8 0,-6 -1,-12 -1,-16 -1,-8 -4,-4 -2,-12 9,-34 9,-26 17,-41 1,-1 3,-3 4,-5 11,7 7,16 11,30 5,15 8,10 9,23l-1 6c-2,-3 -1,-2 -3,-5 -2,-5 1,-6 -5,-8 -10,-3 -3,18 -2,24 4,1 11,-1 8,10 -3,6 -6,3 -9,11 4,10 10,4 10,15l-7 1 5 12c-4,3 1,1 -2,0 -1,-1 -1,-2 -3,-1l4 7c-6,4 -5,3 -3,11 1,7 6,21 3,26 -3,5 -4,-3 -4,12 0,10 -1,20 -3,29 -5,18 5,15 -2,20l6 3c-4,5 -4,0 -3,8 2,10 5,21 0,31 -5,14 6,6 2,19 -3,14 -1,31 -5,45 -4,11 -2,8 -2,20 -1,15 6,6 1,18 -12,24 0,17 3,30 3,9 -1,3 -4,11 7,3 -2,-5 5,1 1,11 -4,14 -3,19 0,3 2,7 3,9 1,8 0,1 -4,8 4,7 3,-6 4,15l-1 10c-1,3 -1,2 0,7 1,10 4,21 5,33 1,-7 15,-4 3,6 -8,7 0,37 1,45 2,9 2,5 6,11 4,4 3,8 3,13 -2,12 -5,17 5,26 -6,10 -5,14 2,24 11,15 9,16 16,12 0,12 4,12 9,22 2,6 5,14 9,21 12,20 30,13 38,23 4,0 -4,-1 -2,4 10,3 26,-1 34,-5 14,-8 14,-16 21,-20 10,-7 11,-12 16,-25 3,-10 8,-19 8,-28 -1,-14 12,-48 17,-62 2,-7 9,-25 9,-31 1,-7 -17,-25 -1,-19l8 -67c0,0 0,0 0,0 3,-4 1,-12 -1,-15 3,-7 4,2 4,-11 0,-9 1,-5 1,-12 0,-6 -3,-12 -1,-24 2,-9 1,0 0,-9 -2,-12 3,-11 3,-22 -1,-10 -3,-3 2,-11 3,-7 1,-5 -1,-10 -1,-4 1,-2 1,-9 0,-6 -2,-9 -1,-14 1,-9 2,-1 3,-9 7,-43 -9,-57 -5,-71 3,-10 3,7 3,-8 0,-11 -3,-23 -1,-34 -5,-2 -2,6 -12,-7 2,-13 7,-5 9,-16 0,-2 -2,-11 -3,-15 -1,-4 -2,-4 -2,-8 1,-6 4,-1 -1,-15 -7,-20 4,-42 -4,-52 -10,2 -4,-11 -5,-17 0,-3 -1,-3 -2,-5 -5,-11 8,3 1,-21 -1,-6 -1,-7 2,-12 -2,-1 -2,-1 -3,-1 -3,-1 0,1 -3,-1 5,-8 -2,-20 -1,-32 8,3 -1,3 7,5 -2,-8 -5,-15 -7,-22 -2,-4 -3,-7 -3,-11 -3,-12 -1,-3 -6,-10l6 -16c2,-11 -9,-20 -7,-32 3,-18 -4,-18 -4,-24 1,-12 3,-9 -2,-25 -6,-17 0,-21 -3,-34l-2 0c-13,5 -4,-1 -3,-7 1,-1 0,-4 2,-6 31,20 35,0 53,3 -1,4 -7,5 2,7 13,2 4,-2 12,4 2,-1 5,0 5,2 5,0 16,-3 17,-8 -6,-4 -12,1 -18,2l-2 -6c-11,7 0,1 -13,-4 -7,-3 -3,-5 -9,-6 -10,1 -9,0 -16,-1 -23,12 -2,-2 -13,-4zm245 251c6,2 3,9 16,3 6,9 -9,3 18,15 1,13 -12,31 -19,40 -13,17 -28,11 -35,23 -6,-3 -4,-3 -9,6 -7,0 -9,-2 -15,-4 -16,-4 -6,9 -23,4 -12,-4 -5,1 -15,0 -2,-5 -1,-6 -3,-10 -2,-3 -3,-1 -5,-7 0,-4 2,-4 3,-6 4,-10 1,-4 5,-6 1,-8 -4,-7 2,-12 5,-4 6,-4 12,-9 7,-5 1,-12 12,-12 -4,11 -9,2 -4,12 5,3 8,-9 9,-12 1,-2 8,-4 13,-5 6,-1 8,-2 2,-6 -2,-3 -3,-7 -2,-10 9,3 11,10 20,7 8,-3 12,-6 18,-11zm144 -174l11 0c4,-11 -4,-22 -3,-32 6,-6 5,3 7,-9 2,-7 0,-1 -4,-7 9,-4 4,-5 6,-11 1,7 4,10 4,18 -1,10 -1,5 1,16 1,2 1,7 2,9 1,2 11,10 4,11 -6,1 3,-3 -7,-2 -2,10 3,4 -1,16 -1,3 1,9 2,14 2,9 5,20 7,31 -10,8 -7,7 -12,1 -1,15 -2,17 4,32 -6,11 -2,4 -9,9l1 15c-15,6 -1,3 -2,13 -6,3 -5,-2 -9,5 -2,2 0,17 -4,19l-3 -19c1,-17 -9,-11 3,-23 12,-12 -5,-9 2,-16 -2,-6 0,-8 -3,-9l-6 -15c4,-8 5,-6 3,-23 0,-6 6,-11 6,-18 1,-10 0,-22 0,-25zm54 64c0,-18 2,-35 1,-55 0,-7 6,-1 2,-12 -2,-7 -3,0 -2,-6 2,-4 3,4 2,-5 0,-3 -1,-4 -2,-7 0,-6 1,-2 1,-7 -2,-9 -8,-10 -6,-29 -1,1 2,3 -4,1 -1,-3 -1,-5 -2,-8 -3,-7 -1,-14 -7,-19 -8,-6 -12,-4 -18,-17l-19 -2c-3,4 -6,7 -7,12 -3,12 -9,11 -10,27 -1,12 -4,4 -5,14 -1,11 4,28 0,38l0 1c-2,4 0,8 0,13 -1,13 -3,6 -5,6l-3 37c3,5 0,0 8,8 -3,5 -8,1 -9,6l1 10c1,3 2,11 1,14 0,7 -3,3 0,15 1,4 2,10 1,16 -3,2 -7,3 -9,7 2,7 5,2 5,12 0,12 1,-3 -2,6 -1,4 -1,2 0,6 3,-6 2,-3 8,-1 0,11 -5,5 -2,21l-8 1c1,4 2,8 2,12 0,9 1,5 -4,9 5,4 3,-1 4,4 -7,5 0,2 -11,6 3,9 4,4 5,8 -9,7 -21,12 -20,31 -3,2 -4,0 -6,3 -1,1 -2,4 -3,6 -15,32 -16,20 -23,34 -6,2 -6,-3 -10,9 -3,7 -2,16 -9,16 0,0 -1,0 -1,0l-11 3c-13,6 -15,17 -23,29 -3,4 -18,9 -23,12 -3,1 -11,3 -13,4 -3,2 -3,5 -8,9 0,0 0,0 0,0l-2 -3c-2,-3 -5,-3 -10,-3 -1,3 -1,6 -3,8 -6,-8 -12,-5 -18,-10 -6,-4 -1,-3 -4,-7 -1,-3 -4,-4 -6,-5 6,-3 3,-6 1,-11 -2,-4 -1,-10 -1,-11l-13 -5c2,-9 4,4 7,-13 0,-3 1,-15 3,-17 8,-4 2,1 7,1 3,1 2,0 6,-3 2,6 -3,2 4,6l1 -7c6,2 0,0 6,3 6,4 10,0 17,0 9,1 7,4 12,2 8,-2 0,-2 10,-2 18,1 11,0 23,-6 11,-5 8,-6 22,-8 2,-6 0,-11 5,-16 7,4 2,3 4,9 1,0 5,-10 5,-10 3,-4 -2,2 2,-2l6 -6c6,-11 5,-2 10,-6 5,-5 -2,-1 1,-12l9 1c0,-8 -1,-11 1,-19 1,-7 3,-30 -8,-29 -15,0 -5,-3 -7,-7 5,-1 7,1 1,-3 -2,-2 -2,-2 -5,-3 -4,-2 -7,-6 -4,-6 8,1 5,6 14,3l2 0c-2,-11 -18,-16 -29,-17 -4,4 -4,10 -13,4 -4,-3 -4,-7 -11,-9 -5,3 -5,6 -8,8 0,0 -18,3 -16,-2 -8,-1 -8,-1 -10,5 -5,-3 -4,-3 -8,1l-22 16c-7,6 0,-1 -8,1l-31 28c-8,9 0,11 -5,12 -1,1 -4,11 -5,14 0,4 -1,8 -2,12 -7,21 -4,9 -7,28 -1,5 -4,5 -6,33 -1,14 -3,20 1,34 3,8 3,1 6,7 1,8 -8,22 7,28 11,4 -3,6 12,8 7,9 1,-3 14,11 11,12 -1,10 23,10 3,5 2,7 8,4 5,-3 -4,-2 6,-3 1,0 5,1 7,1 7,-1 8,-3 13,-2 2,0 -3,2 5,0 9,-1 17,-8 24,-13 9,-5 4,-2 3,-6 -2,-6 -1,-3 4,-9 7,2 3,4 8,4 0,0 1,0 1,0 6,0 7,-1 11,-4 33,-28 13,-28 31,-40 14,-10 14,-9 11,-18 12,-2 9,-1 15,-10 8,-15 8,-10 4,-16 12,-4 4,-3 12,-8 3,5 2,11 0,16 -4,10 0,16 -3,24 -4,10 0,16 0,24 0,10 -5,10 -6,21 6,3 14,-3 2,7 0,4 2,5 5,8 -2,8 -2,3 -2,14l-4 -5 1 11c0,0 0,-1 0,-1 -2,-2 -2,-3 -5,0 -1,2 -3,7 -4,10 3,4 3,19 -4,21 -4,8 -4,9 -2,17 2,8 -1,10 -4,16 -5,13 5,23 8,34 -1,0 -1,0 -1,0l-6 0c0,2 -1,6 -1,7 -3,8 -1,0 -4,6 9,6 0,-2 13,-4 2,-11 1,-7 6,-10 1,-8 4,-16 -3,-19 -4,-2 -6,-3 1,-6 9,-4 5,0 3,-9 0,-2 0,-4 1,-6l1 -10c0,0 1,0 1,-1 2,-6 1,-4 1,-12l6 3c-1,-6 0,-13 6,-15 -6,-5 -10,-1 -1,-25 8,-20 0,-19 8,-23 0,-6 -3,-4 -2,-7 2,-8 2,7 3,-6 0,-5 -2,-8 0,-16 -3,1 -18,0 -3,-7 4,-1 5,0 3,-10 2,-1 4,-3 6,-4 -2,-12 -2,-1 -1,-12 1,-11 2,-10 0,-15 0,-10 2,-15 4,-27 1,-6 1,-13 3,-21 3,-12 0,-11 8,-8 1,-10 6,-15 10,-23 2,-4 3,-7 6,-10 16,-12 8,-12 17,-29 6,-10 3,-6 4,-9 1,-6 1,1 0,-7 3,-6 30,-74 31,-79 -2,-5 -14,-14 -3,-16 8,-1 -3,3 2,0zm76 51c3,-3 6,-5 9,-5 24,1 -2,-5 20,-8 3,0 6,-3 10,-4 10,-3 22,-1 17,8 20,3 -4,0 8,16 -2,5 -3,4 -5,9 -1,3 -1,7 -3,10 -6,11 -7,-3 -6,15l-8 1c0,9 4,-1 -2,14l-10 -3c1,9 5,7 11,12 4,3 12,11 16,8 4,-4 4,-3 2,-9 3,0 5,-5 9,-9 2,-3 7,-4 8,-6 3,-8 -1,-2 4,-6 -3,-7 -1,-1 3,-9 6,-10 -1,-9 5,-9 -1,-1 -3,-13 -1,-15 3,-3 -6,-5 -3,-10 3,2 5,7 10,5 4,-1 1,-5 1,-10 -17,-4 -5,-4 0,-11 -7,-2 -1,-5 -4,-8 -6,-4 -7,2 -4,-6 1,-4 6,-5 0,-8 -8,-6 -5,6 -14,-6 -19,-1 -11,-15 -23,-4l-1 -3c-8,1 -13,3 -22,2 -2,13 -33,8 -36,18 -1,1 -8,5 -13,5 -2,5 -1,2 -5,5 -7,8 -9,4 -12,10 -1,3 -2,8 -3,11 2,2 4,2 6,5 0,0 -1,0 -1,0 -14,3 -13,4 -12,20l6 4c0,6 -3,6 -1,12l0 3c0,2 -2,3 2,8 4,5 0,0 6,3 -3,3 -3,7 -2,11 3,16 12,30 19,44l-1 21 5 2c0,0 5,0 5,0 -3,9 -7,-3 -1,9 6,14 4,11 4,14l2 5c3,6 5,6 3,11 -1,0 -2,2 -2,2 -2,4 0,14 -1,17 -1,15 -1,14 -10,15l-12 -2c-5,-2 -8,-4 -17,-1 -9,-11 -1,-5 -10,-16 -9,-11 -4,0 -13,-14 -11,-6 -3,-2 -8,-11l-4 -6c5,-13 -1,-7 8,-13l1 -5c1,-6 4,-3 10,0 5,-10 -1,-2 8,-8 -1,-6 -2,-9 3,-11 10,4 8,-1 8,-8 -7,-1 0,1 -5,2 -1,1 -7,-2 -16,0 -4,8 0,8 -8,12 -10,4 1,-2 -9,1 -2,5 -2,6 -7,9 -11,6 4,8 -7,9 -2,0 -4,2 -4,10 0,3 2,3 -1,5 3,9 1,1 1,7 0,0 3,7 6,12 4,5 8,7 10,11l3 7c0,4 0,6 3,7l3 1c-3,3 -3,2 -3,7l13 0c3,11 27,19 36,23 2,-3 3,-2 7,0 4,0 18,1 20,-4 1,-2 15,-13 17,-13 4,-6 2,-11 3,-15 15,-22 -3,-7 10,-18l-8 -8c2,-2 5,-13 5,-14 0,-1 1,-13 -7,-25 -3,-5 -6,-3 -9,-7 11,-9 1,-13 -1,-21l-1 -6c0,-5 0,-8 0,-11 -2,-16 -5,-14 -13,-29 -3,-6 -6,-13 -8,-17 0,-1 0,-3 1,-7l-6 -8c-1,-6 -1,-15 4,-21l12 -10z"/>
 </g>
</svg>
