<?xml version="1.0" encoding="utf-8"?>
<svg version="1.1" xmlns="http://www.w3.org/2000/svg" viewBox="0 0 9.2 27.1">
<style type="text/css">
	.st0{fill:#818181;}
</style>
<g>
	<path class="st0" d="M6.6,23.7c0,0-0.2-0.1-0.3-0.1c-0.1-0.1-0.3-0.1-0.4-0.1c-0.1,0-0.2,0-0.3,0.1c-0.1,0-0.1,0-0.2,0.1
		c0.1,0,0.2-0.1,0.3-0.1c0.1,0,0.2,0,0.3,0.1c0.1,0,0.2,0.1,0.3,0.2c0.1,0.1,0.1,0.2,0.2,0.3c0.1,0.1,0.1,0.2,0.1,0.3
		c0,0.1,0,0.1,0,0.2c0.1,0.1,0.1,0.1,0.1,0.1c0.1,0,0.1,0,0.1-0.1s0.1-0.2,0.1-0.3s0-0.2,0-0.3c0-0.1,0-0.1-0.1-0.2
		C6.7,23.8,6.7,23.8,6.6,23.7z"/>
	<path class="st0" d="M4.9,24.1c0,0.1,0,0.1,0,0.1H5c0,0,0,0,0,0.1c0,0,0.1,0,0.1,0.1c0,0.2,0.1,0.3,0.1,0.5s0.1,0.3,0.1,0.5
		c0,0.2,0,0.3,0,0.4c0,0.2,0,0.3,0,0.4c0,0.1,0,0.3,0.1,0.4c0,0.1,0.1,0.2,0.1,0.3c0,0.1,0,0.2,0.1,0.2c0,0,0.1,0,0.2,0
		c0.2,0,0.4,0,0.5,0c0.2,0,0.3,0,0.3,0s0.1-0.1,0.1-0.2c0-0.1,0-0.3,0-0.4c0-0.2-0.1-0.4-0.1-0.5c0-0.1-0.1-0.3-0.1-0.4
		c-0.1-0.1-0.1-0.3-0.1-0.4c-0.1-0.2-0.1-0.4-0.1-0.5s-0.1-0.2-0.1-0.3c0-0.1,0-0.1-0.1-0.2c-0.1,0-0.2-0.1-0.3-0.1
		C5.7,24,5.6,24,5.5,24c0,0.1-0.1,0.1-0.1,0.1c-0.1,0.1-0.3-0.2-0.3-0.2c0,0,0,0,0-0.1C5,23.9,5,24,4.9,24.1z"/>
	<path class="st0" d="M5.1,23.8C5.2,23.8,5.2,23.8,5.1,23.8c0.1-0.1,0.2-0.1,0.2-0.2c0,0-0.1,0-0.1,0C5.2,23.8,5.2,23.8,5.1,23.8z"
		/>
	<path class="st0" d="M4.9,26C4.8,26,4.8,26,4.9,26H4.7c-0.1,0-0.1,0.1-0.1,0.1c0,0.1,0,0.1-0.1,0.1l-0.1,0.1c0,0.1-0.1,0.1-0.1,0.2
		c0,0.1-0.1,0.1-0.1,0.2c0,0.1,0,0.1,0.1,0.1c0,0,0.1,0,0.1-0.1c0-0.1,0.1-0.1,0.1-0.2c0.1-0.1,0.1-0.1,0.1-0.1c0-0.1,0-0.1,0-0.1
		s0,0,0-0.1C4.6,26.1,4.7,26.1,4.9,26c0,0.1,0,0.1,0.1,0C5,26,5,26,4.9,26C4.9,26,4.9,26,4.9,26z"/>
	<path class="st0" d="M6.3,18.6c0-0.1,0-0.1-0.1-0.1c-0.1,0-0.2,0-0.2,0.1c-0.1,0.1-0.1,0.1-0.1,0.1s-0.1,0-0.1-0.1
		c-0.1,0-0.1,0-0.2,0c-0.1,0-0.1,0.1-0.2,0.1c-0.1,0-0.1,0-0.2,0.1c-0.1,0.1-0.3,0.3-0.4,0.5c-0.1,0.1-0.1,0.2-0.1,0.3
		c0,0,0,0.1,0.1,0.2c0,0.1,0.1,0.1,0.1,0.2c0-0.2,0-0.1,0.1-0.2c0.1-0.1,0.1-0.2,0.3-0.3c0.1-0.1,0.3-0.3,0.3-0.3
		c0.1-0.1,0.2-0.1,0.3-0.1c0.1,0,0.2,0.1,0.3,0.1c0.1,0,0.1,0.1,0.2,0.1c0.1,0,0.1,0,0.2,0c0.1-0.1,0.1-0.1,0.1-0.2
		c0-0.1,0.1-0.1,0.1-0.2v-0.1v-0.1c0-0.1,0-0.1,0-0.1c0-0.1,0-0.1-0.1-0.1c0,0-0.1,0-0.2,0.1c-0.1,0.1-0.3,0.3-0.3,0.4
		c-0.1,0.1-0.1,0.1-0.1,0.1S6,19,6.1,18.9C6.2,18.8,6.2,18.7,6.3,18.6z"/>
	<path class="st0" d="M4.6,19.4L4.6,19.4C4.5,19.3,4.5,19.4,4.6,19.4c-0.1-0.1-0.1,0-0.2,0c-0.1,0-0.1,0-0.2,0
		c-0.1,0.1-0.1,0.1-0.2,0.1c-0.1,0.1-0.2,0.1-0.3,0.2c-0.1,0.1-0.2,0.1-0.2,0.2c-0.1,0-0.1,0.1-0.1,0.1h0.1c0,0.1,0,0.1,0.1,0.1
		s0.1,0.1,0.2,0.1c0.1,0,0.2,0,0.3,0s0.2,0,0.3-0.1C4.5,20,4.5,20,4.6,19.9c0-0.1,0-0.1,0-0.2l-0.1-0.1v-0.1L4.6,19.4z"/>
	<path class="st0" d="M1.6,13.5c0-0.1,0.1-0.1,0.1-0.3c0-0.1,0.1-0.3,0.1-0.4c0-0.1,0-0.2,0-0.2l-0.1,0.1H1.6c0-0.1,0-0.2,0-0.3
		s0-0.1,0-0.1l-0.1,0.1c0,0-0.1,0-0.1-0.1H1.3l-0.1-0.1c0-0.1,0-0.1,0-0.1H1.1L1,12.2c-0.1,0-0.1,0-0.1,0c0-0.1,0-0.1,0-0.2
		c0-0.1,0-0.1,0-0.1H0.8c-0.1,0-0.1-0.1-0.1-0.1l-0.1-0.1l-0.2-0.1c0,0-0.1,0.1-0.1,0.2c0,0.1,0,0.3,0,0.7c0,0,0,0.1,0,0.1
		c0-0.1,0.1-0.1,0.1,0c0,0.1,0,0.2,0,0.5c0,0.2,0,0.5,0,0.8c0,0.2,0,0.3,0.1,0.5c0,0.1,0,0.3,0,0.3c0,0.1,0.1,0.1,0.1,0.2
		c0.1,0,0.1,0,0.2,0c0.1,0,0.1-0.1,0.1-0.1c0-0.1,0-0.1,0-0.1s0-0.1,0.1-0.1l0.1,0.1c0,0,0-0.1,0.1-0.2c0-0.1,0-0.3,0.1-0.4
		c0-0.1,0.1-0.1,0.1-0.2c0-0.1,0.1-0.1,0.1-0.2C1.5,13.6,1.6,13.6,1.6,13.5z"/>
	<path class="st0" d="M9.1,9.2C9,9.2,9,9.2,8.9,9.3c-0.1,0-0.1,0.1-0.1,0l0.1-0.1L9,9.1c0,0-0.1,0.1-0.2,0.1
		C8.7,9.3,8.7,9.3,8.6,9.3s-0.1,0-0.1-0.1c0,0,0-0.1,0.1-0.1S8.7,9,8.8,9c0,0,0,0,0.1-0.1H8.8H8.7V8.8c0-0.1,0.1-0.1,0.1-0.1
		c0-0.1,0-0.1,0-0.1L8.7,8.5h0.1c0.1,0,0.1,0,0.1,0s0-0.1-0.1-0.1c0-0.1,0-0.1,0-0.1L8.7,8.2c0-0.1,0-0.2,0-0.3s0-0.1,0-0.1L8.6,7.9
		c0,0-0.1,0.1-0.1,0C8.4,7.8,8.4,7.6,8.4,7.5c-0.1-0.1-0.1-0.1-0.1,0c0,0.1,0,0.2,0,0.3c0,0.1,0,0.1-0.1,0.2c0,0.1,0,0.1,0,0.2
		c0,0.1,0,0.1,0,0.2c0,0.1-0.1,0.1-0.2,0.1c-0.1,0-0.3,0-0.3-0.1c-0.1,0,0-0.1,0-0.1c0-0.1,0-0.1-0.1,0C7.5,8.4,7.4,8.5,7.3,8.6
		C7,8.5,6.9,8.5,7,8.7c0.1,0.1,0.3,0.4,0.6,0.6C7.8,9.5,8,9.6,8.1,9.8c0.2,0.1,0.3,0.2,0.4,0.3c0.1,0.1,0.2,0.1,0.3,0.1
		c0.1,0,0.1,0,0.2-0.1C9,10,9.1,10,9.1,9.9c0-0.1,0.1-0.2,0.1-0.3S9.2,9.4,9.1,9.2C9.2,9.2,9.1,9.2,9.1,9.2z"/>
	<path class="st0" d="M5.5,3.5l0.1-0.1C5.6,3.4,5.5,3.4,5.5,3.5z"/>
	<path class="st0" d="M3,2l0.1-0.1C3.1,1.9,3,1.9,3,2z"/>
	<path class="st0" d="M0.7,7.1c0.1,0.1,0.1,0.2,0.2,0.3C1,7.5,1,7.6,1.1,7.7S1.2,7.9,1.2,8s0.1,0.2,0.1,0.3c0,0,0.1,0,0.1-0.1
		c0-0.1,0-0.2,0-0.4c0-0.2,0-0.4,0-0.5c0-0.2,0-0.3,0.1-0.3h0.1c0,0,0.1,0,0.1-0.1c0-0.1,0-0.3,0-0.5s0-0.2,0.1-0.3
		c0,0,0.1,0,0.1-0.1c0-0.1-0.1-0.1-0.1-0.3C1.7,5.6,1.5,5.5,1.5,5.4C1.4,5.3,1.3,5.2,1.3,5.2c0-0.1,0-0.1-0.1-0.1L1.1,5.2
		C1,5.4,0.9,5.4,0.9,5.5L1,5.6c0.1,0,0.1,0.1,0.2,0.1c0.1,0.1,0.1,0.1,0.1,0.2c0,0.1,0.1,0.2,0.1,0.4c0,0.1,0,0.3,0,0.3L1.3,6.5
		c0,0,0,0.1,0,0.2c0,0.2,0,0.5,0,0.7s0,0.2-0.1,0.2c0,0,0-0.1-0.1-0.1C1.1,7.4,1,7.4,1,7.3C0.9,7.2,0.8,7.1,0.7,7
		C0.6,6.9,0.6,6.9,0.5,6.8c0,0,0,0,0,0.1C0.5,7,0.6,7,0.7,7.1z"/>
	<path class="st0" d="M0.5,15.9c0,0.1,0.1,0.1,0.2,0.2c0.1,0,0.1,0,0.2,0C0.9,16,1,16,1,15.9c0.1-0.1,0.1-0.2,0.1-0.3
		c0-0.1,0-0.1,0.1-0.2c0,0,0.1,0,0.1-0.1c0.1-0.1,0-0.1,0-0.2V15c0-0.1-0.1-0.1-0.1-0.1s0,0-0.1,0.1c0,0,0,0.1-0.1,0.1
		c-0.1,0.1-0.1,0.1-0.2,0.1c-0.1,0-0.1,0-0.2,0c0,0-0.1,0-0.1,0.1c0,0-0.1,0.1-0.3,0c0,0.1,0,0.1,0,0.2c0,0.1,0,0.1,0.1,0.2
		C0.4,15.8,0.4,15.8,0.5,15.9z"/>
	<path class="st0" d="M1.5,4.9c0.1-0.1,0.3-0.1,0.4-0.1c0.1,0,0.3-0.1,0.3-0.1c0.1,0,0.1-0.1,0.2-0.1h0.1c0.1,0,0.1,0,0.1-0.1
		c0,0,0-0.1,0.1-0.1c0-0.1,0.1-0.1,0.1-0.1c0.1,0,0.1-0.1,0.2-0.1c0.1,0,0.1-0.1,0.2-0.1c0.1,0,0.2,0,0.3-0.1c0.1,0,0.2,0,0.3,0
		c0.1,0,0.1,0.1,0.1,0.1H4h0.1c0.1,0,0.1,0,0.1,0V4C4.1,4,4.1,4,4,3.9c0,0,0,0,0.1-0.1c-0.1,0-0.3,0-0.4,0c-0.1,0-0.2,0-0.3,0
		s-0.2,0-0.3,0.1c-0.1,0-0.3,0-0.3,0c-0.1,0-0.1,0-0.2,0c0,0,0.1,0,0.1-0.1c0.1,0,0.2-0.1,0.3-0.1c0.1,0,0.2-0.1,0.3-0.1
		c0.1,0,0.2,0,0.2,0c0.1,0,0.1-0.1,0.3-0.1c0.1,0,0.4,0,0.5,0.1c0.2,0,0.3,0,0.3-0.1c0.1,0,0.1-0.2,0.1-0.3c0-0.1,0.1-0.1,0.1-0.2
		h0.1C4.9,3,5,3,5,3.1c0,0.1,0,0.1,0,0.2c0,0.1,0,0.2,0,0.3c0,0.1,0,0.1,0.1,0.1h0.1c0.1,0,0.1,0,0.1,0.1c0,0.1,0.1,0.1,0.1,0.2v0.1
		L5.5,4c0.1,0,0.1,0,0.1-0.1V3.8L5.5,3.7L5.4,3.6l0.1-0.1V3.4l0.1-0.1H5.5c-0.1,0-0.1,0-0.1-0.1c0-0.1,0-0.1,0-0.1
		C5.4,3,5.5,3,5.5,3H5.4c0,0-0.1,0-0.1-0.1c0,0,0-0.1,0.1-0.1c0-0.1,0.1-0.1,0.1-0.1c0.1,0,0.1-0.1,0.1-0.1S5.5,2.7,5.4,2.7
		c0,0,0,0,0-0.1V2.5c0,0-0.1,0-0.1-0.1c0-0.1,0-0.1,0-0.1l0.1-0.1H5.3c-0.1,0-0.1-0.1-0.1-0.1V2L5.1,1.9c0-0.1,0-0.2-0.1-0.4
		c0-0.1,0-0.3,0-0.3s0,0.1-0.1,0.1s-0.1,0-0.1,0.1v0.1H4.7c-0.1,0-0.1,0.1-0.2,0.1c0,0.1,0,0.1-0.1,0.2C4.3,1.9,4.3,1.9,4.3,1.9V2
		L4.2,2.1c0,0,0-0.1-0.1-0.1C4,2,3.8,2.1,3.7,2.2C3.6,2.3,3.4,2.3,3.4,2.3S3.6,2.1,3.7,2c0.1-0.1,0.1-0.1-0.1,0
		C3.5,2.1,3.3,2.2,3.1,2.3c-0.1,0-0.2,0-0.2-0.1V2.1L3,2C2.9,2,2.9,2.1,2.8,2.1c0,0-0.1,0-0.1-0.1C2.6,1.9,2.6,1.9,2.5,1.8
		C2.4,1.7,2.4,1.6,2.4,1.5s0.1-0.1,0.1-0.1c0-0.1-0.1-0.1-0.2-0.1c-0.1,0,0-0.1-0.1-0.1L2.1,1.1C2.1,1,2,1,2.1,0.8
		c0-0.1,0.1-0.2,0.2-0.3c0.1-0.1,0.2-0.2,0.4-0.3S3,0.1,3,0c0,0-0.1,0-0.2,0.1C2.7,0.2,2.5,0.3,2.3,0.4C2.1,0.5,2,0.7,1.9,0.8
		C1.8,1,1.7,1.1,1.7,1.3s0,0.4,0.1,0.6c0.1,0.2,0.1,0.3,0.1,0.5c0,0.1,0,0.1,0,0.1s0,0,0,0.1c0,0.1,0,0.1,0,0.3C1.9,3,2,3.2,2,3.4
		c0.1,0.1,0.1,0.2,0.1,0.2c0.1,0,0.1,0,0.2,0c0.1,0,0.1,0,0.2,0.1c0.1,0,0.1,0.1,0.1,0.1c0,0.1,0,0.1,0,0.1c-0.1,0-0.1,0-0.2,0.1
		C2.3,4,2.3,4.1,2.2,4.1C2.1,4.2,2,4.2,1.9,4.2C1.8,4.3,1.8,4.3,1.7,4.4C1.6,4.5,1.6,4.5,1.5,4.5C1.4,4.6,1.4,4.6,1.3,4.7
		C1.2,4.8,1.1,4.9,1,4.9C1,5,0.9,5,0.9,5.1C0.9,5.1,1,5,1.1,5C1.2,4.9,1.4,4.9,1.5,4.9z"/>
	<path class="st0" d="M0.9,5.1C0.9,5.1,0.9,5.1,0.9,5.1C0.9,5.1,0.9,5.1,0.9,5.1C0.9,5.1,0.9,5.1,0.9,5.1z"/>
	<path class="st0" d="M1.5,16.4v-0.1c0-0.1,0-0.1,0-0.1v-0.1V16c-0.1,0.1,0,0.1-0.1,0c-0.1,0.1-0.1,0.2-0.2,0.3
		c-0.1,0.1-0.1,0.2-0.2,0.3c0,0,0-0.1,0.1-0.1c0.1-0.1,0.1-0.1,0.1-0.1s0,0.1-0.1,0.1c0,0.1-0.1,0.1-0.1,0.2
		c-0.1,0.1-0.1,0.1-0.1,0.2C0.8,17,0.8,17,0.9,17c0,0,0,0,0.1,0c0.1,0,0.1,0,0.1,0h0.1c0,0,0,0.1-0.1,0.1c0,0.1,0,0.1,0,0.1l0.1-0.1
		L1.3,17c0,0.1,0,0.1,0,0.1s0,0,0.1-0.1c0,0,0.1-0.1,0.1-0.2c0-0.1,0-0.1,0-0.1s-0.1,0-0.1-0.1L1.5,16.4L1.5,16.4z"/>
	<path class="st0" d="M0.6,16.9V17C0.6,17,0.7,17,0.6,16.9c0.2,0,0.2,0,0.2-0.1c0.1,0,0.1-0.1,0.1-0.1C1,16.6,1,16.6,1,16.6
		C0.9,16.7,0.8,16.7,0.6,16.9C0.6,16.9,0.6,16.9,0.6,16.9z"/>
	<path class="st0" d="M5.5,2c0,0.1,0,0.1,0.1,0.4c0.1,0,0.1,0.1,0.2,0.2c0,0.1,0,0.1,0.1,0s0.2-0.2,0.3-0.3c0.1-0.1,0.1-0.1,0.2-0.1
		s0.1,0,0.1,0v0.1v0.1c0,0,0,0,0,0.1c0,0.1,0,0.1,0,0.1l0.1-0.1c0,0,0,0,0-0.1c0,0,0,0,0-0.1V2.2L6.5,2.1c-0.1,0-0.1,0-0.1-0.1
		c0,0,0,0,0-0.1c0-0.1-0.1-0.1-0.1-0.1L6.2,1.9c0,0-0.1,0-0.1-0.1C6,1.8,6,1.7,6,1.7c0-0.1,0-0.1,0.1-0.1c0,0,0.1,0,0.1,0
		c-0.1,0-0.1,0-0.2-0.1C5.9,1.4,5.8,1.4,5.8,1.4c0-0.1,0-0.1,0-0.1V1.2V1.1C5.9,1,5.9,1,5.9,1C6,1,6,0.9,6,0.9c0-0.1,0-0.1,0-0.1
		H5.9c-0.1,0-0.1,0.1-0.1,0.1V1C5.7,1.1,5.7,1.1,5.7,1.2c0,0,0,0,0,0.1L5.6,1.4c-0.1,0-0.1,0-0.1,0.1c0,0-0.1,0-0.1,0.1
		c0,0.1-0.1,0.1-0.1,0.2c0.1,0,0.1,0,0.3,0.1C5.5,1.9,5.5,1.9,5.5,2z"/>
	<path class="st0" d="M4.2,24.3c0,0,0-0.1,0.1-0.1c0.1,0,0.1-0.1,0.2-0.1V24c0,0,0,0-0.1-0.1c-0.1,0-0.1-0.1-0.2-0.1
		c-0.1,0-0.1-0.1-0.2-0.1c0-0.1,0-0.1,0-0.1s0,0,0.1,0s0.2,0,0.2,0c0.1,0,0.1,0,0.1,0c0-0.1,0-0.1-0.1-0.1c-0.1-0.1-0.2-0.1-0.3-0.1
		c-0.1,0-0.1,0-0.2,0c0,0-0.1,0-0.3,0c0-0.1-0.1-0.1-0.1-0.2c0,0.1,0.1,0.2,0.1,0.3s0,0.2,0,0.3C3.6,23.9,3.6,24,3.6,24s0,0,0,0.1
		c0,0.1,0.1,0.1,0.1,0.2c0.1,0,0.1,0,0.1,0.1v0.1c0,0.1,0,0.1,0,0.1l0.1-0.1c0,0,0,0,0.1,0h0.1c0,0,0,0-0.1-0.1l-0.1-0.1
		c0,0,0,0,0.1,0C4.1,24.3,4.1,24.3,4.2,24.3z"/>
	<path class="st0" d="M5.6,19.8c0,0.1-0.1,0.2-0.1,0.2C5.6,19.9,5.6,19.9,5.6,19.8z"/>
	<path class="st0" d="M5.6,19.8C5.6,19.8,5.6,19.8,5.6,19.8c0.1-0.1,0.1-0.1,0.1-0.2c0,0,0,0-0.1,0C5.6,19.7,5.6,19.8,5.6,19.8z"/>
	<path class="st0" d="M6.4,19.5C6.4,19.5,6.4,19.4,6.4,19.5c-0.2-0.1-0.2-0.1-0.3-0.1S6,19.5,5.9,19.5c-0.1,0.1-0.2,0.1-0.2,0.1
		c0,0,0,0,0,0.1c0,0,0.1-0.1,0.1-0.1c0.1,0,0.1,0,0.2,0c0.1,0,0.2,0,0.3,0h0.1C6.5,19.6,6.4,19.5,6.4,19.5z"/>
	<path class="st0" d="M5.6,11.7C5.6,11.7,5.7,11.6,5.6,11.7C5.7,11.6,5.7,11.6,5.6,11.7C5.6,11.7,5.6,11.7,5.6,11.7z"/>
	<path class="st0" d="M6.3,10.9c0.1-0.1,0.1-0.1,0.1-0.2l0,0h0l-0.1,0.1c-0.1,0.1-0.1,0.1-0.2,0.1S6,11,5.9,11
		c-0.1,0.1-0.1,0.1-0.1,0.1s-0.1,0.1-0.1,0.2c-0.1,0.1-0.1,0.1-0.1,0.2c0,0.1,0,0,0.1,0h0.1c0.1-0.1,0.2-0.2,0.3-0.3
		C6.2,11.1,6.2,11,6.3,10.9z"/>
	<path class="st0" d="M5.8,11.5C5.8,11.5,5.7,11.6,5.8,11.5C5.8,11.6,5.8,11.5,5.8,11.5z"/>
	<path class="st0" d="M6.5,10.6L6.5,10.6C6.5,10.8,6.5,10.8,6.5,10.6z"/>
	<path class="st0" d="M7.1,16.5C7.1,16.5,7.1,16.4,7.1,16.5c-0.1,0.1-0.3,0.2-0.4,0.3c-0.1,0.1-0.1,0-0.2,0c0,0-0.1,0-0.2,0
		c-0.1,0-0.1,0-0.2,0.1c0,0-0.1,0.1-0.2,0.1c-0.1,0-0.2,0-0.4,0c-0.1,0-0.4,0-0.5-0.1c-0.1,0-0.2,0-0.1-0.1c0.1,0,0.2,0,0.4-0.1
		c0.1,0,0.3,0,0.4-0.1c0.1,0,0.1-0.1,0-0.1c-0.1,0-0.3-0.1-0.5-0.1c-0.2-0.1-0.5-0.1-0.6-0.2c-0.1-0.1-0.1-0.2-0.1-0.3
		c0-0.1,0-0.2,0.1-0.3c0.1,0,0.2-0.1,0.3-0.1c0.1,0,0.2,0,0.4,0c0.2-0.1,0.6-0.1,0.8-0.2c0.2,0,0.4-0.1,0.3-0.1c0,0-0.3,0.1-0.7,0.1
		c-0.4,0-0.9,0-1.2,0c-0.3,0-0.6,0-1,0c-0.3,0-0.8,0-1,0c0.5,0.1,1.1,0.2,1.1,0.4c0,0-0.6,0-0.8,0.2c-0.1,0,0.8,0.9,0.8,1
		c-0.1,0.3-0.8-0.5-0.8-0.5c-0.1,0,0.5,0.7,0.5,0.7c0,0.1-0.5,0-0.7-0.1c-0.2-0.2-0.1,0.1-0.1,0.3c0.1,0.2,0.1,0.3,0.1,0.4
		c0,0.1,0,0.1,0.1,0.1c0,0,0.1,0,0.2-0.1c0.1-0.1,0.3-0.2,0.4-0.2c0.1,0,0.2,0,0.2,0.1c0,0.1-0.1,0.3-0.2,0.4
		c-0.1,0.2-0.3,0.4-0.4,0.5c-0.1,0.1-0.2,0.2-0.1,0.2c0.1,0,0.1-0.1,0.2-0.1h0.1c0,0,0,0,0.1,0c0.1-0.1,0.2-0.2,0.4-0.3
		c0.1-0.1,0.2-0.1,0.3-0.1c0.1,0,0,0,0,0.1c-0.1,0.1-0.1,0.1-0.2,0.2c0,0.1-0.2,0.2-0.3,0.3C3.3,18.9,3.1,19,3,19.1
		c-0.1,0.1-0.2,0.1-0.2,0.2c0,0.1,0,0.1,0,0.2c0,0,0,0,0.1,0c0,0,0.1,0,0.2-0.1c0.1,0,0.3-0.1,0.4-0.3c0.1-0.2,0.4-0.4,0.5-0.5
		c0.1-0.1,0.2-0.1,0.2,0c0,0.1-0.1,0.2-0.2,0.3C4,19,3.8,19,3.7,19.1c-0.2,0.1-0.2,0.1-0.3,0.2v0.1c0,0,0-0.1,0.1-0.1h0.1
		c0,0,0,0-0.1,0.1c0,0.1,0,0.2,0.1,0.1c0,0,0.2-0.2,0.3-0.3C4,19,4.1,19,4.2,18.9c0.1-0.1,0.2-0.2,0.3-0.3c0.1-0.1,0.3-0.3,0.4-0.4
		C5,18.1,5.1,18,5.1,17.9c0-0.1,0-0.1-0.1-0.2c-0.1-0.1-0.1-0.1-0.1-0.2c0.1-0.1,0.2-0.2,0.3-0.2c0.2-0.1,0.4-0.1,0.6,0
		c0.2,0.1,0.3,0.1,0.4,0.1c0.2-0.1,0.3-0.2,0.5-0.3C6.8,17,7,16.9,7.1,16.8c0-0.1,0.1-0.2,0.1-0.2C7.2,16.5,7.1,16.5,7.1,16.5z"/>
	<path class="st0" d="M2.5,15.3C2.3,15.3,2.3,15.4,2.5,15.3L2.5,15.3z"/>
	<path class="st0" d="M0.5,10.6C0.6,10.6,0.6,10.5,0.5,10.6c0.1-0.1,0.1-0.1,0.2-0.1l0.1-0.1c0,0,0,0-0.1,0c-0.1,0-0.1,0-0.2,0
		c-0.1,0-0.1,0.1-0.1,0.1v0.1C0.4,10.6,0.4,10.6,0.5,10.6z"/>
	<path class="st0" d="M0.3,10.6l-0.1,0.1v0C0.3,10.7,0.3,10.7,0.3,10.6z"/>
	<path class="st0" d="M0.2,11v-0.1c0-0.1,0-0.1,0-0.2l-0.1,0.1C0,10.8,0,10.9,0,10.9S0,10.9,0.2,11C0.1,11,0.1,11,0.2,11L0.2,11z"/>
	<path class="st0" d="M0.4,10.5L0.4,10.5C0.4,10.6,0.4,10.5,0.4,10.5z"/>
	<path class="st0" d="M1.8,20.8C1.9,20.8,1.9,20.8,1.8,20.8c0.1,0,0.1,0,0.1-0.1c0,0,0-0.1-0.1-0.1v-0.1l0.1-0.1c0,0,0,0-0.1,0
		c0,0.1-0.1,0.1-0.1,0.1c-0.1,0-0.1,0-0.1,0.1c0,0.1,0,0.1,0,0.2C1.7,20.9,1.7,20.9,1.8,20.8z"/>
	<path class="st0" d="M0.7,19.1L0.7,19.1v-0.2l-0.1-0.1c0,0.1,0,0.2-0.1,0.1V19c0,0.1,0,0.1,0,0.2c0,0,0,0.1,0,0.1
		c0-0.1,0.1-0.1,0.1-0.1h0.1c0.1,0,0.1,0,0.1,0L0.7,19.1z"/>
	<path class="st0" d="M5.7,22.5c-0.1,0-0.1,0-0.2,0.1c-0.1,0-0.2,0.1-0.3,0.1c0,0,0,0,0.1,0C5.4,22.7,5.5,22.6,5.7,22.5
		c0,0.1,0.1,0,0.2,0c0.1,0,0.2-0.1,0.3-0.1c0.1,0,0.2-0.1,0.2-0.1c0-0.1,0-0.1-0.1-0.1c-0.1,0-0.2,0-0.3,0c-0.1,0-0.2,0-0.3,0
		c-0.1,0-0.1,0.1-0.2,0.1c-0.1,0-0.1,0.1-0.2,0.1c0.2,0,0.2,0,0.4,0c0-0.1,0-0.1,0.1-0.1c0.1,0,0.1,0,0.2,0c0,0,0.1,0,0.1,0
		C6,22.4,6,22.4,5.9,22.4C5.8,22.4,5.8,22.5,5.7,22.5z"/>
	<path class="st0" d="M7.4,5.3C7.4,5.2,7.4,5.2,7.4,5.3c-0.1,0,0,0,0,0.1C7.4,5.3,7.4,5.3,7.4,5.3z"/>
	<path class="st0" d="M7,5.3c0.1,0.1,0.1,0.1,0.1,0.1S7.1,5.4,7,5.3C7.1,5.3,7.1,5.3,7,5.3c0.1-0.2,0.2-0.2,0.2-0.2l0.1,0.1
		c0-0.1-0.1-0.1-0.1-0.2c0-0.1,0-0.1,0-0.2c0-0.1-0.1-0.1-0.1-0.2c0,0,0,0,0,0.1c0,0,0,0.1-0.1,0.1L6.9,4.9C6.8,5,6.8,5,6.8,5.1
		c0,0,0,0,0.1,0.1C6.9,5.2,7,5.2,7,5.3z"/>
	<path class="st0" d="M2.2,15.7c0-0.2,0-0.3,0-0.5c0-0.1,0-0.3,0.1-0.6c0.1-0.4,0.4-0.9,0.6-1.4s0.5-1,0.7-1.4S4,11,4.1,10.6
		c0.1-0.3,0.3-0.6,0.4-0.8c0.1-0.3,0.2-0.5,0.3-0.7C4.8,9,4.9,8.8,5,8.5c0.2-0.3,0.4-0.8,0.6-1.3c0.3-0.5,0.5-1.1,0.6-1.4
		c0.2-0.3,0.2-0.5,0.3-0.6c0-0.1,0.1-0.1,0.1-0.2V4.9c0-0.1,0-0.1,0-0.1L6.5,4.9L6.4,5H6.3c0,0,0,0,0-0.1c0.1,0,0.1-0.1,0.1-0.1V4.7
		c0,0,0-0.1-0.1-0.1c0,0-0.1,0-0.1-0.1V4.4c0-0.1,0-0.1,0-0.1H6.1C6.1,4.4,6,4.4,6,4.4V4.3H5.9c-0.1,0-0.1,0-0.1,0.1v0.1
		c-0.1,0-0.1,0-0.1,0.1c0,0.1-0.1,0.4,0,0.7C5.6,5.6,5.5,6,5.4,6.3S5.2,7,5.1,7.3C4.9,7.6,4.8,8,4.7,8.3C4.6,8.6,4.5,9,4.4,9.2
		S4.2,9.6,4.1,9.7C4,9.9,3.9,10,3.8,10.3c-0.1,0.2-0.3,0.5-0.4,0.7s-0.2,0.4-0.3,0.5C3,11.6,3,11.7,2.9,11.8c0,0.1,0,0.2-0.1,0.4
		c-0.1,0.2-0.2,0.4-0.3,0.7c-0.1,0.3-0.2,0.6-0.3,0.8C2.1,13.9,2,14,2,14.1c-0.1,0.1-0.1,0.1-0.1,0.2c-0.1,0-0.1,0.1-0.1,0.2
		c0,0.1,0,0.2-0.1,0.3c0,0.1-0.1,0.2-0.1,0.3c0,0.1,0,0.1,0,0.2c0,0.1,0,0.1,0,0.2c0,0,0.1,0.2,0.1,0.3c0,0.1,0.1,0.2,0.1,0.5
		c0.1,0.2,0.1,0.6,0.1,1c0,0.4-0.1,0.9-0.1,1.1s-0.1,0.3-0.1,0.3l-0.1,0.1c0,0,0,0-0.1,0H1.4c0,0,0,0.1,0.1,0.1L1.6,19v0.1
		c0,0.1,0,0.1,0,0.1c0.1,0,0.1,0,0.1,0c0-0.1,0.1-0.1,0.1-0.1c0.1,0,0.1,0.1,0.1,0.1c0.1,0,0,0.1,0,0.1c-0.1,0.1-0.1,0-0.2,0
		c-0.1,0-0.1-0.1-0.2-0.1c-0.1,0-0.2-0.1-0.2-0.1C1.2,19,1.2,19,1.2,19s0,0,0,0.1c0,0.1,0,0.1,0,0.2h0c0,0,0-0.1-0.1-0.1
		c0,0,0,0-0.1,0.1c-0.1,0.1-0.1,0.2-0.1,0.2s0,0.1,0.1,0.1l-0.1,0.1v0.1c0,0.1,0,0.1,0,0.1c-0.1,0.3-0.1,0.3-0.1,0.3s0,0.1,0.1,0.2
		c0.1,0.1,0.2,0.2,0.3,0.3c0.1,0.1,0.2,0.1,0.2,0.1c0.1,0,0.1,0,0.1,0s0-0.1,0.1-0.2c0-0.1,0-0.2,0-0.3s0-0.2,0.1-0.3
		c0-0.1,0-0.1-0.1-0.2c0-0.1-0.1-0.1-0.1-0.1c-0.1,0-0.2,0-0.3,0c-0.1,0-0.1,0-0.1-0.1c0-0.1,0-0.1,0.1-0.1c0.1,0,0.1-0.1,0.1-0.1
		c0.1,0.1,0.2,0.1,0.3,0.2c0.1,0.1,0.2,0.1,0.3,0c0.1-0.1,0.2-0.3,0.2-0.3c0,0,0,0.1,0,0.1c0,0.1,0,0.2,0,0.2s0.1,0,0.1-0.1
		c0-0.1,0.1-0.3,0.1-0.6s0-0.7,0-1c0-0.4,0-0.7,0-0.9c0-0.2-0.1-0.3-0.1-0.4c0-0.1,0-0.2,0-0.4S2.2,15.9,2.2,15.7z"/>
	<path class="st0" d="M0.6,10.1c0.1,0,0.1,0,0.2,0c-0.1,0-0.1-0.1-0.1-0.1H0.6C0.6,10,0.6,10.1,0.6,10.1H0.4H0.3c0,0,0,0,0,0.1
		c0,0.1,0,0.1,0,0.1s0,0,0.1-0.1C0.5,10.2,0.5,10.1,0.6,10.1z"/>
	<path class="st0" d="M1,10.2c0,0-0.1,0-0.1,0v0H1z"/>
	<path class="st0" d="M0,10.6c0.1-0.1,0.1-0.1,0.1-0.1C0,10.4,0,10.5,0,10.6z"/>
	<path class="st0" d="M0.2,10.4c0.1,0,0.1-0.1,0.1-0.1L0.2,10.4C0.1,10.3,0.1,10.3,0.2,10.4c-0.1,0-0.1,0.1-0.1,0.1c0,0,0,0,0,0
		C0.1,10.4,0.2,10.4,0.2,10.4z"/>
	<path class="st0" d="M0.9,10.1C0.9,10.1,0.9,10.1,0.9,10.1C0.8,10.1,0.9,10.2,0.9,10.1L0.9,10.1z"/>
	<path class="st0" d="M7.5,8.2c0.1,0,0.1,0,0.1,0V8.1c0,0,0,0,0.1-0.1c0.1-0.1,0.1-0.1,0.2-0.2L8,7.7c0,0,0,0,0.1-0.1
		c0,0,0,0,0.1-0.1c0,0,0.1,0,0.1-0.1V7.3V7.2c0,0,0,0,0-0.1V7C8.2,7,8.2,7,8.2,7s0,0,0,0.1c-0.1,0-0.1,0.1-0.1,0.1v0.1v0.1L8,7.5
		c0,0,0,0.1-0.1,0.1L7.8,7.7c0,0,0,0-0.1,0.1L7.6,7.9C7.5,7.9,7.5,8,7.5,8S7.4,8,7.4,8.1c0,0,0,0.1-0.1,0.1C7.3,8.2,7.3,8.2,7.5,8.2
		L7.5,8.2z"/>
	<path class="st0" d="M6.8,8.2C6.8,8.1,6.8,8.1,6.8,8.2C6.7,8.2,6.7,8.2,6.8,8.2z"/>
	<path class="st0" d="M6.9,8.3C7,8.3,7,8.4,7,8.4c0.1,0,0.1,0,0.1,0s0.1,0,0.1-0.1c0,0,0-0.1,0.1-0.1c0,0-0.1,0-0.1-0.1
		C7.1,8.1,7.1,8,7.1,8C7,8.1,6.9,8.1,6.8,8.2C6.8,8.2,6.8,8.2,6.9,8.3L6.9,8.3z"/>
	<path class="st0" d="M0.6,18.6l0.1,0.1c0.1,0,0.1,0,0.1,0h0.1c0.1,0,0.1,0,0.1,0c0-0.1,0-0.1-0.1-0.1l-0.1-0.1c0,0,0,0-0.1-0.1
		l-0.1-0.1c0,0,0,0.1-0.2,0.1L0.6,18.6L0.6,18.6z"/>
</g>
</svg>
