<?xml version="1.0" encoding="UTF-8"?>
<!DOCTYPE svg PUBLIC "-//W3C//DTD SVG 1.1//EN" "http://www.w3.org/Graphics/SVG/1.1/DTD/svg11.dtd">
<!-- Creator: CorelDRAW X7 -->
<svg xmlns="http://www.w3.org/2000/svg" viewBox="0 0 5300 1060">
 <defs>
  <style type="text/css">
   <![CDATA[
    .fil1 {fill:#4B4B4D;fill-rule:nonzero}
    .fil0 {fill:#848688;fill-rule:nonzero}
    .fil2 {fill:#A5ABB4;fill-rule:nonzero}
   ]]>
  </style>
 </defs>
 <g id="Layer_x0020_1">
  <metadata id="CorelCorpID_0Corel-Layer"/>
  <polygon class="fil0" points="2411,36 2241,279 2072,36 2053,36 2053,459 2072,459 2072,68 2241,311 2412,68 2412,459 2431,459 2431,36 "/>
  <path id="1" class="fil0" d="M2642 132c-34,0 -67,6 -91,14l0 18c18,-5 52,-13 90,-13 90,0 117,44 117,123 -21,-4 -51,-10 -90,-10 -39,0 -152,7 -152,101 0,85 91,99 133,99 40,0 128,-11 128,-97l0 -100c0,-86 -36,-135 -135,-135zm117 235c0,68 -72,79 -110,79 -40,0 -114,-12 -114,-81 0,-77 95,-83 135,-83 38,0 70,6 89,9l0 76z"/>
  <polygon id="2" class="fil0" points="2957,282 3095,137 3070,137 2892,324 2892,12 2873,12 2873,459 2892,459 2892,350 2944,295 3088,459 3113,459 "/>
  <path id="3" class="fil0" d="M3282 132c-33,0 -66,6 -90,14l0 18c18,-5 52,-13 90,-13 90,0 117,44 117,123 -21,-4 -51,-10 -91,-10 -38,0 -151,7 -151,101 0,85 91,99 133,99 39,0 128,-11 128,-97l0 -100c0,-86 -36,-135 -136,-135zm118 235c0,68 -72,79 -110,79 -40,0 -114,-12 -114,-81 0,-77 95,-83 134,-83 39,0 71,6 90,9l0 76z"/>
  <path id="4" class="fil0" d="M3874 132c-57,0 -103,19 -136,39 -19,-27 -49,-39 -91,-39 -53,0 -103,20 -132,36l0 291 19 0 0 -280c29,-15 70,-28 111,-28 68,0 98,34 98,98l0 210 18 0 0 -210c0,-25 -3,-46 -12,-63 30,-18 74,-35 124,-35 68,0 97,34 97,98l0 210 19 0 0 -210c0,-81 -43,-117 -115,-117z"/>
  <path id="5" class="fil0" d="M4229 132c-69,0 -151,30 -151,167 0,135 82,165 151,165 68,0 150,-30 150,-165 0,-137 -82,-167 -150,-167zm0 314c-68,0 -132,-32 -132,-147 0,-118 64,-150 132,-150 68,0 130,32 130,150 0,115 -62,147 -130,147z"/>
  <polygon class="fil1" points="376,459 376,21 342,21 342,409 66,21 28,21 28,459 62,459 62,71 338,459 "/>
  <path id="1" class="fil1" d="M621 123c-131,0 -148,125 -148,177 0,132 82,164 157,164 38,0 80,-7 111,-21l0 -35c-28,15 -68,23 -108,23 -64,0 -109,-25 -119,-89 -3,-8 -5,-17 -6,-29l254 0c0,-1 1,-3 1,-18 0,-22 -1,-172 -142,-172zm-2 32c105,0 109,112 109,128l-220 0c4,-80 39,-128 111,-128z"/>
  <polygon id="2" class="fil1" points="885,459 885,1 851,1 851,459 "/>
  <path id="3" class="fil1" d="M1007 214c0,-43 38,-59 82,-59 35,0 65,10 86,20l0 -33c-24,-10 -54,-20 -90,-20 -80,0 -112,45 -112,92 0,117 187,60 187,159 0,39 -36,58 -87,58 -37,0 -72,-10 -102,-26l0 35c26,13 60,24 104,24 79,0 120,-38 120,-91 0,-128 -188,-78 -188,-159z"/>
  <path id="4" class="fil1" d="M1416 122c-71,0 -155,31 -155,171 0,141 84,171 155,171 71,0 155,-30 155,-171 0,-140 -84,-171 -155,-171zm0 311c-72,0 -121,-35 -121,-140 0,-104 49,-140 121,-140 73,0 121,36 121,140 0,105 -48,140 -121,140z"/>
  <path id="5" class="fil1" d="M1799 122c-65,0 -119,23 -142,36l0 301 33 0 0 -282c28,-11 65,-21 105,-21 77,0 98,39 98,87l0 216 34 0 0 -216c0,-80 -47,-121 -128,-121z"/>
  <path class="fil2" d="M5283 638c2,-1 2,-6 -4,-5 -3,2 -5,4 -9,5 5,0 9,0 13,0zm-43 -11c-7,3 -12,5 -7,11 7,-6 7,-3 14,-7 6,0 12,-1 11,2 3,-2 10,1 13,-2 -8,-5 -18,-6 -28,-2 -2,-2 -4,-1 -3,-2zm-1162 392c2,0 5,0 7,1 -1,2 -4,6 -6,9 -1,3 -4,7 -8,3 -2,-2 -10,-14 -11,-18 8,2 15,4 18,5zm-174 -96c2,0 0,-1 4,-1 1,0 6,-1 7,-2 6,-5 3,0 8,-5 2,-3 5,-4 9,-4 -1,2 -2,5 -2,7 0,7 3,-2 1,5 -2,5 -4,15 -6,19 -1,3 -1,5 -2,7 -1,3 -1,0 -2,6 0,2 -1,4 -1,6 -6,-1 -14,-6 -19,-8 -5,-3 -13,-8 -12,-15 2,-2 1,1 4,-3 2,-2 5,-5 8,-6 3,-2 2,-1 4,-3 -12,2 -2,-3 -1,-3zm53 -21c5,0 16,-4 21,-5 6,-2 4,-2 8,-5 5,-3 25,-12 28,-11l5 0c8,-1 12,-3 16,-4 0,6 -2,3 -2,4 4,18 -4,15 -1,23l1 -3c3,4 0,24 -1,29 -2,7 2,22 2,29 0,0 -2,-1 -2,3 -1,6 2,6 3,10 1,15 0,16 3,32 -8,-3 -47,-14 -50,-16l-30 -12c-4,-1 -6,0 -9,-2 -3,-1 -5,-2 -8,-3 -2,-1 -5,-2 -7,-4 -3,-1 -6,-1 -5,-5 2,0 0,3 2,1 1,-1 2,-3 2,-5 -3,-1 0,1 -3,0 0,-5 2,-5 4,-9 1,-2 0,-3 1,-5 2,-4 0,2 2,-3 2,-7 2,-14 4,-20 5,-13 2,-12 9,-16 7,-4 27,-13 7,-3zm96 -33c2,0 7,-3 10,-4 4,-1 7,-2 11,-4 13,-4 28,-10 40,-17 5,-3 13,-9 18,-11l-2 9c-5,14 -7,53 -9,58 -1,3 -4,5 -5,9 -7,19 -13,42 -17,62 -2,12 -5,34 -12,42 -2,0 -5,0 -8,-1 -5,-1 -9,-3 -11,-3 -10,0 -11,1 -14,-8 0,-3 -2,-6 -2,-9 -2,-6 0,-2 1,-4 1,-2 -2,-21 -2,-25l-4 -1 1 -15c1,-19 -3,-50 1,-69 1,-3 0,-4 1,-7l7 -1c-1,-1 -1,0 -3,-1l-1 0zm266 -100c-1,-1 -3,-8 -2,-10 3,-9 24,-30 31,-34 7,-4 12,-3 17,-9 6,1 8,-1 14,0 4,2 7,5 9,9 1,2 -3,6 -5,8 -6,5 -6,10 -10,9 -5,-2 -4,-1 -8,2l-2 -6c-5,1 -10,10 -13,10 -2,0 -2,-1 -7,5 -3,4 -3,6 -7,7 -3,1 -12,7 -17,9zm-518 -89c2,1 -1,3 6,2 0,0 1,0 2,0 5,1 8,-4 10,-2 0,0 0,0 0,0 2,2 3,3 3,4 -3,2 4,0 0,3l2 1c3,4 3,12 5,12 0,2 -2,0 0,4 -2,1 -3,4 -3,8 1,3 -7,13 -9,14 -2,1 -2,0 -4,4 -1,3 -2,2 -6,2 -1,3 2,2 -2,3 -5,1 0,1 -4,1 -4,-6 -3,-1 -6,1 -2,-4 1,-6 -6,-6 0,-2 2,0 0,-2 -2,-1 -2,-1 -3,-2 -1,-4 -5,-12 -2,-22 1,-2 2,-1 3,-4 1,-2 1,-3 2,-5l-2 -2 3 1 -2 -3c5,-1 3,-2 5,-5 2,-2 6,-3 8,-2l0 -5zm1395 6c-5,3 -8,0 -13,0 0,-4 -5,-8 -8,-12 -4,-5 6,-14 12,-23 15,-14 15,-12 28,-5 3,1 7,3 9,6 2,1 4,6 3,8 -2,1 -1,0 -1,0 -1,-1 0,-1 0,-1l2 6c1,7 -2,3 -4,5 -2,2 0,0 -1,2 0,0 -1,1 -1,1 -1,2 1,-2 0,0 -1,3 0,2 -1,4 -4,3 -8,5 -12,6 -7,2 -12,2 -13,3zm-1152 13c-2,16 -3,55 -5,75 0,4 0,8 -1,12 -1,4 0,8 0,12 0,9 -2,17 0,25 2,6 -7,28 -5,47 -2,1 -10,5 -13,4l6 -3c-5,0 -5,2 -8,3 -4,2 -12,4 -17,5 -11,3 -7,4 -12,6 -9,3 -34,13 -40,14l1 -13c1,0 1,3 3,-3l4 -14c1,-2 3,-4 3,-5 1,-3 1,-10 2,-15 1,-4 2,-8 3,-13 5,-18 1,-7 8,-25 2,-4 0,-26 4,-28l2 7c2,-3 -1,-14 2,-21 1,-1 2,-3 3,-4 0,-1 -2,-11 2,-13 2,2 0,0 0,3 3,2 1,0 2,2 1,-1 1,-1 1,-2 0,-1 -1,-5 -2,-6 0,0 -1,-1 -1,-1 1,-3 2,-4 3,-6 1,-3 1,-6 2,-9 2,1 0,1 1,3 1,-5 1,-3 -2,-5 0,-2 1,-8 2,-9 4,-4 3,-1 4,-8 1,-7 0,-14 3,-21 1,-4 5,-35 5,-41 -5,-2 0,-9 1,-15 2,2 0,3 1,5 0,-5 2,-26 4,-30 2,3 -2,18 -2,22 0,0 1,-1 1,-1l0 4c4,-4 5,-19 6,-26 1,-4 2,-10 2,-14 1,-8 -4,4 -2,-13 2,-14 6,-15 7,-24 1,-11 -3,-13 -1,-25l3 0c3,-6 -2,-19 2,-26l0 9c3,-6 0,-10 1,-17 2,-2 2,-1 3,-4 0,-4 1,-14 5,-15 7,-1 7,12 8,18 -1,0 -1,-1 -2,0 -1,5 1,15 1,21 1,19 -1,58 1,69 2,11 -3,6 0,10 3,5 0,6 0,8 0,3 1,18 1,22 1,8 1,16 1,24 0,6 0,43 -1,45zm127 -9c1,-4 1,-18 1,-23 1,-7 2,-14 2,-21 1,-7 1,-17 2,-23 0,-2 2,-6 2,-9 3,-15 4,-39 5,-55 0,-8 2,-13 1,-19 0,-1 0,-9 0,-10 1,-16 3,-38 5,-54 2,-13 5,-27 7,-40 3,-14 7,-25 11,-37 2,-5 5,-11 9,-15 4,-6 2,-12 12,-9 -1,2 -2,0 -2,2 19,6 34,91 32,92 1,6 2,13 3,18 3,10 2,5 2,13 0,5 4,16 4,22 -1,6 2,13 3,18 2,7 4,32 6,37 1,6 1,13 2,19 2,9 1,2 1,10 0,10 4,23 4,28 1,11 4,19 4,26 0,10 4,21 6,30 2,8 -2,12 0,18 2,10 11,49 10,54l-2 -3c-2,3 16,59 13,66l7 53c1,4 2,15 3,15 0,-2 -1,-3 0,-5 3,2 4,10 6,14 1,5 -1,2 -1,8 1,14 2,9 -1,10 3,8 -1,6 1,14 1,4 4,11 2,15 0,1 2,11 2,15 0,5 -1,5 -1,9 0,2 0,6 0,9 0,4 -1,12 -2,17 -2,14 -8,15 -15,20 0,0 -13,4 -15,4l1 1c-21,4 -29,3 -50,4 -6,0 -14,2 -20,2 -8,0 -14,-2 -22,-3 -4,0 -28,-2 -29,-2 -2,2 -5,1 -7,0 -5,-2 -43,-3 -48,-6 2,-1 4,0 6,0 1,0 4,0 5,0 -4,-3 -25,-2 -31,-4 3,-8 4,-8 6,-17 1,-10 4,-26 7,-37 2,-7 6,-10 7,-15 1,-5 -1,-14 3,-25 2,-8 13,-42 11,-48 -1,-3 1,-6 3,-10l0 -2c0,0 0,0 0,0 1,0 1,0 1,0 1,-2 1,-7 2,-9 1,-6 2,-20 4,-24 2,-2 6,-4 8,-5 6,-2 5,0 11,-5 -1,0 -4,2 -1,-3 -3,2 -9,8 -12,7 0,-1 0,-1 1,-3l-7 4 2 -13 -2 3c0,-5 3,-8 4,-14 1,-12 6,-34 9,-46 2,-11 4,-21 5,-32 1,-12 1,-23 3,-35l1 4zm42 -327c-8,5 -12,15 -16,23 -5,10 -1,5 -3,12 -1,5 -4,6 -4,12 -2,7 -4,1 -5,11 -1,4 -1,27 -3,29 0,-6 1,-3 -1,-7 0,8 0,14 -1,22 0,2 -1,9 -1,10 -1,2 -1,1 -3,3 -3,9 -3,32 -7,43 -1,5 -2,34 -3,42 -1,9 -4,33 -4,40 4,-3 2,3 3,9 1,3 0,7 0,10 -1,-2 -1,-5 -3,-6 -1,2 2,9 1,13 -1,4 -4,21 -4,8 0,0 -4,13 -4,13 -1,6 1,10 0,15 6,-20 1,7 0,11 -3,14 -4,27 -6,41 -1,11 0,15 -3,25 -3,14 -3,58 -10,72 -2,5 1,9 -4,14 -2,2 -15,9 -18,10 -7,3 -8,0 -13,8 -4,5 -12,3 -17,3 -6,6 -5,2 -9,5 -4,2 3,0 -2,2 -3,2 -22,8 -24,8 0,-2 0,-6 1,-8 0,0 0,0 0,0 2,-3 0,1 1,-2 1,-4 1,-40 3,-47l0 3c1,-1 -1,-27 0,-37 1,-18 3,-35 3,-53 -1,-6 1,-4 1,-10 1,-10 0,-22 0,-31 0,-4 0,-7 0,-11 0,-6 -1,-14 -1,-21l1 1c0,-3 -1,-7 -2,-10 -2,-12 1,-18 0,-22 0,-1 -2,-15 1,-9 1,-8 -2,-13 -2,-21 0,-3 2,-19 1,-19 0,-3 -1,-5 -1,-9 -1,-4 0,-4 1,-5 1,-2 0,-7 0,-10 -1,-6 3,-9 4,-12 0,-3 -4,-22 -5,-28 -1,-12 3,-23 -8,-32 -3,-2 -5,-1 -7,-4 -8,-2 -22,6 -21,16 2,-5 5,-10 10,-10 -3,4 -4,5 -7,9 -4,5 -10,22 -10,29 -1,13 -3,25 -3,37 0,6 1,15 -1,19 -3,4 -3,11 -3,17 -1,10 2,9 -3,19 -4,6 -6,24 -6,31 -4,38 -3,38 -13,75 -2,7 -6,31 -8,36 -3,-1 -1,0 -1,-3 -1,1 -2,-1 -3,-2 -1,2 -3,1 -6,0 -10,-9 -13,1 -20,-4l-2 1c-2,0 -2,1 -3,3 -1,2 -5,1 -7,3 -3,1 -2,2 -6,3 -2,0 -2,-2 -5,0 -2,1 -9,3 -12,2 -3,3 -3,-1 -10,-1 -3,1 -2,3 -5,2 1,-3 1,-1 3,-4 -4,0 -5,-1 -8,-1 -1,-1 -1,-2 -1,-3 0,-3 2,-4 0,-7 0,0 -5,2 -4,-2 -3,-1 -5,-2 -6,-2 -7,0 2,-3 -11,-2 -2,0 -3,0 -5,1 -1,1 -3,2 -4,3 -1,1 -3,2 -4,2 -3,1 -2,0 -4,0 -6,1 -5,3 -7,5l-1 -4c-5,1 -5,0 -8,4 -3,3 -9,5 -6,-1 -5,1 -4,2 -7,6 -3,-2 -1,-2 -3,-2 -1,2 -2,3 -4,2l-1 0c0,0 -1,0 -1,0 2,-4 0,0 2,-1 0,-1 0,-1 1,-2 1,1 3,-2 5,-3 3,-1 5,-3 7,-4 2,-3 4,-7 5,-7 1,-2 -1,-1 0,-3 3,0 3,-1 4,-4 0,-5 4,-1 1,-7 0,0 0,-1 1,-1 2,1 2,-3 1,-4 0,-2 -4,-1 -1,-4 9,-8 -7,-3 2,-8 -4,-3 -2,-2 0,-5l-5 -7 2 -2c-2,-2 -4,-5 -5,-8 -1,-1 -2,-3 -3,-3 -3,-2 -2,1 -3,-2 -1,2 0,1 -2,1 0,-2 1,-1 -2,-1 -1,0 -3,0 -4,0 -3,-1 -3,-2 -5,-3l-2 3c-6,-2 -6,0 -11,-1 -6,0 -7,3 -8,3 -2,0 -6,-2 -8,1 -1,2 1,2 0,4 0,1 -2,1 -3,1 -1,1 -2,2 -3,2 -1,3 -5,7 -7,9 -2,4 -2,6 -2,10 2,1 2,-1 3,2l-5 2 0 10 2 1c0,3 -1,4 -1,6 0,4 0,2 2,3 -2,3 -2,3 0,6 2,3 1,3 3,2 -1,4 0,1 1,5 2,5 1,8 6,10 5,1 3,0 2,2 2,1 8,4 9,5 4,4 8,4 13,3 6,-2 11,2 23,1 1,-5 1,-6 3,-2 3,-2 5,-2 8,-3 9,-2 2,-1 7,0 3,-5 -1,0 4,-2 7,-3 7,-4 16,-5 3,-2 5,-4 10,-2 0,0 -1,0 -1,0 -1,1 -3,1 -3,1 2,0 4,0 6,0 -1,1 -1,2 -1,2 0,1 1,2 2,3 1,2 3,3 3,4 1,-2 2,-2 5,-1l-1 5c5,4 7,4 14,5 1,2 1,2 3,3 1,-1 1,-3 4,-2 3,0 2,-1 3,-2 2,0 5,-1 5,-1 0,0 3,-1 3,-1 2,0 6,-4 8,-4l0 2c3,-3 5,-4 6,-7l5 1c4,-5 2,-3 7,-4l2 -1c3,0 1,1 5,-1 4,-2 3,1 4,1 2,2 1,-2 2,-3l1 1c0,1 0,1 1,1 4,-4 0,0 6,-1 0,1 -3,3 0,4 3,1 0,-1 5,-1 0,1 0,0 0,2 1,2 1,1 4,2 -2,15 -7,35 -11,50 -4,14 -12,33 -13,47 0,9 -3,3 -3,11 0,5 -1,9 -2,13 -1,8 -5,16 -7,22 -6,15 -1,9 -10,13 -1,1 -3,2 -4,3l-19 10c0,-2 2,-3 3,-4 -7,1 -10,7 -15,9 0,0 0,-2 0,-2 -5,5 -14,10 -12,21 2,5 12,14 17,16l-2 -5c2,-1 7,1 8,3 1,1 -2,1 1,3l-4 0c3,1 2,1 6,2 4,0 4,3 7,6 5,2 5,3 2,8 -2,4 -4,-1 -8,13 -1,4 -4,20 -3,24 2,-3 2,-6 4,-9 0,3 -1,6 -2,8 1,1 4,3 5,3 10,-6 7,-25 12,-29l-2 8c2,-3 2,-7 3,-11 0,-3 0,-2 2,-5 1,-2 1,-3 2,-4 3,1 2,2 4,4 4,3 12,2 15,4 3,1 1,2 6,3 5,2 9,3 14,5 22,7 48,13 71,20 4,6 5,13 8,19 5,8 6,9 12,16 3,3 4,3 8,5 5,3 4,3 10,1 7,-1 6,0 10,-4 1,-2 5,-4 6,-7 -1,0 0,0 -1,0 -3,0 1,1 -1,0 0,-5 1,-4 3,-8 1,-4 1,-5 4,-8 2,-1 1,0 1,0 0,0 1,0 1,0l15 2c5,1 8,4 17,4l11 0c-2,3 -2,0 -1,2 21,5 31,2 49,3 6,1 10,2 15,3l-2 -1c-23,-6 20,3 21,3 11,1 18,-3 30,-2 3,-6 19,-5 21,-2 -4,3 -10,0 -13,3 0,0 13,0 15,0 9,0 7,-1 13,-1 12,-2 17,-3 27,-7 0,0 0,-1 -1,-1 4,-1 6,-4 9,-7 6,-5 8,-2 11,-9 2,-5 1,-6 3,-8 3,-3 4,-14 4,-15 1,-10 3,-23 1,-25l2 -13 -3 -1c-2,-5 -3,-16 -2,-22l1 7 2 0c1,-22 -1,-11 -4,-25 -1,-6 0,-4 0,-8 -1,-2 0,0 -2,-2 -2,-5 -2,-11 -3,-16 -4,-14 -4,-16 -6,-35 0,-3 -2,-8 -1,-11 1,-4 2,-1 1,-8 -2,-8 -2,-17 -4,-25l0 13c-3,-7 -3,-3 -5,-13 0,-9 -2,-3 -2,-11l4 -1 -1 -13c0,0 -1,-2 9,-7 5,-3 6,-5 7,-5 0,4 -5,6 -8,7 -1,4 -6,2 -6,4 7,2 20,-9 23,-13 6,-6 5,-5 11,-2 2,1 4,1 6,2 -5,2 -8,-1 -10,-3 0,2 3,4 6,4 3,1 4,-1 7,-2 4,1 -1,2 9,0 8,-3 12,-14 18,-17l1 1c7,-5 17,-18 24,-25 4,-4 6,-8 10,-13 2,-2 5,-9 7,-11 -1,2 -5,19 -6,23 -2,5 -2,9 -3,11 -1,20 3,19 14,7 7,-5 2,-10 6,-13 2,-1 2,-5 3,-7 3,6 -1,11 1,15 3,13 7,15 16,16 5,0 9,0 15,-1 0,-1 -4,-3 6,-4 2,0 0,1 4,2 2,0 3,0 5,0 10,-2 20,-8 28,-13 2,-1 13,-10 15,-12 7,-3 13,-6 14,-12 2,-1 7,-3 8,-3 5,0 6,1 11,-1 7,-3 9,-5 14,-9l0 1c0,1 -1,1 1,1l6 -9c3,0 6,2 11,3 8,1 20,0 29,1 3,0 5,-1 6,-2 15,-1 30,-2 45,-3 7,0 15,0 23,0 4,0 6,0 9,-3 3,-2 3,-3 8,-2 1,1 0,1 0,2 16,-3 33,-5 49,-7 0,0 0,0 0,0 0,1 29,-1 32,-3 3,-1 7,-1 11,-2 6,-1 10,3 8,-1 3,0 9,-2 12,-1 7,1 8,-1 13,-2 3,0 2,2 6,2 2,-1 3,-2 5,-2 1,-1 9,-1 12,-2 7,-2 8,1 12,0l24 -5c1,0 16,-2 29,-3 1,2 -1,-1 0,1l32 -4c0,-1 -1,1 -2,-1 2,-2 6,-4 8,-4 1,0 1,1 4,1 3,1 3,0 3,3 6,-3 0,0 5,-1 2,0 3,-1 6,-2 3,0 2,1 6,0 1,-1 4,-2 6,-1 3,0 38,-5 45,-6 9,-1 2,-1 16,-1 2,0 4,-4 8,-4 1,2 1,2 2,3 1,-1 22,-4 22,-4 3,0 7,0 10,-1 4,0 8,-1 13,-1 -2,3 -2,1 -5,2 3,2 14,-2 18,-2 3,-1 11,-2 13,-3 4,-2 1,-2 9,-1 5,1 2,1 4,2 8,2 21,-5 28,0 -2,3 -5,6 -7,7 -7,5 0,5 -4,9l-7 1c2,5 -1,2 0,6 0,4 -3,4 -2,11 0,3 1,3 1,4 1,3 0,2 2,4 2,3 4,3 6,5 -1,0 -2,0 -2,0 -1,1 0,-1 -1,1 2,1 5,2 8,3 2,1 2,1 4,2 3,1 2,1 4,1l1 -2c8,0 6,0 12,-2 6,-3 17,-3 20,-9 1,-3 4,-6 5,-9 2,1 1,1 2,3 2,-3 2,-1 2,-6 0,-5 1,-2 2,-3 1,-6 -2,-17 -7,-20l-1 4 -4 -1 2 -4c0,0 0,1 0,0 0,-1 0,0 1,-1 -7,0 -1,-2 -6,-6l2 -1 -2 -1c0,-1 1,-1 1,-2 -2,-1 -4,-1 -7,0 -1,0 -2,-2 -5,-2 -3,-1 -13,-3 -16,-1 -3,2 1,1 -2,2 -11,1 -21,-2 -31,-2 -5,1 -10,3 -14,3 -5,0 -1,-2 -6,-1 -3,1 -4,1 -7,1 0,0 4,-2 -8,-1 -2,1 -9,0 -12,-1 -13,-1 -17,6 -30,4 2,2 2,0 5,2 -4,1 -10,-2 -14,-2 -5,0 -6,3 -12,4 -4,2 -4,1 -4,-1 -3,1 -6,0 -9,0 -2,0 -3,1 -7,1 -20,3 -12,3 -31,2 -21,-1 -11,4 -17,5 -14,1 -1,0 -5,-3 -5,-3 -6,1 -10,2 -3,1 -2,0 -4,-1 -1,2 -2,3 -5,3 -8,1 -6,2 -23,3 -5,0 0,-2 -4,-2 -3,0 -10,-1 -13,1 -2,2 -5,2 -5,1 -8,0 -12,2 -19,3 -5,1 -2,1 -3,2 -2,0 -5,1 -7,1 -3,0 -1,-1 -4,-2 -4,0 -8,3 -10,3 -4,0 -4,-2 -11,0 -1,1 -15,7 -8,1 -1,0 -12,2 -14,3 -2,1 -6,3 -9,3 -5,-1 -11,0 -16,1 -5,0 -8,-1 -11,0 -3,0 -7,1 -11,2 -2,0 -8,0 -9,1 -4,2 -3,3 -9,2l0 -1c2,-1 1,2 2,-1 -4,-3 -9,1 -13,0 -6,0 0,-2 -13,2 -2,1 -4,1 -7,1 -5,1 -8,4 -18,5 1,-2 2,-1 1,-3 -12,5 -13,-2 -25,3 -4,1 -7,2 -9,2 -19,4 -19,3 -42,2 -3,0 -5,1 -8,1 -7,0 -7,-2 -14,-1 -11,1 -21,-2 -31,-1l0 2c-6,0 -7,6 -6,-2 0,0 -1,1 -2,0l0 -5c-5,0 -11,-1 -15,1 -5,4 -4,6 -3,10 -3,2 -10,6 -12,6 -4,-4 -2,-7 -10,-10l0 2c-6,-2 -5,-4 -12,-2 -14,4 -11,14 -2,22 -11,14 -34,30 -53,31 -5,1 -16,2 -21,1 -3,-4 0,0 -3,-3 -9,-9 -5,-10 -4,-17 1,0 0,-2 1,-3 0,0 -2,1 -3,0 0,-1 2,-3 2,-3 0,0 1,-2 1,-2 1,-2 0,0 0,-3 0,-9 -5,-13 -14,-2 1,-6 1,-9 5,-14 7,-26 -6,-25 -17,-12 -1,2 -3,5 -5,8 -5,6 -15,23 -16,23 -2,3 -3,3 -5,6 -2,3 -2,2 -5,4 -1,0 -7,7 -7,8 -1,1 -2,2 -2,3 -3,-3 1,-8 -4,-16 -2,-3 -1,-4 -5,-6 -8,-4 -6,-1 -13,-2 -22,-2 -18,4 -37,10 0,3 -2,6 -6,6l-2 -1c-2,3 -7,6 -10,11 -5,8 -3,5 -9,10 -5,-9 0,-13 -2,-21 -1,-4 -2,-7 -3,-11 -1,-5 -2,-3 -2,-10 1,-15 -9,-31 -8,-41 1,1 2,4 4,6 1,-10 -8,-27 -9,-32 -2,-7 -1,-10 -2,-22 0,-15 -4,-30 -5,-45 -2,-17 -3,-29 -6,-46 -2,-9 -8,-26 -6,-32l2 7c3,-7 -2,-20 -3,-29 -1,-3 0,-4 -1,-7 -1,-9 -5,-18 -7,-27 -3,-12 -6,-21 -11,-32 -1,-4 -4,-8 -5,-12l2 0c0,-5 -5,-2 -9,-11 -3,-5 -6,-8 -9,-12 5,1 7,6 10,8 -5,-8 -10,-11 -19,-11 -5,-1 -6,-1 -11,2zm-695 213c-4,-1 -3,1 -9,-2 -1,0 -2,-2 -4,-3 1,-2 -1,2 1,0 1,-2 1,1 1,-3 0,-2 -3,-5 -4,-6 -4,1 -6,1 -9,4l5 5c-1,5 0,5 2,7 7,7 1,5 1,8 1,2 1,4 1,4 0,3 2,3 2,8 1,5 4,-2 1,8 -1,3 -2,0 -1,3 1,3 4,10 4,11 2,5 0,10 1,15 0,2 2,7 2,8 0,2 -1,9 -1,11 0,2 -1,2 -1,4 6,2 -1,2 -1,5 0,5 4,7 3,12l2 0c-1,5 -4,5 -1,10 3,5 3,3 5,6 -4,4 -2,-2 -4,3 -1,1 0,3 0,6 0,9 4,4 1,14l-2 0c0,4 -3,8 0,9 1,1 2,0 3,1 0,8 1,2 -3,3 -4,2 1,5 1,6 1,3 1,0 -1,2 3,1 2,2 3,4 2,8 0,2 1,13l-2 1c-1,1 0,13 0,13 1,3 2,6 2,7 3,10 -4,2 0,13 -4,5 1,5 1,11 -2,0 -3,0 -3,-2 -1,3 1,8 2,10 2,5 0,2 -1,8 0,10 0,5 -1,10 -1,3 0,6 -1,11 1,1 2,2 2,4 0,3 -1,1 -1,1 -2,0 1,-1 -2,-1 -2,1 -1,3 -1,5 0,5 -1,1 -1,4 0,0 1,9 1,10 2,11 0,7 -1,9 1,0 1,0 2,1 0,3 -2,3 -3,4 -2,-2 1,-2 -1,-2l-1 8c0,3 1,5 2,8 -2,4 -1,2 -4,4l1 8c-3,2 -1,1 -1,6 -4,2 -3,2 -5,6 -1,4 -3,4 -3,7 -1,4 -4,10 -7,14 1,1 3,4 2,6 -2,-1 0,-2 -3,-2l1 3c-3,0 -2,1 -3,-1 -2,0 -1,3 -2,1 0,0 0,0 0,0 0,-1 -1,-5 -8,-6 0,-2 0,-2 -3,-4 -5,-5 -5,-5 -8,-11 -1,-2 0,-2 -1,-3 0,-1 0,0 0,-1 -3,-3 -1,0 -1,-4 -1,-2 -4,-6 -4,-9 1,-2 2,-1 3,-4 1,-7 -1,-11 -3,-18 -3,-7 -1,-4 -1,-11 0,-5 0,-10 0,-15 -2,-1 -5,-3 -3,-5 1,-2 1,0 2,-3 0,-1 0,-3 0,-4l-4 -1c3,-4 1,-10 0,-13 -2,-6 2,-9 -2,-12 2,-3 2,0 2,-6 0,-6 0,-4 1,-7l-5 -4c2,-4 2,1 3,-5 1,-2 1,-4 2,-7 0,-2 -1,-5 0,-6 1,-5 1,-5 0,-10 0,-1 0,-2 0,-3 -1,-2 -1,-5 -1,-6 -1,-3 -2,-1 -1,-5l0 -1c0,0 0,-1 0,-1 0,-4 -1,1 1,-2 -1,-4 -5,-4 0,-9l-2 -3c2,-2 1,1 2,-2 0,-4 -3,-6 1,-9l-1 6 4 -1c-1,-4 -2,-5 -2,-10 1,-10 -1,-12 -1,-3l-1 -1c0,0 0,0 0,-1 -1,-2 -1,-2 -2,-4 4,-7 6,-3 4,-13 -1,-5 -2,-11 -4,-16 1,-2 1,0 3,-3 2,-4 -1,-8 -2,-12 -4,-7 -2,-10 -2,-18 -1,-5 -3,-11 -4,-16 -1,-8 1,-14 -4,-16 3,-5 3,-10 5,-16 1,-6 2,-3 3,-9 0,0 0,0 0,0 0,-5 -3,-2 2,-7 3,-3 1,-4 1,-4 0,0 -2,1 -1,-2 3,-8 9,-6 5,-11 -2,-2 -1,0 -3,-1 -2,-1 -4,-3 -7,-2 -3,0 -3,3 -3,6 -2,3 -1,0 1,3l-3 1c0,2 1,3 0,5 -2,2 -2,0 -1,3 -6,4 -1,9 -5,11 -1,0 -1,-1 -1,-2 -1,-5 -5,-3 -1,-8 2,-2 0,-4 -2,-6 -3,-3 -1,0 -7,0 -7,0 -5,7 -4,9 2,6 5,5 2,6 -2,2 2,5 4,8 1,1 2,5 1,7l3 2 -1 5c0,6 1,1 2,7 0,2 0,2 0,4 -3,-2 -1,-4 -5,-4 0,1 -1,3 -1,4 1,4 0,1 2,3 2,3 -2,2 -4,3 1,5 3,2 3,6l-3 -1c0,3 1,2 1,4 0,1 -1,1 -3,2l0 8c-2,3 1,-2 -1,1 -1,1 -2,4 -2,5 -1,2 -4,5 -4,7 0,1 1,2 1,3l-1 4c0,3 0,5 -2,7l1 3c-2,3 -2,7 -4,10 -1,3 -1,2 -2,4 0,3 0,4 0,6 -3,2 -6,3 -3,7 -1,2 0,1 -2,3 1,1 3,0 1,3 -2,3 -1,1 -4,5 -1,3 0,4 -2,7l-1 1c-2,3 -2,6 -2,9 3,1 3,-1 3,2 -2,1 -2,0 -4,2 -2,0 -2,2 -2,4 -2,8 -1,5 1,10 -1,2 -4,4 -4,7 1,2 1,-1 1,2 -6,3 0,8 -4,14 -5,8 -4,2 -4,13 0,0 -1,0 -1,0 0,3 -1,5 -2,7 -1,3 1,1 -1,3 -3,3 -2,4 -3,8 -1,5 0,2 0,6 -1,8 -8,16 -9,22 1,2 3,2 3,5l-3 0c0,6 -2,9 -3,15l-1 1c0,0 0,0 -1,0 0,3 0,2 2,4 -4,2 -2,-1 -3,4 -1,4 0,8 -1,11 -1,3 -1,1 -1,2 -3,5 1,3 -3,5 0,3 1,1 0,3 0,5 -1,6 -2,7 -1,3 1,16 -1,11 0,-1 0,-1 0,-3 -2,2 1,5 0,9 -2,3 -2,-1 -3,5 0,2 0,5 -1,6 2,2 1,-1 4,4 -2,1 -4,1 -6,2 0,3 2,3 1,7 -3,11 4,3 -5,10 2,4 3,2 1,6l3 2c-1,4 -2,1 -2,5 -1,1 -1,1 -2,2 0,4 0,3 -2,5l1 1c-2,2 0,5 -2,8 -3,-2 0,-1 -3,-2l1 5c0,5 2,6 -3,10 -2,1 1,6 -1,8 0,1 -3,9 -3,10 0,2 0,3 0,5 0,6 -5,2 1,7 -1,1 -2,0 -3,2 2,2 2,1 2,2 -1,5 -1,3 -3,3 -1,2 -1,2 -2,4 -2,2 1,1 -1,5 0,1 0,2 -3,3 -1,4 1,3 0,6 0,1 -1,2 -2,4 0,2 0,4 1,6 4,8 0,0 -1,5 0,1 0,1 -1,2 0,0 1,1 2,1 0,0 3,-3 4,-3 2,-3 1,-1 2,-7 -5,-3 -1,1 0,-5 0,-3 1,-4 2,-6 1,-6 0,2 2,-4 1,-2 4,0 1,-3 0,-4 0,-4 2,-7 3,-4 -2,-8 3,-5 -1,-6 1,0 1,-5 0,-4 -2,-3 1,-7 0,0 0,-1 0,-2l2 -1c-2,-5 0,1 0,-4 0,-4 -3,-2 1,-9 1,-2 2,-5 1,-8l1 -2c2,-2 3,-3 4,-5 0,0 0,0 0,0 0,-1 1,-1 1,-2 -1,-1 -1,2 -1,-2l3 0c1,-3 0,-6 -1,-8 0,0 0,-1 0,-1l5 -3c-1,-1 -2,-3 -2,-4 -2,-2 -3,-1 -3,-4l5 0c2,-3 1,-7 0,-10 2,-2 4,-1 6,-4 2,-2 0,-3 -3,-4l1 -3c2,0 2,2 4,1 2,-1 -1,-2 -1,-3l1 -1c-3,-2 -1,-1 -1,-3 -1,-2 -4,-4 1,-7 3,-2 3,-1 4,-4 -3,-3 -2,1 -5,0l0 -4 5 1c1,-3 0,-5 -1,-7 -1,-4 1,-3 3,-4 -1,-6 -1,-2 1,-6 -1,-3 -2,-1 -3,-4 2,-1 2,-1 4,0 0,-4 -1,-4 -2,-7 0,-2 1,-1 2,-5 1,-4 2,-3 3,-5 0,-1 0,-5 1,-6 -1,-1 -2,-2 -2,-4 3,1 1,1 4,1 1,-6 -1,-1 2,-5 0,-3 -1,-7 -1,-10 -1,-2 -1,-3 1,-4 4,-2 1,0 3,1 0,-3 1,-3 0,-6 0,-2 -1,-4 -1,-5 8,-5 2,-4 3,-10 2,-2 2,0 4,-4 1,-3 2,-2 2,-4 1,-1 1,-3 2,-5 1,-2 1,-3 2,-5 0,-1 -2,-2 -3,-3 1,-1 1,0 3,0 -1,-1 -2,-1 -2,-3 5,-2 2,1 6,-1 -1,-6 -1,2 -2,-3 2,-2 3,-1 4,-4 0,-3 0,-5 -1,-6 4,-5 0,-6 2,-12l2 -2c0,0 0,-1 0,-1 4,-8 -3,2 3,-3l-2 -8c2,-1 5,-2 6,-6 1,-3 -1,-7 0,-11 3,-2 2,-3 4,-7 3,-8 0,-1 0,-8 1,-1 2,1 4,-2 1,-3 -1,-1 -2,-3 1,-2 2,-3 2,-6 1,-5 0,-3 2,-6l1 -3c2,-2 3,-4 4,-8l-4 -3c1,-1 3,-1 5,-3 0,-2 1,-4 1,-7 2,0 2,-2 2,-4 0,-2 0,-5 0,-6 -1,-3 -2,-2 -1,-5 3,-14 4,-11 7,-17 0,-1 1,-2 2,-2 4,3 2,7 4,12 2,7 3,4 4,10l-1 2c-1,-1 0,0 -1,-2 -1,-2 0,-2 -2,-3 -4,-1 -1,7 -1,10 2,0 5,-1 3,4 0,2 -2,1 -3,5 1,4 4,1 4,6l-3 0 2 5c-1,1 1,0 -1,0 0,0 0,-1 -1,0l2 3c-3,1 -2,1 -2,4 1,3 3,9 2,11 -2,2 -2,-1 -2,5 0,4 0,8 -1,12 -2,7 2,6 -1,8l2 1c-1,2 -1,1 -1,3 1,5 2,9 0,14 -2,5 3,2 1,7 -1,6 0,13 -2,19 -2,5 -1,3 -1,8 0,6 3,3 0,8 -4,10 1,7 2,12 1,4 -1,2 -2,5 3,1 -1,-2 2,0 1,5 -1,6 -1,8 0,1 1,3 1,4 1,3 0,0 -1,3 1,3 1,-2 1,6l0 4c0,2 0,1 0,3 0,5 1,9 2,14 0,-3 6,-2 1,2 -3,3 0,16 1,19 0,4 0,2 2,4 2,2 1,4 1,6 0,5 -2,7 2,11 -2,4 -2,5 1,10 5,6 4,6 7,5 0,5 1,5 3,9 2,2 3,6 4,8 5,9 13,6 16,10 2,0 -1,0 -1,2 5,1 11,-1 14,-2 6,-4 6,-7 9,-9 4,-3 5,-5 7,-10 1,-4 3,-8 3,-12 0,-5 5,-20 7,-25 1,-3 4,-10 4,-13 0,-3 -7,-11 -1,-8l3 -28c1,0 1,0 1,0 1,-2 0,-5 -1,-6 2,-3 2,1 2,-4 0,-4 0,-3 0,-5 0,-3 -1,-5 0,-10 1,-4 0,0 0,-4 -1,-5 1,-5 1,-9 0,-5 -1,-2 1,-5 1,-3 0,-2 0,-4 -1,-2 0,-1 0,-4 0,-2 -1,-3 -1,-5 1,-4 1,-1 2,-4 3,-18 -4,-24 -2,-29 1,-5 1,2 1,-4 0,-5 -1,-10 -1,-14 -1,-1 0,3 -4,-3 0,-5 2,-2 3,-6 0,-1 -1,-5 -1,-7 0,-2 -1,-1 -1,-3 0,-2 2,0 0,-6 -3,-8 2,-18 -2,-22 -4,1 -2,-4 -2,-7 0,-1 0,-1 -1,-2 -2,-4 3,1 1,-9 -1,-2 -1,-3 0,-5 0,0 0,0 -1,0 -1,-1 0,0 -1,-1 2,-3 -1,-8 -1,-13 4,1 0,1 3,2 0,-3 -2,-6 -3,-9 0,-1 0,-3 -1,-4 -1,-5 0,-2 -2,-5l2 -6c1,-5 -3,-8 -2,-13 1,-8 -2,-8 -2,-10 0,-5 1,-4 -1,-10 -3,-8 0,-9 -1,-15l-1 1c-5,1 -2,-1 -1,-3 0,-1 0,-2 0,-3 13,8 15,0 23,1 -1,2 -3,2 0,3 5,1 2,-1 5,2 1,-1 2,0 2,1 2,0 7,-1 7,-4 -2,-1 -5,1 -7,1l-1 -2c-5,2 0,0 -5,-2 -3,-1 -2,-2 -4,-2 -4,0 -4,-1 -7,-1 -9,5 -1,-1 -5,-1zm101 103c3,1 2,4 7,1 3,4 -4,2 8,7 0,5 -5,13 -8,16 -6,7 -12,5 -15,10 -2,-1 -2,-1 -4,2 -2,0 -3,-1 -6,-1 -7,-2 -2,4 -9,1 -5,-1 -3,1 -7,0 0,-2 0,-2 -1,-4 -1,-1 -1,0 -2,-3 0,-2 1,-1 1,-2 2,-4 1,-2 3,-3 0,-3 -2,-3 0,-5 2,-1 3,-1 5,-3 3,-3 1,-5 5,-5 -1,4 -3,0 -1,5 2,1 3,-4 3,-5 1,-1 3,-2 6,-2 2,-1 3,-1 0,-3 0,-1 -1,-3 0,-4 3,1 4,4 8,3 3,-1 5,-3 7,-5zm60 -72l5 0c1,-4 -2,-9 -1,-13 2,-3 1,1 2,-4 1,-3 0,0 -1,-3 3,-1 1,-2 2,-4 0,3 2,4 2,7 -1,4 -1,3 0,7 1,1 1,3 1,3 0,1 4,5 2,5 -3,0 1,-1 -3,0 -1,4 1,1 -1,6 0,1 1,4 1,6 1,4 2,8 3,13 -4,3 -3,3 -5,0 0,6 -1,7 2,13 -3,5 -1,2 -4,4l0 6c-6,3 0,1 -1,6 -2,1 -2,-1 -3,2 -1,1 0,7 -2,8l-1 -8c0,-7 -4,-5 1,-10 5,-5 -2,-4 1,-6 -1,-3 0,-4 -1,-4l-3 -6c2,-4 2,-3 2,-10 -1,-2 2,-4 2,-8 0,-4 0,-8 0,-10zm22 27c0,-8 1,-15 1,-23 0,-3 2,0 1,-5 -1,-3 -2,0 -1,-2 0,-2 1,1 1,-2 0,-2 -1,-2 -1,-4 0,-2 0,0 0,-2 -1,-4 -3,-5 -2,-12 -1,0 1,1 -2,0 0,-1 0,-2 -1,-3 -1,-3 0,-6 -3,-8 -3,-3 -4,-2 -7,-7l-8 -1c-1,2 -2,3 -3,5 -1,5 -4,5 -4,11 0,5 -2,2 -2,6 0,5 2,11 0,16l0 0c-1,2 0,3 0,5 0,6 -1,3 -2,3l-1 15c1,3 0,0 3,4 -1,2 -3,0 -4,2l1 4c0,2 0,5 0,6 0,3 -1,1 0,6 0,2 1,4 1,7 -2,1 -3,1 -4,3 0,3 2,1 2,5 0,5 0,-2 -1,2 0,2 0,1 0,3 1,-3 1,-2 3,-1 0,5 -2,2 -1,9l-3 1c1,1 1,3 1,5 0,3 0,2 -2,3 2,2 2,0 2,2 -3,2 0,1 -4,2 1,4 1,2 1,4 -3,2 -8,5 -8,13 -1,0 -1,0 -2,1 -1,0 -1,1 -2,2 -6,14 -6,8 -9,14 -2,1 -3,-1 -4,4 -1,3 -1,6 -4,7 0,0 0,0 0,0l-5 1c-5,2 -6,7 -9,12 -2,2 -8,4 -10,5 -1,0 -5,1 -5,2 -2,0 -2,2 -4,3 0,0 0,0 0,0l-1 -1c0,-1 -1,-1 -4,-1 0,1 0,2 -1,3 -2,-3 -5,-2 -8,-4 -2,-2 0,-1 -1,-3 0,-1 -2,-2 -2,-2 2,-1 1,-2 0,-5 -1,-1 -1,-4 -1,-4l-5 -2c1,-4 2,1 3,-6 0,-1 0,-6 1,-6 3,-2 1,0 3,0 2,0 1,0 3,-2 1,3 -2,1 1,3l1 -3c2,1 0,0 2,1 3,2 4,0 7,0 4,1 3,2 5,1 3,-1 0,-1 4,-1 8,1 5,0 10,-2 4,-2 3,-2 9,-3 1,-3 0,-5 2,-7 3,1 1,1 2,4 0,-1 2,-5 2,-5 1,-1 -1,1 1,0l2 -3c3,-4 2,0 4,-2 2,-3 -1,-1 1,-5l3 0c1,-3 0,-5 1,-8 0,-3 1,-12 -4,-12 -6,0 -2,-1 -3,-3 3,0 3,1 1,-1 -1,-1 -1,-1 -2,-1 -2,-1 -3,-3 -2,-3 4,1 2,3 6,2l1 -1c-1,-4 -8,-6 -12,-7 -2,2 -2,5 -5,2 -2,-1 -2,-3 -5,-3 -2,1 -2,2 -4,3 0,0 -7,1 -6,-1 -3,0 -3,0 -4,2 -2,-1 -2,-1 -4,0l-9 7c-2,3 0,0 -3,0l-13 12c-3,4 0,5 -2,5 0,0 -1,5 -2,6 0,2 0,3 -1,5 -2,9 -1,3 -3,11 0,2 -1,2 -2,14 -1,6 -1,8 0,14 1,4 1,1 3,3 0,4 -3,9 3,12 4,1 -2,2 5,3 3,4 0,-1 5,5 5,4 0,4 10,4 1,2 1,3 3,1 2,-1 -1,0 3,-1 0,0 2,0 3,0 3,0 3,-1 5,0 1,0 -1,0 2,0 4,-1 7,-3 10,-6 4,-2 2,0 1,-2 -1,-3 0,-1 2,-4 3,1 1,2 3,2 0,0 1,0 1,0 2,0 3,-1 4,-2 14,-11 6,-12 13,-17 6,-4 6,-3 5,-7 5,-1 3,0 6,-4 3,-6 3,-4 1,-7 6,-1 2,-1 5,-3 2,2 1,4 0,7 -1,4 1,6 -1,10 -1,4 0,6 0,10 0,4 -2,4 -2,8 2,1 6,-1 1,3 -1,2 0,2 2,3 -1,4 -1,2 -1,6l-2 -2 1 5c0,0 0,-1 -1,-1 0,-1 0,-1 -1,0 -1,1 -2,3 -2,4 1,2 1,8 -2,9 -1,3 -1,4 -1,7 1,3 0,4 -1,7 -2,5 2,9 3,14 0,0 0,0 0,0l-3 0c0,1 0,2 0,3 -1,3 -1,0 -2,2 4,3 0,-1 5,-1 1,-5 1,-3 3,-5 0,-3 2,-6 -1,-7 -2,-1 -3,-2 0,-3 4,-1 2,0 1,-4 0,0 0,-1 1,-2l0 -4c0,0 0,0 1,0 0,-3 0,-2 0,-6l3 2c-1,-3 -1,-6 2,-7 -3,-2 -4,0 0,-10 3,-8 0,-8 3,-9 0,-3 -1,-2 -1,-3 1,-4 1,2 1,-3 1,-2 0,-3 0,-6 -1,0 -7,0 -1,-3 2,-1 2,-1 2,-4 0,-1 1,-2 2,-2 -1,-5 -1,0 0,-5 0,-5 0,-4 -1,-6 0,-5 1,-7 2,-11 1,-3 1,-6 1,-9 1,-5 0,-5 3,-4 1,-4 3,-6 5,-9 1,-2 1,-3 2,-4 7,-5 4,-5 7,-12 3,-4 2,-3 2,-4 0,-3 1,0 0,-3 1,-2 12,-31 13,-32 -1,-3 -6,-6 -2,-7 4,-1 -1,1 1,0zm32 21c1,-1 2,-2 4,-2 9,0 -1,-2 8,-4 1,0 2,-1 4,-1 4,-1 9,-1 7,3 9,1 -2,0 3,7 0,2 -1,1 -2,3 0,2 0,4 -1,5 -3,4 -3,-2 -2,6l-4 0c0,4 2,0 -1,6l-4 -1c1,4 2,3 5,5 1,1 5,4 6,3 2,-2 2,-1 1,-3 2,-1 2,-3 4,-4 1,-2 3,-2 3,-3 1,-3 0,-1 2,-2 -1,-3 -1,-1 1,-4 3,-4 0,-4 2,-4 0,0 -1,-5 0,-6 1,-1 -3,-2 -2,-4 2,1 3,3 5,2 1,0 0,-2 0,-4 -7,-2 -2,-2 0,-5 -3,-1 0,-2 -1,-3 -3,-2 -3,1 -2,-3 0,-1 2,-2 0,-3 -4,-2 -2,3 -6,-2 -8,-1 -4,-6 -9,-2l-1 -1c-3,0 -5,1 -9,1 -1,5 -14,3 -15,7 0,0 -3,2 -5,2 -1,2 -1,1 -3,2 -2,4 -3,2 -4,4 -1,1 -1,3 -2,5 1,1 2,1 3,2 0,0 0,0 -1,0 -5,1 -5,1 -4,8l2 2c0,2 -1,2 -1,5l1 1c0,1 -1,2 0,3 2,3 1,1 3,2 -1,1 -1,2 -1,4 1,7 5,13 8,18l0 9 2 1c0,0 2,0 2,0 -1,4 -3,-1 -1,4 3,5 2,4 2,6l1 2c1,2 2,2 1,4 0,0 -1,1 -1,1 -1,2 0,6 0,7 -1,6 -1,6 -4,6l-5 -1c-3,0 -4,-1 -8,0 -3,-5 0,-2 -3,-6 -4,-5 -2,-1 -6,-7 -4,-2 -1,0 -3,-4l-2 -2c2,-6 0,-3 4,-6l0 -2c0,-2 1,-1 4,0 2,-4 -1,-1 3,-3 0,-3 0,-4 2,-5 4,2 3,0 3,-3 -3,0 0,0 -2,1 -1,0 -3,-1 -7,0 -2,3 0,3 -3,5 -4,1 0,-1 -4,0 -1,2 -1,3 -3,4 -4,2 2,3 -3,4 0,0 -1,0 -1,4 0,1 0,1 -1,2 2,4 0,0 1,3 0,0 1,3 2,4 2,3 4,4 4,5l1 3c1,2 0,2 2,3l1 0c-1,2 -1,1 -1,3l5 0c1,5 11,8 15,10 1,-2 1,-1 3,0 2,0 8,0 8,-2 1,-1 7,-5 7,-5 2,-3 1,-5 2,-6 6,-10 -2,-4 4,-8l-4 -3c1,-1 3,-5 3,-6 0,0 0,-6 -3,-10 -2,-3 -3,-1 -4,-3 4,-4 0,-6 -1,-9l0 -2c0,-2 0,-4 0,-5 -1,-7 -2,-6 -5,-12 -2,-3 -3,-5 -4,-7 0,-1 0,-1 1,-3l-3 -3c0,-3 0,-6 2,-9l5 -4z"/>
 </g>
</svg>
