<?xml version="1.0" encoding="utf-8"?>
<!-- Generated by IcoMoon.io -->
<!DOCTYPE svg PUBLIC "-//W3C//DTD SVG 1.1//EN" "http://www.w3.org/Graphics/SVG/1.1/DTD/svg11.dtd">
<svg version="1.1" xmlns="http://www.w3.org/2000/svg" viewBox="0 0 36 42">
<path fill="#444444" d="M29.25 3q2.789 0 4.77 1.98t1.98 4.77v22.5q0 2.789-1.98 4.77t-4.77 1.98h-16.992q1.992-2.859 2.531-4.922 0.211-0.797 1.242-4.898 0.492 0.914 1.723 1.57t2.637 0.656q4.242 0 6.926-3.457t2.684-8.754q0-1.969-0.82-3.809t-2.262-3.258-3.574-2.273-4.617-0.855q-2.438 0-4.559 0.668t-3.586 1.793-2.52 2.566-1.559 3-0.504 3.105q0 2.391 0.926 4.219t2.73 2.578q0.305 0.117 0.551 0t0.34-0.445q0.234-1.031 0.352-1.43 0.141-0.539-0.258-0.984-1.172-1.453-1.172-3.516 0-3.516 2.426-6.012t6.34-2.496q3.492 0 5.449 1.898t1.957 4.922q0 3.938-1.582 6.703t-4.066 2.766q-1.406 0-2.273-1.020t-0.539-2.426q0.187-0.797 0.621-2.168t0.691-2.391 0.258-1.746q0-1.148-0.621-1.91t-1.77-0.762q-1.43 0-2.426 1.324t-0.996 3.27q0 1.688 0.562 2.836l-2.297 9.703q-0.562 2.344-0.164 5.953h-4.289q-2.789 0-4.77-1.98t-1.98-4.77v-22.5q0-2.789 1.98-4.77t4.77-1.98h22.5z"></path>
</svg>
