<?xml version="1.0" encoding="utf-8"?>
<!-- Generated by IcoMoon.io -->
<!DOCTYPE svg PUBLIC "-//W3C//DTD SVG 1.1//EN" "http://www.w3.org/Graphics/SVG/1.1/DTD/svg11.dtd">
<svg version="1.1" xmlns="http://www.w3.org/2000/svg" viewBox="0 0 36 42">
<path fill="#444444" d="M30 14.297q-1.313 0.586-2.836 0.797 1.594-0.937 2.18-2.742-1.523 0.891-3.141 1.195-1.43-1.547-3.586-1.547-2.039 0-3.48 1.441t-1.441 3.48q0 0.68 0.117 1.125-3.023-0.164-5.672-1.523t-4.5-3.633q-0.68 1.172-0.68 2.484 0 2.672 2.133 4.102-1.102-0.023-2.344-0.609v0.047q0 1.758 1.172 3.129t2.883 1.699q-0.68 0.187-1.195 0.187-0.305 0-0.914-0.094 0.492 1.477 1.746 2.438t2.848 0.984q-2.719 2.109-6.117 2.109-0.609 0-1.172-0.070 3.469 2.203 7.547 2.203 2.625 0 4.922-0.832t3.938-2.227 2.824-3.211 1.758-3.797 0.574-3.949q0-0.422-0.023-0.633 1.477-1.055 2.461-2.555zM36 9.75v22.5q0 2.789-1.98 4.77t-4.77 1.98h-22.5q-2.789 0-4.77-1.98t-1.98-4.77v-22.5q0-2.789 1.98-4.77t4.77-1.98h22.5q2.789 0 4.77 1.98t1.98 4.77z"></path>
</svg>
