<?xml version="1.0" encoding="utf-8"?>
<!-- Generated by IcoMoon.io -->
<!DOCTYPE svg PUBLIC "-//W3C//DTD SVG 1.1//EN" "http://www.w3.org/Graphics/SVG/1.1/DTD/svg11.dtd">
<svg version="1.1" xmlns="http://www.w3.org/2000/svg" viewBox="0 0 33 42">
<path class="user" d="M33 32.93q0 2.812-1.711 4.441t-4.547 1.629h-20.484q-2.836 0-4.547-1.629t-1.711-4.441q0-1.242 0.082-2.426t0.328-2.555 0.621-2.543 1.008-2.285 1.453-1.898 2.004-1.254 2.613-0.469q0.211 0 0.984 0.504t1.746 1.125 2.531 1.125 3.129 0.504 3.129-0.504 2.531-1.125 1.746-1.125 0.984-0.504q1.43 0 2.613 0.469t2.004 1.254 1.453 1.898 1.008 2.285 0.621 2.543 0.328 2.555 0.082 2.426zM25.5 12q0 3.727-2.637 6.363t-6.363 2.637-6.363-2.637-2.637-6.363 2.637-6.363 6.363-2.637 6.363 2.637 2.637 6.363z"></path>
</svg>
