<?xml version="1.0" encoding="utf-8"?>
<svg version="1.1" xmlns="http://www.w3.org/2000/svg" viewBox="0 0 160.9 471.7">
<style type="text/css">
	.st0{fill:#EBEBEF;}
</style>
<g>
	<path class="st0" d="M116.4,418.1c-0.8-1.3-1.6-2.6-2.9-3.6s-3-1.7-5.4-2.2s-5.5-0.7-7.7-0.7s-3.5,0.3-5.5,1.2
		c-2,0.8-4.7,2.2-6.7,3.8s-3.4,3.3-4.2,4.5c-0.8,1.1-1.1,1.6-0.8,1.7s1.1-0.3,1.3,0s0,1.2,0.3,1.8c0.2,0.7,0.9,1,1.6,2.7
		c0.7,1.6,1.3,4.7,2,7.6s1.5,5.8,1.9,8.3c0.3,2.5,0.2,4.7,0,6.8s-0.6,4.1-0.5,6.3c0,2.2,0.5,4.6,1.2,6.8c0.7,2.1,1.6,4,2.3,5.4
		c0.6,1.4,0.9,2.3,1.5,2.7c0.6,0.5,1.4,0.5,3.5,0.5c2.1,0,5.5,0,7.9,0s3.7,0.1,4.7-0.5s1.7-1.6,2.2-3.6c0.6-2,0.9-4.8,0.9-7.5
		s-0.4-5.2-1.1-7.8c-0.6-2.7-1.6-5.3-2.2-7.7s-0.8-4.4-1-6.9s-0.3-5.6-0.6-7.9c-0.3-2.3-0.7-3.8-1.2-5.2s-1.2-2.6-2.5-3.7
		c-1.3-1.1-3.1-2.1-4.8-2.7c-1.6-0.6-3.1-0.8-4.2-0.7c-1.1,0.2-1.9,0.7-2.4,1s-0.7,0.5-1.1,0.8c-0.5,0.1-1.3,0.1-1.8,0.1
		s-0.8-0.1-0.4-0.6c0.4-0.6,1.5-1.6,3.3-2.6s4.3-1.8,6.3-2.1c2-0.2,3.6,0.1,5.2,1c1.6,0.8,3.3,2.2,4.6,3.9s2.3,3.8,3,5.6
		c0.6,1.8,0.9,3.4,1.1,4.9s0.3,2.8,0.6,3.6c0.3,0.7,0.6,0.9,1,0.8c0.4-0.1,0.7-0.7,1.2-1.9c0.4-1.3,1.1-3.3,1.3-5.1
		c0.2-1.8,0.1-3.5-0.3-4.9C117.7,420.5,117.1,419.3,116.4,418.1z"/>
	<path class="st0" d="M86.1,449c-0.9-0.2-1.6-0.4-2.4-0.3c-0.7,0.1-1.3,0.5-2.2,0.7s-1.9,0.1-2.7,0.4c-0.8,0.3-1.3,0.9-1.8,1.6
		s-0.8,1.5-1.3,2.2s-1.1,1.2-1.7,2.1c-0.6,0.9-1.1,2.1-1.5,3.4c-0.4,1.3-0.8,2.7-0.8,3.6c0,0.9,0.4,1.4,0.9,1.4s1.1-0.4,1.8-1.1
		s1.5-1.6,2.2-2.6s1.1-2,1.4-2.8c0.3-0.8,0.3-1.5,0.1-1.8c-0.2-0.4-0.6-0.5-0.8-0.7s-0.1-0.5,0.5-1.1s1.7-1.4,2.9-2s2.6-0.9,3.9-1.1
		c1.2-0.2,2.3-0.3,2.9-0.5c0.8-0.2,1-0.5,0.7-0.7C87.9,449.4,87,449.2,86.1,449z"/>
	<path class="st0" d="M119,322.8c0.1-0.7-0.1-1.7-0.3-2.6c-0.2-0.9-0.3-1.6-0.9-2s-1.7-0.4-3.5,1.3c-1.8,1.8-4.3,5.2-5.8,7
		s-2,1.9-2.4,1.6s-0.6-1,0.2-2.6c0.8-1.6,2.6-3.9,3.2-5.2c0.7-1.3,0.2-1.7-0.9-1.6s-2.7,0.5-3.9,1c-1.1,0.5-1.6,1.1-2.1,1.1
		c-0.5,0.1-0.9-0.4-1.7-0.7c-0.9-0.3-2.2-0.5-3.4-0.2c-1.2,0.3-2.4,0.9-3.2,1.1s-1.3-0.1-3.3,1.8c-2,2-5.4,6.2-7.1,8.6
		c-1.7,2.4-1.7,3.1-1.5,4s0.7,2,1.2,3s1,2,1.5,3c0.9,1.3,1.4,2.6,2.5,2s2.9-3,4.9-5.3c2.1-2.3,4.5-4.4,6.3-5.6
		c1.8-1.1,2.8-1.3,4.5-1s4,1.1,5.6,1.5c1.6,0.5,2.5,0.6,3.5,0.8s2.3,0.5,3.3-0.3c1-0.7,1.9-2.5,2.6-3.8s1.1-2.3,1-3.1
		c-0.1-0.8-0.7-1.4-0.8-2C118.4,324.1,118.9,323.6,119,322.8z"/>
	<path class="st0" d="M67,350.2c1.6,0.4,3.5,0.6,5.3,0.3c1.8-0.3,3.6-1.1,5.2-2c1.5-0.9,2.9-2.1,3.7-3.1s1-1.9,0.7-2.8
		c-0.2-0.9-0.8-1.7-1.3-2.4s-0.8-1.2-0.7-1.7c0.1-0.6,0.7-1.1,0.9-2s0.1-2-0.2-2.4s-0.8-0.2-1.6,0.3c-0.6,0.4-1.2,0.8-2,1.5
		c-0.7,0.6-1.5,1.5-2.4,2s-2,0.6-3,0.7c-1,0-2.1,0.1-3.6,0.9s-3.5,2.3-5,3.4c-1.5,1.2-2.5,1.9-3,2.6c-0.5,0.6-0.6,1.1-1,1.8
		c-0.4,0.7-1.1,1.6-1.4,2.1s-0.2,0.7,0.2,0.4c0.4-0.3,1.1-1.2,1.7-1.6c0.5-0.5,1-0.5,1.5-0.4c0.6,0.1,1.3,0.3,2.2,0.8
		C64.2,349.1,65.4,349.8,67,350.2z"/>
	<path class="st0" d="M8.6,218.2c0.5,1.4,0.7,3.9,0.7,7.9c0.1,4,0,9.5,0.3,13.3c0.2,3.8,0.7,5.9,0.9,8c0.1,2.1-0.2,4.3-0.1,5.8
		c0.1,1.5,0.6,2.4,1.4,2.9c0.8,0.5,1.8,0.7,2.8,0.4s2.1-1.1,2.6-1.9c0.4-0.8,0.2-1.5,0.3-2.2s0.4-1.3,1-1.2c0.5,0.1,1.2,0.9,1.7,0.9
		s0.7-0.9,0.9-2.9c0.3-2,0.5-5.2,1-7.1c0.4-1.8,0.9-2.3,1.5-3.3s1.2-2.7,1.6-4.1c0.5-1.4,0.8-2.6,1.4-3.7c0.6-1.1,1.5-2.2,2.2-4.1
		c0.7-1.8,1-4.5,1.2-6.3c0.2-1.9,0.2-2.9-0.3-2.9s-1.3,1.1-2,1.7s-1.3,0.7-1.3-0.5s0.5-3.7,0.6-5s-0.2-1.3-0.7-0.7
		c-0.4,0.6-1,1.9-1.6,2.2c-0.5,0.3-1.1-0.5-1.9-0.8c-0.8-0.4-1.9-0.4-2.6-0.7s-1.1-0.7-1.4-1.4c-0.3-0.8-0.4-1.9-0.8-2.4
		c-0.5-0.6-1.3-0.6-2.1-0.1s-1.6,1.5-2.4,1.9c-0.7,0.4-1.3,0.2-1.7-0.4c-0.3-0.6-0.4-1.6-0.3-2.6s0.5-1.9,0-1.9s-1.7,0.9-2.4,0.8
		c-0.8,0-1.1-1-1.4-1.6c-0.4-0.6-0.9-0.9-0.8-1.8c-0.1-1.1,0.5-2.6,0.3-2.8c-0.2-0.2-1.2,1-1.6,3.1c-0.4,2.1-0.3,5.1,0,12
		s0.6,17.7,0.8,19.8c0.3,2.1,0.3-4.4,0.4-9.2c0-4.9,0-8.1,0.3-9.5C7.4,216.4,8.1,216.8,8.6,218.2z"/>
	<path class="st0" d="M160.3,161.8c-0.5-1.1-1.4-1.8-2.3-1.8c-0.9-0.1-1.9,0.5-3,1c-1.1,0.5-2.3,0.9-2.3,0.5c0-0.5,1.2-1.7,2.1-2.8
		c0.9-1,1.4-1.8,1.1-1.8c-0.4,0-1.6,0.9-2.9,1.6c-1.2,0.7-2.5,1.3-3.3,1.4c-0.9,0.1-1.4-0.3-1.4-1c-0.1-0.7,0.3-1.8,1.2-2.5
		c0.9-0.7,2.2-1,2.9-1.3c0.7-0.3,0.7-0.7,0.9-1c0.2-0.3,0.6-0.5,0.4-0.6s-0.9-0.1-1.8-0.1c-0.9,0-1.9-0.1-2.4-0.5s-0.3-1.2,0.1-1.9
		c0.5-0.8,1.4-1.5,1.6-2.2c0.3-0.7-0.1-1.2-0.5-1.6c-0.4-0.5-0.9-0.9-0.7-1.1c0.1-0.1,0.8,0.1,1.5,0.1s1.3-0.2,1.3-0.6
		c0.1-0.4-0.4-1-0.7-1.6s-0.6-1.3-0.9-1.9c-0.3-0.5-0.6-1-0.8-2.2c-0.2-1.1-0.3-3-0.4-4.4c-0.1-1.5-0.2-2.5-0.6-2.6
		c-0.4-0.1-1.1,0.9-1.9,1.4c-0.8,0.6-1.6,0.9-2.5-0.7c-0.9-1.5-1.7-4.7-2.5-6.4c0-0.3,0.1-0.6,0-0.9c-0.1-0.7-0.5-1.3-0.7-2
		s-0.1-1.4,0-2.1c0.1-0.7,0.2-1.4,0.1-1.9c-0.2-0.5-0.6-0.8-0.9-0.9s-0.6,0.1-0.6,0.4c0,0.4,0.2,0.9,0.1,1.6
		c-0.1,0.7-0.4,1.6-0.5,2.3c-0.1,0.7,0.2,1.1,0.4,1.8c0.3,0.7,0.5,1.5,0.4,2.2c0,0.7-0.3,1.2-0.8,1.8c-0.5,0.7-1.1,1.4-2,2.1
		c-0.9,0.7-1.9,1.5-2.4,1.6c-0.5,0.2-0.4-0.4-0.7-0.3c-0.3,0-1.1,0.7-1.8,1.3c-0.6,0.6-1.2,1.2-1.6,1.8c-0.3,0.6-0.5,1.2-1,1.9
		c-0.5,0.7-1.3,1.6-1.9,2.3c-0.1,0.1-0.1,0.2-0.2,0.2c-1.4,1-3.5,2.6-5,4.1c-0.2,0-0.4,0-0.6,0c-0.7-0.1-1.6-0.4-2.3-0.9
		c-0.8-0.4-1.3-1-1.8-1.6s-1-1.2-1.4-1.5s-0.6-0.3-0.7-0.2c-0.1,0.1,0.1,0.4,0.3,0.5c0.3,0.3,0.7,0.7,1.4,1.4
		c0.6,0.8,1.5,1.8,2.3,2.5c0.6,0.6,1.2,0.8,1.8,0.9c-1,1.3-1.2,2.5,0.3,4.8c1.8,2.8,6.2,7.1,9.9,10.6c3.7,3.4,6.8,6,9.6,8.1
		c2.7,2,5.1,3.6,7,4.5c2,0.9,3.5,1.1,4.8,1c1.2-0.1,2.1-0.5,3-1.1c0.9-0.7,1.9-1.6,2.6-2.9s1.1-3,1.2-4.6
		C160.9,164.4,160.8,162.9,160.3,161.8z M140.4,133.2c-0.2,1.8-0.6,2.6-0.7,3.5c-0.1,0.9,0,2,0.1,3.2c0.1,1.2,0.1,2.5-0.5,3.2
		c-0.5,0.7-1.5,0.8-3.5,0.7c-1.9-0.1-4.8-0.4-5.8-1.2c-0.4-0.3-0.5-0.6-0.5-1c0.1-0.2,0.2-0.3,0.4-0.5c0.6-0.9,1.9-2,2.9-3.1
		c1.1-1.1,1.9-2.1,2.7-2.8c0.8-0.7,1.5-1.1,2.3-1.6s1.6-1.2,2.4-2c0.1-0.1,0.2-0.3,0.4-0.4C140.5,131.9,140.4,132.6,140.4,133.2z"/>
	<path class="st0" d="M93.9,43.1c0.5-0.2,1-0.4,1.2-0.5C95.5,42.3,94.6,42.6,93.9,43.1z"/>
	<path class="st0" d="M32.4,40.3c0.2,1.6,0.2,2.1,0,2.4c-0.2,0.3-0.5,0.3-0.8,1s-0.4,2,0,4.5c0.5,2.4,1.5,5.8,2.2,7.9
		c0.7,2.2,1,3,1.6,3.4s1.5,0.3,2.7,0.5c1.1,0.1,2.5,0.5,3.6,1.1c1.1,0.7,1.9,1.6,2.3,2.2c0.4,0.7,0.3,1.1,0.6,1.1
		c0.4,0,1.2-0.4,2.4-0.9c1.3-0.5,3-1.1,4.7-1.7c1.7-0.6,3.5-1.1,5-1.1c1.6-0.1,2.9,0.4,4.1,0.3c1.2-0.1,2.2-0.7,4.7-0.7
		c2.6-0.1,6.8,0.4,9.6,0.7s4.1,0.4,4.8-0.6c0.7-0.9,0.7-2.9,1-4.5s0.8-2.7,1.4-3.4c0.7-0.7,1.4-0.9,2-0.9c0.6,0.1,1,0.5,1.2,1.2
		c0.1,0.7,0.1,1.8-0.1,3.2s-0.2,3.2-0.1,4.4c0.1,1.1,0.4,1.6,0.9,1.9c0.4,0.3,1,0.3,1.7,0.6s1.6,0.8,2.2,1.6c0.7,0.8,1.1,2,1.4,2.7
		c0.3,0.8,0.4,1.2,0.8,1.1c0.4-0.1,1.2-0.9,1.9-1.4s1.4-0.8,1.8-1.2c0.4-0.4,0.4-0.8,0.1-1.3s-1-1.2-1.5-1.9c-0.6-0.7-1-1.6-0.8-2.4
		s1.2-1.7,2-2.6c0.9-0.9,1.8-1.7,1.5-1.8s-1.7,0.6-2.3,0.6s-0.4-0.7,0-1.2s1.2-0.9,0.9-1s-1.5,0.3-2.4,0.2s-1.4-0.6-1.5-1.2
		c-0.1-0.6,0.1-1.3,0.6-2s1.4-1.3,1.3-1.5c-0.1-0.2-1.1-0.1-1.8-0.3s-1-0.7-1-1.5c0.1-0.8,0.6-1.9,1.1-2.8c0.5-0.9,1-1.5,1.7-1.9
		l0,0c-0.7,0.3-1.4,0.6-1.8,0.6c-0.8,0.1-0.5-0.5-0.2-1.1s0.5-1.2,0.1-1.6c-0.4-0.4-1.6-0.5-2-0.9c-0.5-0.4-0.3-1.2,0.1-1.9
		c0.5-0.7,1.3-1.4,1.2-1.8c-0.2-0.3-1.3-0.3-2-0.6c-0.7-0.2-1-0.6-1-1.2c0-0.7,0.2-1.6-0.1-2.1c-0.3-0.5-1.2-0.7-1.6-2.2
		c-0.5-1.5-0.5-4.3-0.7-6.6c-0.2-2.4-0.6-4.2-0.9-4.3c-0.3-0.1-0.5,1.6-1,2.4c-0.6,0.8-1.5,0.8-1.6,1.5c-0.2,0.8,0.4,2.3,0.2,2.7
		c-0.2,0.5-1.1-0.2-2.2,0.1c-1.1,0.3-2.4,1.5-2.9,2.8c-0.6,1.2-0.5,2.5-1,3.4c-0.5,0.9-1.6,1.5-1.7,2.2c-0.2,0.7,0.6,1.4,0.6,2.1
		s-0.8,1.3-1.2,1.2c-0.5-0.1-0.7-0.9-2.2-0.5s-4.2,1.7-6.9,3.1c-2.7,1.4-5.3,2.8-4.9,2.1c0.4-0.7,3.7-3.6,5.1-5
		c1.4-1.4,0.7-1.4-1.3-0.1c-2,1.4-5.4,4.1-7.7,4.8c-2.2,0.8-3.4-0.3-3.8-1.1c-0.5-0.8-0.3-1.3,0.1-2c0.3-0.7,0.8-1.5,1.4-2.3
		s1.4-1.6,1.1-1.7c-0.2-0.1-1.4,0.6-2.4,1.4s-1.7,1.7-2.5,1.7s-1.7-0.9-2.6-1.9c-0.9-1-1.8-2.2-2.9-3.7c-1.1-1.6-2.4-3.5-2.1-4.8
		c0.3-1.3,2-2,1.8-2.7s-2.4-1.3-3.4-2s-0.7-1.7-1-2.5s-1.1-1.6-1.6-2.7c-0.5-1.1-0.7-2.5-0.3-4.2c0.5-1.6,1.6-3.5,3.3-5.4
		c1.7-1.8,3.9-3.6,6.2-5.1c2.5-1.5,4.9-2.6,5.3-3c0.4-0.4-1.2,0-3.7,1.1c-2.6,1.2-6.2,3.1-9,5.4c-2.9,2.3-5,4.9-6.6,7.4
		c-1.6,2.6-2.7,5-3.1,8.2c-0.3,3.2,0.2,7,0.7,10.3S32.2,38.6,32.4,40.3z"/>
	<path class="st0" d="M16.1,123.9c1.3,1.6,2.6,3.7,3.7,5.7s1.9,3.9,2.8,5.5c0.9,1.6,1.7,2.9,2.3,4.6c0.6,1.6,0.9,3.6,1.2,4.4
		s0.7,0.3,0.7-1.2s-0.3-4-0.5-6.9c-0.2-3-0.4-6.5-0.3-9.1c0.1-2.6,0.5-4.4,1-5.1s1-0.4,1.4-0.4c0.5-0.1,0.9-0.6,1.2-2.6
		c0.2-2,0.1-5.6,0.3-8s0.6-3.5,1.1-4.1s1.1-0.5,1.1-1.2s-0.6-2.3-2.2-4.2c-1.6-1.9-4.3-4.1-6.1-5.9s-2.7-3-3-4s-0.1-1.6-0.5-1.4
		c-0.5,0.3-1.6,1.5-2.5,2.4c-0.8,0.7-1.3,1.2-1.1,1.9c0.1,0.7,0.9,1.6,1.9,2.5c1.1,0.9,2.5,1.8,3.5,2.8s1.6,2,2.2,3.5
		c0.6,1.6,1.3,3.7,1.6,6.2c0.4,2.4,0.4,5.2,0.1,5.8s-0.9-0.9-1.2-1.1c-0.3-0.1-0.3,1.1-0.2,4.4s0.3,8.6,0.3,11.5
		c0,2.8-0.3,3.1-0.7,3c-0.3-0.2-0.7-0.8-1.2-1.8c-0.6-1-1.3-2.5-2.5-4.1s-2.7-3.5-4.2-4.9c-1.4-1.4-2.7-2.4-3.4-2.7
		c-0.7-0.3-0.8,0.1-0.1,0.9C13.4,121.1,14.8,122.3,16.1,123.9z"/>
	<path class="st0" d="M15.8,280c1.4,0.5,2.8,0.7,3.7,0.5s1.2-1,1.6-2.6c0.3-1.6,0.7-4,1.1-5.7c0.4-1.8,0.9-2.8,1.6-3.7
		c0.8-0.9,1.7-1.7,1.9-2.7s-0.2-2.2-0.5-3.2c-0.3-1.1-0.4-2-0.7-2.8c-0.3-0.7-1-1.3-1.7-1.3s-1.4,0.6-2,1.3c-0.6,0.8-1.1,1.7-2,2.4
		c-0.8,0.6-2,1.1-3.2,1.2s-2.4-0.1-3.4-0.1c-1.1,0.1-2,0.4-2.7,1.1s-1.3,1.9-1.5,2.9c-0.4,1.1-0.6,2.1-0.5,3s0.6,1.9,1.3,3.1
		s1.7,2.8,2.9,4S14.4,279.5,15.8,280z"/>
	<path class="st0" d="M15.9,89.3c0.9-0.7,2.1-1.4,3.9-2.2c1.8-0.8,4.3-1.6,6.7-2.4c2.4-0.7,4.6-1.3,6.8-2s4.5-1.4,6-2
		s2.4-1.2,3.2-1.3s1.6,0.1,2.3,0.1s1.5-0.3,1.9-0.8s0.5-1.1,0.9-1.7c0.4-0.6,1.2-1.1,2.2-1.7c1-0.5,2.3-1.2,3.3-1.7s1.7-1.1,3-1.6
		s3.2-0.9,5-1s3.7,0.1,4.8,0.5c1.2,0.3,1.6,0.8,2.1,0.8s0.8-0.4,1.5-0.5s1.7-0.1,2.4,0.1s0.9,0.4,1.1,0.3c0.2-0.1,0.2-0.7-0.5-1
		s-2.1-0.5-2.6-0.7s-0.1-0.6,1-0.9c1.1-0.3,3.1-0.5,3.2-0.6c0.1-0.1-1.5-0.2-3.5-0.1c-2.1,0-4.5,0.2-6.6,0.4
		c-2.1,0.2-3.8,0.5-5.4,0.7c-1.7,0.2-3.3,0.4-5.2,0.7c-2,0.3-4.2,0.6-5.7,0.7c-1.5,0-2.2-0.3-3.1-0.1c-0.9,0.1-2.1,0.7-3.3,1.5
		s-2.3,1.7-3.7,2.4s-3.1,1-4.6,1.8c-1.5,0.8-2.7,2.1-4,2.9c-1.2,0.8-2.5,1-3.5,1.6s-2,1.7-3.4,2.9c-1.5,1.2-3.5,2.7-5,3.8
		c-1.7,1.1-2.7,1.9-2.8,2.1C14.2,90.4,15,89.9,15.9,89.3z"/>
	<path class="st0" d="M25.3,281.6c0.1-0.5,0.1-1.2,0.3-1.9s0.5-1.4,1-3.1s1.1-4.3,1-4.3c-0.4,0.2-1.4,2.7-2.5,4.7s-2.3,3.5-3.5,5.1
		c-1.2,1.7-2.4,3.5-3.8,5c-1.4,1.5-2.9,2.6-4,3.5s-1.8,1.6-2.2,2.1c-0.3,0.5-0.3,1,0,0.9s1-0.8,1.6-1.2c0.7-0.4,1.3-0.5,2-0.9
		c0.7-0.5,1.4-1.3,2.3-2.3c0.9-1,2-2.3,2.9-3.4s1.6-2,1.8-2s0,0.9-0.5,1.9c-0.5,1.1-1.4,2.4-2.3,3.6c-0.9,1.2-2,2.2-2.5,3.2
		c-0.6,1-0.8,2.1-0.5,2.6c0.2,0.5,0.8,0.5,1.2,0.4c0.5,0,0.9,0,1,0.1c0,0.1-0.3,0.4-0.4,0.7c-0.1,0.2,0.1,0.4,0.6,0.2
		c0.5-0.1,1.3-0.5,1.3-0.1s-0.7,1.6-1.1,2.4c-0.4,0.9-0.5,1.3-0.2,1.1c0.3-0.2,1-1,1.8-1.9c0.7-0.9,1.4-1.6,1.9-1.9
		c0.4-0.2,0.5,0.1,0.5,0.8s-0.1,1.9,0,2.4c0.2,0.5,0.7,0.2,1.2-0.8s0.9-2.7,1-3.8c0.1-1.1,0-1.7-0.3-2.2s-0.7-0.9-0.9-1.5
		s-0.2-1.4,0.1-2.1s0.9-1.2,1-1.8c0.2-0.6-0.1-1.1-0.3-1.8c-0.2-0.7-0.3-1.5-0.2-2.1C24.7,282.6,25.1,282.2,25.3,281.6z"/>
	<path class="st0" d="M98.6,25.6C98,26.8,97.5,28.4,97,30c-0.5,1.6-0.9,3.2-1.2,4.2s-0.3,1.2-0.5,1.6c0,0.3,0.1,0.6,0.8,1.7
		c0.7,1.2,2.1,3.2,2.9,4.2c0.9,1,1.2,1.1,2.5,0.1c1.3-1.1,3.6-3.3,5-4.6c1.5-1.3,2.1-1.7,2.7-1.8s1.1,0,1.4,0.5s0.3,1.3,0.4,2.2
		c0.1,0.8,0.2,1.7,0.3,2.5c0.2,0.8,0.3,1.5,0.3,2.2s-0.2,1.1-0.1,1c0.2-0.1,0.8-0.9,0.9-1.6c0.1-0.8-0.1-1.4-0.2-2s0-1.1,0.1-2
		c0-0.9-0.1-2-0.5-2.7c-0.5-0.7-1.3-0.9-1.9-1.3c-0.7-0.4-1.1-0.8-1.1-1.6c0-0.8,0.5-1.9,0.6-2.6c0-0.7-0.3-1-0.9-0.9
		s-1.5,0.7-2.2,0.8c-0.8,0.2-1.3,0-2-0.6s-1.4-1.6-1.4-2.2c0-0.6,0.8-0.8,2.1-0.7c1.3,0,3,0.3,3.5,0.4c0.5,0.1-0.2,0-1.3-0.5
		c-1.1-0.5-2.7-1.3-3.9-1.9c-1.2-0.6-2-1.1-2.8-1C99.8,23.6,99.2,24.4,98.6,25.6z"/>
	<path class="st0" d="M74.1,422.7c-0.1-0.2-1.4-0.9-2.4-1.7s-1.9-1.6-1.8-2c0.1-0.4,1.1-0.5,2.1-0.5s1.9,0.1,2.6-0.1
		c0.7-0.3,1.1-0.8,2-1.2c0.8-0.4,2.2-0.7,2.9-1.1c0.7-0.5,0.9-1,0.6-1.5c-0.3-0.5-1-0.9-1.9-1.4s-1.9-1.1-3-1.7
		c-1.1-0.6-2.2-1.2-2.9-1.7c-0.8-0.5-1-1-0.7-1.2s1.3,0,2.4,0.1c1.1,0.1,2.4,0.1,3.1,0c0.7-0.1,1.1-0.3,0.8-0.6s-1.1-0.8-2.4-1.2
		c-1.3-0.4-3-0.7-4.6-0.8c-1.5-0.1-3-0.1-4-0.5s-1.7-1.2-2.4-2.2c-0.7-1.2-1.3-2.7-1.7-3.5s-0.6-1-0.5-0.1c0.2,0.9,0.6,2.7,0.9,4.5
		c0.3,1.8,0.4,3.5,0.7,4.9c0.3,1.4,0.7,2.4,0.8,3.3c0.1,0.9,0,1.6,0.2,2.5s0.7,2,1.2,2.9c0.6,0.9,1.1,1.6,1.4,2.4
		c0.4,0.8,0.4,1.6,0.5,2.3s0.2,1.2,0.3,1.1c0.1-0.1,0.4-0.9,1-1.2c0.6-0.4,1.6-0.3,2.7-0.1C73.1,422.6,74.2,422.9,74.1,422.7z"/>
	<path class="st0" d="M99.2,343.9c0.9-0.6,1.8-1.3,2.7-1.7c0.9-0.4,1.8-0.6,3.1-0.7s3-0.1,4.3,0s2.1,0.2,2.3,0.1
		c0.2-0.2-0.2-0.6-0.8-1.1c-0.6-0.5-1.3-1.1-2.2-1.5c-0.8-0.4-1.8-0.4-3.1-0.3c-1.3,0.2-2.8,0.6-4,0.9s-2.1,0.6-2.8,1.3
		c-0.7,0.7-1.1,1.7-1.8,2.8c-0.6,1.1-1.5,2.3-1.6,2.6c-0.1,0.4,0.6-0.1,1.4-0.7C97.5,345.1,98.3,344.5,99.2,343.9z"/>
	<path class="st0" d="M97.2,205c0.5-0.2,2.2-1.6,3.7-3c1.5-1.3,2.9-2.6,4.3-4.1s2.7-3.3,3.9-4.7s2.1-2.4,2.7-3.2c0.7-0.8,1-1.3,1-2
		c-0.1-0.6-0.5-1.4-0.8-2c-0.2-0.7-0.4-1.3-0.8-1.2c-0.4,0.2-0.9,1.2-1.9,2c-1,0.9-2.4,1.6-3.5,2.4s-2,1.5-2.8,2.2s-1.4,1.2-2,2.1
		s-1,2-1.9,3.2s-2.1,2.6-2.4,3.2c-0.3,0.6,0.6,0.2,1.3,0.1c0.8-0.1,1.5,0.1,1.6,0.7s-0.5,1.6-1.2,2.6S96.8,205.3,97.2,205z"/>
	<path class="st0" d="M123.4,287.2c-1.3,0.9-3.8,3.5-5.4,4.5c-1.6,0.9-2.2,0.2-3.4-0.3s-2.9-0.9-4.2-0.4c-1.3,0.4-2.1,1.7-3.2,2.7
		s-2.4,2-4,2.2s-3.4-0.2-6.3-0.5s-6.8-0.5-9.2-1.2s-3.1-1.8-1.8-2.7c1.3-0.9,4.6-1.6,7.5-2.3c2.9-0.6,5.6-1.2,7-1.8
		c1.4-0.6,1.6-1.1,0-1.6c-1.7-0.5-5.1-1-9-1.7c-3.8-0.7-8.1-1.5-10.1-2.7c-2-1.1-1.7-2.7-1.2-4.5c0.4-1.8,1-4,2.4-5.5
		s3.5-2.4,5.3-2.6s3.3,0.3,6.8,0c3.6-0.4,9.3-1.5,13.5-2.6s6.9-2.2,5.7-2.3c-1.2,0-6.2,1-12.6,1.5s-14.1,0.5-20.7,0.5
		c-6.5,0-11.9,0-18.3-0.1c-6.4-0.1-13.7-0.3-17.5-0.2s-3.9,0.5,1.8,0.9c5.5,0.5,16.6,1.2,16.6,2.7c0,1.1-10.5,0.6-14.2,4.1
		c-1.4,1.3,13.8,16.4,13.5,18.2c-0.9,5-13-8-13.9-8.2c-0.3,0,9.7,11.9,9.8,12.4c0.1,1.9-8.1-0.9-12-2.4c-3.8-1.5-3,2.7-2.4,6
		s0.8,5.7,1.1,7.3c0.3,1.5,0.5,2.4,1.2,2.2s1.9-1.1,3.8-2.2c1.9-1.1,4.4-2.3,6.2-2.6s3,0.3,2.8,1.8c-0.1,1.4-1.5,3.7-3.7,6.5
		c-2.2,2.9-5.1,6.3-6.5,8.5c-1.5,2.2-1.4,3.3-0.8,3.2s1.8-1.4,2.7-2.1c1-0.7,1.6-0.9,2-0.6s0.6,1.1,2,0.5s4.3-2.9,6.9-4.3
		c2.6-1.4,5-2.1,6.1-2c1,0.1,0.8,1.1,0.3,2.2c-0.6,1.1-1.4,2.2-2.8,3.6c-1.4,1.4-3.3,3-5.5,4.8s-4.8,3.7-6.6,5.2
		c-1.9,1.5-3,2.6-3.5,3.8s-0.4,2.6-0.1,3.3s0.8,0.7,1.6,0.4c0.9-0.3,2.1-1.1,3.6-2.3c1.6-1.2,3.4-2.8,6.3-5.6
		c2.9-2.8,6.8-6.7,9.4-8.4c2.6-1.6,3.7-0.9,3.6,0.3c0,1.3-1.3,3-3,4.6s-4,3-5.9,4.2c-2,1.3-3.6,2.4-4.5,3.5c-1,1.1-1.1,2.2-0.7,2.3
		c0.4,0.1,1.4-0.8,2.4-1.3s2-0.7,2-0.2s-1.1,1.8-1.7,2.7c-0.5,0.9-0.5,1.6,0.7,0.6c1.2-1,3.7-3.7,5.8-5.6s3.9-3.1,5.6-4.7
		c1.8-1.7,3.4-3.7,5.4-5.9c2-2.1,4.4-4.3,6.4-6.5s3.7-4.4,4.1-5.8c0.4-1.3-0.6-1.9-1.5-2.9s-1.9-2.6-1.6-3.9
		c0.2-1.3,1.7-2.2,4.6-2.7c2.8-0.5,7-0.3,9.9,0.3c2.8,0.6,4.4,1.7,6.6,1s5-3.1,7.7-5s5.4-3.3,7-4.7c1.6-1.4,2.2-2.9,2.3-3.7
		c0.1-0.8-0.4-0.9-0.7-1.4C124.7,287.2,124.7,286.3,123.4,287.2z"/>
	<path class="st0" d="M4.5,187.1c0.2-0.9,0.6-1.8,0.9-2.5c0.4-0.7,0.8-1.1,1.4-1.6c0.7-0.5,1.6-1,1.8-0.9s-0.3,0.9-0.2,1
		s0.7-0.4,1.2-0.8c0.6-0.4,1.2-0.8,1.5-0.8c0.2,0,0,0.4,0.1,0.5c0,0.1,0.3,0.1,0.9-0.3c0.5-0.4,1.3-1,1.5-1.3s-0.2-0.3-1.1-0.2
		c-0.9,0.1-2.4,0.1-3.5,0.4s-2,0.8-2.7,1.3s-1.3,1-1.8,1.6s-0.9,1.4-1.2,2.1c-0.4,0.7-0.9,1.5-1.6,2.1c-0.6,0.7-1.4,1.2-1.7,1.6
		c-0.3,0.3-0.1,0.4,0.2,0.6c0.4,0.2,0.9,0.5,1.4,0.9c0.5,0.3,1,0.7,1.7,0.9c0.7,0.2,1.5,0.3,1.7,0c0.1-0.3-0.4-1-0.6-1.8
		C4.2,189,4.3,188,4.5,187.1z"/>
	<path class="st0" d="M92.5,32.1c0.2,0.2,0.3,0.3,0.8-0.1c0.5-0.4,1.3-1.3,1.7-2.3c0.4-1.1,0.3-2.3,0.3-3.2c0-0.8,0.1-1.3,0.5-1.7
		c0.3-0.5,0.9-0.8,1.2-1.5c0.2-0.7,0.1-1.7,0.3-2.3c0.2-0.7,0.6-1,0.8-1.3c0.2-0.4,0.2-0.8,0.3-1.4c0.2-0.6,0.5-1.3,0.9-1.8
		c0.3-0.4,0.7-0.6,1-1.1c0.3-0.6,0.5-1.4,0.7-2s0.5-1,0.3-1.3s-0.9-0.4-1.5-0.2c-0.5,0.1-1,0.5-1.2,1s-0.3,0.9-0.5,1.8
		c-0.2,0.9-0.6,2.1-0.9,3.1c-0.2,1-0.3,1.7-0.7,2.6c-0.3,0.8-0.9,1.7-1.3,2.5c-0.4,0.8-0.6,1.4-0.9,2.2c-0.2,0.7-0.6,1.7-1.1,2.7
		s-1,2-1.2,2.6c-0.3,0.6-0.2,0.8-0.1,1C92.1,31.7,92.3,31.9,92.5,32.1z"/>
	<path class="st0" d="M23.9,342.9c-1.4-0.2-3.2,0-4.3-0.1c-1.2-0.1-1.7-0.5-1.8-1s0.4-1,1.1-1.4c0.8-0.5,1.8-1,2.1-1.4
		c0.4-0.4,0.1-0.9-0.5-1c-0.5-0.1-1.2,0-1.6-0.3c-0.4-0.3-0.4-1.2-0.7-1.5s-0.7,0.1-1.2,1.2c-0.6,1-1.3,2.8-1.3,3.9s0.6,1.7,0.7,2.2
		c0,0.5-0.6,1-0.7,1.6c-0.1,0.6,0.2,1.4,0.3,2.4c0.2,1,0.2,2.2-0.3,2.5c-0.7,0.2-1.8-0.4-2-0.1s0.6,1.6,1.8,3.1s2.9,3.1,4.5,4.3
		s3.1,2,4,2.4s1.3,0.3,1.6-0.1s0.6-1.2,0.7-2.5c0.1-1.3,0.2-3,0.4-4.6s0.5-3.1,0.6-4.5s0-2.6-0.5-3.5S25.3,343.1,23.9,342.9z"/>
	<path class="st0" d="M31.7,358.4c-0.7-0.6-0.8-1.3-0.3-2.1c0.5-0.9,1.6-1.8,1.8-2.3c0.1-0.5-0.8-0.4-1.7-0.3
		c-0.9,0.1-1.9,0.3-2.5,0.7s-0.7,0.9-0.9,2c-0.2,1-0.5,2.6-0.3,3.5c0.1,0.8,0.7,1,1.6,1.4c0.7,0.2,1.6,0.4,2.3,0.5
		c0.6,0.2,1,0.2,1.4-0.1c0.5-0.3,0.9-0.9,0.6-1.5S32.3,359,31.7,358.4z"/>
	<path class="st0" d="M14.5,332.5c-0.1-0.3-1.1-0.6-1.6-1.1c-0.5-0.4-0.6-0.9-0.5-1.4s0.3-0.9,0-1.7s-1-1.8-1.4-2s-0.5,0.6-0.7,1.1
		c0,0.7,0.2,1.2,0.1,1.8c-0.1,0.6-0.4,1.5-0.6,2.2c-0.2,0.7-0.3,1.6-0.4,2.9c0,1.3-0.1,3.1-0.1,4.2s0,1.5,0.1,1.3s0.3-1.1,0.4-2.2
		c0.2-1.1,0.3-2.4,0.5-3.2c0.2-0.8,0.5-1,1-1.1c0.5-0.2,1.1-0.3,1.8-0.4C13.8,332.8,14.6,332.7,14.5,332.5z"/>
	<path class="st0" d="M106.2,386.7c-0.4,0.2-1.3,0.5-2.2,0.8c-0.9,0.2-1.8,0.5-2.8,0.9c-1,0.5-2.1,1.1-3.2,1.6s-2.1,0.9-3.7,1.6
		c-1.6,0.6-3.7,1.6-4.3,2s0.2,0.3,1.6-0.1c1.4-0.4,3.2-1.1,4.9-1.8c1.7-0.8,3.1-1.5,4.8-2.2c1.7-0.7,3.6-1.2,5.3-1.8
		s3.2-1.1,3.6-1.6c0.5-0.4-0.1-0.8-1.2-1.1s-2.8-0.4-4.4-0.5s-3.2-0.2-4.6,0c-1.5,0.3-2.8,0.9-3.9,1.5c-1.1,0.6-2,1.2-2.6,1.8
		s-0.9,1.2-1,1.6c-0.1,0.4,0.1,0.6,0.4,0.6c0.3-0.1,0.8-0.3,1.5-0.7s1.7-0.9,2.6-1.4c0.9-0.4,1.7-0.8,2.6-1.1s1.8-0.5,2.9-0.6
		s2.4-0.2,3.1-0.1S106.6,386.4,106.2,386.7z"/>
	<path class="st0" d="M120.4,89.3c0.5,0.6,1,1.3,1.5,1.9c0.4,0.7,0.9,1.2,1,1.2s-0.1-0.5-0.2-1.2s-0.1-1.7,0.1-2.4
		c0.3-0.7,0.8-1.1,1.3-1.1s1,0.3,1.4,0.8s0.6,1.2,0.7,1.9s0.1,1.3,0.1,1.9s0.1,1.1,0.2,1.3c0.1,0.3,0.4,0.2,0.6-0.3s0.3-1.5,0.3-2.4
		c0-1-0.2-1.9-0.7-3c-0.5-1-1.2-2.2-1.6-3.2c-0.3-0.9-0.3-1.6-0.5-2.9s-0.7-3.2-1-4.1c-0.3-1-0.5-1-0.6-0.5c0,0.5,0,1.4-0.1,2.4
		c-0.1,0.9-0.4,1.9-1,2.7s-1.6,1.4-2.2,1.9s-0.7,0.8-0.9,1.4c-0.1,0.6-0.1,1.4,0.2,2.1C119.3,88.3,119.9,88.7,120.4,89.3z"/>
	<path class="st0" d="M39.3,288.8c-0.6-2-0.6-4.4-0.6-7.3c0-2.8,0-6.1,0-9.1s0-5.8,0.1-8.4c0.1-2.7,0.3-5.3,2.2-11.3
		c1.9-6,5.6-15.6,9.8-24.4s8.9-16.7,12.6-24.5c3.7-7.8,6.5-15.5,8.9-21.5c2.5-6,4.6-10.4,6.7-14.5c2.1-4.1,4.2-7.9,5.5-11
		s2-5.7,4.2-11.1s6.1-13.7,9.9-22.7c3.8-9.1,7.5-18.9,9.8-25.1s3.3-8.7,4-10.5s1.2-2.7,1.4-3.5s0.1-1.5,0.1-2.2s0.1-1.4-0.1-1.5
		s-0.8,0.5-1.3,1.2s-0.9,1.6-1.5,2.1c-0.7,0.5-1.5,0.5-1.8,0.2s0.1-1,0.4-1.7c0.4-0.6,0.7-1.3,0.9-1.8s0.2-0.9-0.2-1.2
		c-0.4-0.3-1.2-0.6-2-0.9s-1.6-0.5-1.9-1c-0.4-0.5-0.2-1.4-0.2-2.1c-0.1-0.6-0.2-1.1-0.5-1.1c-0.2,0-0.5,0.3-0.8,0.8
		c-0.3,0.4-0.7,0.9-1,0.8c-0.3-0.1-0.5-0.8-0.9-1.4c-0.4-0.6-1.1-1-1.4-0.7c-0.4,0.2-0.5,1.2-0.7,2.1c-0.2,0.9-0.6,1.8-0.9,2
		s-0.6-0.4-1,2c-0.4,2.3-0.9,7.7-2,13.2c-1.1,5.5-2.8,11.3-4.6,17s-3.8,11.4-5.9,17.1c-2,5.6-4.2,11.3-6.3,17.1s-4,11.7-5.7,15.4
		c-1.7,3.8-3.1,5.4-4.5,7.8s-2.7,5.7-4.5,9.8c-1.8,4.1-4.1,8.9-6.2,12.5c-2.1,3.6-3.9,6-5.2,8.1s-2,3.9-2.7,6s-1.3,4.3-2.4,7.2
		c-1.1,3-2.7,6.7-4.7,11.1c-2,4.5-4.3,9.6-5.8,13.1c-1.6,3.5-2.3,5.5-3,6.9s-1.3,2.2-1.6,3.2s-0.3,2.3-0.6,3.9
		c-0.3,1.7-0.9,3.7-1.8,5.6c-0.8,1.9-1.9,3.7-2.4,5s-0.6,2.1-0.5,3c0,0.9,0.2,1.9,0.5,3.3s0.6,3.2,1,5.4c0.5,2.2,1,4.8,1.6,9.4
		c0.6,4.6,1.1,11.1,1.2,18.4c0.1,7.3-0.4,15.1-0.9,19.3c-0.5,4.2-1.1,4.6-1.7,5.2c-0.6,0.7-1.1,1.5-1.6,2s-0.9,0.7-1.6,0.6
		c-0.6,0-1.5-0.3-2-0.4c-0.6-0.1-0.9,0-0.7,0.3s0.8,0.8,1.4,1.2c0.6,0.4,1.3,0.8,1.6,1.3c0.4,0.5,0.4,1,0.5,1.7
		c0.1,0.6,0.2,1.3,0.5,1.6s0.7,0.1,1.2-0.2c0.6-0.3,1.2-0.7,1.8-0.8c0.6-0.1,1.1,0.1,1.2,0.8c0.2,0.6-0.1,1.7-0.7,2.2
		c-0.6,0.5-1.6,0.3-2.7-0.1c-1.1-0.4-2.3-1-3.4-1.8c-1.1-0.7-2.1-1.6-2.8-2.3c-0.7-0.7-1.1-1.3-1.4-1.4c-0.2-0.2-0.3,0,0,1.1
		s1,3,2.2,4.7s2.8,3.1,4.6,3.8s3.8,0.7,5.4-0.6c1.6-1.3,2.9-3.8,3.5-4.3c0.6-0.4,0.3,1.2,0.4,2.5c0,1.4,0.4,2.4,0.7,2.9
		c0.4,0.5,0.8,0.5,1.2-1.2s0.8-5,1-9.8c0.2-4.7,0.2-10.7,0.4-16.6s0.7-11.4,0.3-14.9C41,292.3,39.9,290.8,39.3,288.8z"/>
	<path class="st0" d="M1.1,184.1c0.3-0.1,0.8-0.7,1.2-1.3c0.4-0.7,0.6-1.4,1-2c0.3-0.6,0.8-1.1,1.2-1.5s0.8-0.7,0.8-0.9
		c0-0.1-0.5,0-0.5-0.2s0.5-0.6,1.2-1.1s1.7-1.1,2.7-1.3c1-0.3,1.9-0.2,2.9-0.1c0.9,0.1,1.8,0.3,2.3,0.6c0.5,0.3,0.5,0.6,0.7,0.7
		c0.3,0.1,0.7,0.1,1.9,0.1c1.1,0,2.9,0.1,4.6,0.2c1.7,0.1,3.4,0.2,4.1,0.1c0.7,0,0.3-0.2-0.6-0.4c-0.8-0.2-2.1-0.4-3.4-0.6
		s-2.7-0.4-3.6-0.4c-1-0.1-1.6,0-2.5-0.2s-2.3-0.8-2.9-1.2c-0.7-0.4-0.8-0.7-0.9-0.9c-0.1-0.2-0.3-0.3-0.7-0.3s-1.2,0.2-1.6,0.5
		c-0.5,0.3-0.6,0.7-1.1,1s-1.2,0.3-1.8,0.4c-0.6,0-1.1-0.1-1.4,0.1c-0.3,0.1-0.5,0.3-0.6,0.8c-0.1,0.4-0.2,1-0.5,1.4
		c-0.3,0.5-0.8,0.9-1.2,1.2c-0.5,0.3-0.9,0.5-1.1,1.3s-0.2,2.1-0.2,2.9C0.9,183.8,0.8,184.2,1.1,184.1z"/>
	<path class="st0" d="M15.6,321.3c-0.8-0.7-1.5-1.4-2.4-2.2c-0.9-0.7-1.8-1.5-1.9-1.4c-0.2,0.1,0.4,1.1,1.1,1.8c0.5,0.6,1,1,1.5,1.5
		c0.5,0.4,1,1,1.5,1.5c0.5,0.4,0.9,0.9,1.2,1.2s0.6,0.5,0.9,0.6c0.3,0,0.7,0,1.2-0.1s0.9-0.1,0.8-0.4c-0.2-0.2-0.9-0.6-1.6-1
		C17.1,322.4,16.3,321.9,15.6,321.3z"/>
</g>
</svg>
